<?xml version="1.0" encoding="UTF-8" standalone="no"?>
<svg
   xmlns:dc="http://purl.org/dc/elements/1.1/"
   xmlns:cc="http://creativecommons.org/ns#"
   xmlns:rdf="http://www.w3.org/1999/02/22-rdf-syntax-ns#"
   xmlns:svg="http://www.w3.org/2000/svg"
   xmlns="http://www.w3.org/2000/svg"
   xmlns:sodipodi="http://sodipodi.sourceforge.net/DTD/sodipodi-0.dtd"
   xmlns:inkscape="http://www.inkscape.org/namespaces/inkscape"
   sodipodi:docname="Atom.svg"
   inkscape:version="1.0 (4035a4fb49, 2020-05-01)"
   id="svg971"
   version="1.1"
   viewBox="0 0 210 297"
   height="297mm"
   width="210mm">
  <defs
     id="defs965">
    <filter
       height="1.0053843"
       y="-0.0026921262"
       width="1.005006"
       x="-0.0025029892"
       id="filter11198"
       style="color-interpolation-filters:sRGB"
       inkscape:collect="always">
      <feGaussianBlur
         id="feGaussianBlur11200"
         stdDeviation="0.1186396"
         inkscape:collect="always" />
    </filter>
  </defs>
  <sodipodi:namedview
     inkscape:window-maximized="1"
     inkscape:window-y="-11"
     inkscape:window-x="-11"
     inkscape:window-height="1046"
     inkscape:window-width="1920"
     inkscape:snap-global="false"
     showgrid="false"
     inkscape:document-rotation="0"
     inkscape:current-layer="layer1"
     inkscape:document-units="mm"
     inkscape:cy="896.98447"
     inkscape:cx="126.1151"
     inkscape:zoom="0.175"
     inkscape:pageshadow="2"
     inkscape:pageopacity="0.0"
     borderopacity="1.0"
     bordercolor="#666666"
     pagecolor="#ffffff"
     id="base">
    <inkscape:grid
       id="grid1899"
       type="xygrid" />
  </sodipodi:namedview>
  <metadata
     id="metadata968">
    <rdf:RDF>
      <cc:Work
         rdf:about="">
        <dc:format>image/svg+xml</dc:format>
        <dc:type
           rdf:resource="http://purl.org/dc/dcmitype/StillImage" />
        <dc:title></dc:title>
      </cc:Work>
    </rdf:RDF>
  </metadata>
  <g
     id="layer1"
     inkscape:groupmode="layer"
     inkscape:label="Layer 1">
    <g
       style="fill:#000000"
       transform="matrix(0.36972172,0,0,0.36972172,626.80593,-95.256802)"
       id="g1686">
      <path
         id="path1550"
         style="fill:#000000;stroke-width:0.125475;paint-order:stroke fill markers"
         d="m -50.653374,-55.184746 a 35.539191,151.19048 0 0 1 35.5344,151.19077 35.539191,151.19048 0 0 1 -35.53926,151.190256 35.539191,151.19048 0 0 1 -35.539016,-151.190256 35.539191,151.19048 0 0 1 35.539016,-151.19077 35.539191,151.19048 0 0 1 0.0049,0 z m -0.0041,6.047695 a 32.696053,144.76486 0 0 0 -7.29e-4,0 A 32.696053,144.76486 0 0 0 -83.354079,95.627752 32.696053,144.76486 0 0 0 -50.658234,240.39308 32.696053,144.76486 0 0 0 -17.962143,95.627752 32.696053,144.76486 0 0 0 -50.657505,-49.137051 Z" />
      <path
         d="M 78.032316,16.649954 A 35.539191,151.19048 58.338513 0 1 -32.00385,126.25554 35.539191,151.19048 58.338513 0 1 -179.34612,175.36551 35.539191,151.19048 58.338513 0 1 -69.312812,65.756262 35.539191,151.19048 58.338513 0 1 78.029765,16.645817 a 35.539191,151.19048 58.338513 0 1 0.0026,0.0042 z m -5.149734,3.170943 A 32.696053,144.76486 58.338513 0 0 72.8822,19.820277 32.696053,144.76486 58.338513 0 0 -67.498461,67.977713 32.696053,144.76486 58.338513 0 0 -173.55548,171.79451 32.696053,144.76486 58.338513 0 0 -33.174257,123.63698 32.696053,144.76486 58.338513 0 0 72.882566,19.820871 Z"
         style="fill:#000000;stroke-width:0.125475;paint-order:stroke fill markers"
         id="path1559" />
      <path
         id="path1561"
         style="fill:#000000;stroke-width:0.125475;paint-order:stroke fill markers"
         d="M 80.454365,171.29248 A 151.19048,35.539191 29.863282 0 1 -68.354411,126.82575 151.19048,35.539191 29.863282 0 1 -181.77289,20.723053 151.19048,35.539191 29.863282 0 1 -32.962258,65.185529 151.19048,35.539191 29.863282 0 1 80.456785,171.28827 a 151.19048,35.539191 29.863282 0 1 -0.0025,0.004 z m -5.242617,-3.01489 a 144.76486,32.696053 29.863282 0 0 3.63e-4,-6.3e-4 A 144.76486,32.696053 29.863282 0 0 -34.049921,67.839527 144.76486,32.696053 29.863282 0 0 -175.87304,24.110583 144.76486,32.696053 29.863282 0 0 -66.610661,124.54846 144.76486,32.696053 29.863282 0 0 75.211763,168.27756 Z" />
      <g
         style="fill:#000000"
         id="g1568"
         transform="matrix(0.90357636,0,0,0.90357636,-4.9392091,9.2219574)">
        <path
           d="M -17.962139,95.640007 A 33.261909,33.261909 0 0 1 -51.220984,128.90192 33.261909,33.261909 0 0 1 -84.485958,95.646136 33.261909,33.261909 0 0 1 -51.233242,62.378099 33.261909,33.261909 0 0 1 -17.962141,95.62775 l -33.261908,0.01226 z"
           sodipodi:arc-type="slice"
           sodipodi:end="6.2828168"
           sodipodi:start="0"
           sodipodi:ry="33.261909"
           sodipodi:rx="33.261909"
           sodipodi:cy="95.640007"
           sodipodi:cx="-51.224049"
           sodipodi:type="arc"
           id="path1565"
           style="fill:#000000;stroke-width:0.0875218;paint-order:stroke fill markers" />
      </g>
      <g
         style="fill:#000000"
         id="g1659"
         transform="translate(-1.3363476,-0.26726953)">
        <g
           id="g1649"
           transform="matrix(0.4277834,0,0,-0.4277834,-49.397023,25.721173)"
           inkscape:transform-center-x="0.61173576"
           inkscape:transform-center-y="0.22349878"
           style="fill:#000000">
          <path
             style="fill:#000000;stroke-width:0.0875218;paint-order:stroke fill markers"
             id="path1647"
             sodipodi:type="arc"
             sodipodi:cx="-51.224049"
             sodipodi:cy="95.640007"
             sodipodi:rx="33.261909"
             sodipodi:ry="33.261909"
             sodipodi:start="0"
             sodipodi:end="6.2828168"
             sodipodi:arc-type="slice"
             d="M -17.962139,95.640007 A 33.261909,33.261909 0 0 1 -51.220984,128.90192 33.261909,33.261909 0 0 1 -84.485958,95.646136 33.261909,33.261909 0 0 1 -51.233242,62.378099 33.261909,33.261909 0 0 1 -17.962141,95.62775 l -33.261908,0.01226 z" />
        </g>
        <g
           style="fill:#000000"
           inkscape:transform-center-y="14.508227"
           inkscape:transform-center-x="49.832611"
           transform="matrix(0.37928828,0,0,-0.37928828,-51.881139,21.083099)"
           id="g1582">
          <path
             d="M -17.962139,95.640007 A 33.261909,33.261909 0 0 1 -51.220984,128.90192 33.261909,33.261909 0 0 1 -84.485958,95.646136 33.261909,33.261909 0 0 1 -51.233242,62.378099 33.261909,33.261909 0 0 1 -17.962141,95.62775 l -33.261908,0.01226 z"
             sodipodi:arc-type="slice"
             sodipodi:end="6.2828168"
             sodipodi:start="0"
             sodipodi:ry="33.261909"
             sodipodi:rx="33.261909"
             sodipodi:cy="95.640007"
             sodipodi:cx="-51.224049"
             sodipodi:type="arc"
             id="path1580"
             style="fill:#000000;stroke-width:0.0875218;paint-order:stroke fill markers" />
        </g>
      </g>
      <g
         style="fill:#000000"
         id="g1665"
         transform="translate(0.26726953,0.53453906)">
        <g
           style="fill:#000000"
           inkscape:transform-center-y="0.22349878"
           inkscape:transform-center-x="0.61173576"
           transform="matrix(0.4277834,0,0,-0.4277834,-138.66505,178.33207)"
           id="g1653">
          <path
             d="M -17.962139,95.640007 A 33.261909,33.261909 0 0 1 -51.220984,128.90192 33.261909,33.261909 0 0 1 -84.485958,95.646136 33.261909,33.261909 0 0 1 -51.233242,62.378099 33.261909,33.261909 0 0 1 -17.962141,95.62775 l -33.261908,0.01226 z"
             sodipodi:arc-type="slice"
             sodipodi:end="6.2828168"
             sodipodi:start="0"
             sodipodi:ry="33.261909"
             sodipodi:rx="33.261909"
             sodipodi:cy="95.640007"
             sodipodi:cx="-51.224049"
             sodipodi:type="arc"
             id="path1651"
             style="fill:#000000;stroke-width:0.0875218;paint-order:stroke fill markers" />
        </g>
        <g
           style="fill:#000000"
           id="g1590"
           transform="matrix(0.37928828,0,0,-0.37928828,-141.14917,173.694)"
           inkscape:transform-center-x="49.832611"
           inkscape:transform-center-y="14.508227">
          <path
             style="fill:#000000;stroke-width:0.0875218;paint-order:stroke fill markers"
             id="path1588"
             sodipodi:type="arc"
             sodipodi:cx="-51.224049"
             sodipodi:cy="95.640007"
             sodipodi:rx="33.261909"
             sodipodi:ry="33.261909"
             sodipodi:start="0"
             sodipodi:end="6.2828168"
             sodipodi:arc-type="slice"
             d="M -17.962139,95.640007 A 33.261909,33.261909 0 0 1 -51.220984,128.90192 33.261909,33.261909 0 0 1 -84.485958,95.646136 33.261909,33.261909 0 0 1 -51.233242,62.378099 33.261909,33.261909 0 0 1 -17.962141,95.62775 l -33.261908,0.01226 z" />
        </g>
      </g>
      <g
         id="g1608"
         transform="matrix(0.4277834,0,0,-0.4277834,77.602977,173.88784)"
         inkscape:transform-center-x="0.61173576"
         inkscape:transform-center-y="0.22349878"
         style="fill:#000000">
        <path
           style="fill:#000000;stroke-width:0.0875218;paint-order:stroke fill markers"
           id="path1606"
           sodipodi:type="arc"
           sodipodi:cx="-51.224049"
           sodipodi:cy="95.640007"
           sodipodi:rx="33.261909"
           sodipodi:ry="33.261909"
           sodipodi:start="0"
           sodipodi:end="6.2828168"
           sodipodi:arc-type="slice"
           d="M -17.962139,95.640007 A 33.261909,33.261909 0 0 1 -51.220984,128.90192 33.261909,33.261909 0 0 1 -84.485958,95.646136 33.261909,33.261909 0 0 1 -51.233242,62.378099 33.261909,33.261909 0 0 1 -17.962141,95.62775 l -33.261908,0.01226 z" />
      </g>
      <g
         style="fill:#000000"
         inkscape:transform-center-y="14.508227"
         inkscape:transform-center-x="49.832611"
         transform="matrix(0.37928828,0,0,-0.37928828,75.055153,169.27304)"
         id="g1586">
        <path
           d="M -17.962139,95.640007 A 33.261909,33.261909 0 0 1 -51.220984,128.90192 33.261909,33.261909 0 0 1 -84.485958,95.646136 33.261909,33.261909 0 0 1 -51.233242,62.378099 33.261909,33.261909 0 0 1 -17.962141,95.62775 l -33.261908,0.01226 z"
           sodipodi:arc-type="slice"
           sodipodi:end="6.2828168"
           sodipodi:start="0"
           sodipodi:ry="33.261909"
           sodipodi:rx="33.261909"
           sodipodi:cy="95.640007"
           sodipodi:cx="-51.224049"
           sodipodi:type="arc"
           id="path1584"
           style="fill:#000000;stroke-width:0.0875218;paint-order:stroke fill markers" />
      </g>
    </g>
    <g
       id="g11463">
      <path
         transform="matrix(2.2996164,0,0,1.7823372,140.9295,125.60935)"
         inkscape:transform-center-y="0.075857857"
         inkscape:transform-center-x="-0.18627717"
         inkscape:randomized="0.0211114"
         inkscape:rounded="-0.0615314"
         inkscape:flatsided="false"
         sodipodi:arg2="0.63963361"
         sodipodi:arg1="0.52327832"
         sodipodi:r2="2.0952566"
         sodipodi:r1="3.7406814"
         sodipodi:cy="55.82983"
         sodipodi:cx="-25.671753"
         sodipodi:sides="27"
         id="path11438"
         style="fill:#000000;stroke:none;stroke-width:0.0603358;paint-order:stroke fill markers;filter:url(#filter11198)"
         sodipodi:type="star"
         d="m -22.40434,57.767476 c 0.05174,-0.08864 -1.656791,-0.586486 -1.595352,-0.668363 0.06144,-0.08188 0.949309,1.379093 1.021295,1.306544 0.07199,-0.07255 -1.410388,-0.91945 -1.334004,-0.987449 0.07638,-0.068 0.656662,1.56496 0.743418,1.509917 0.08676,-0.05504 -1.261349,-1.192846 -1.169879,-1.239564 0.09147,-0.04672 0.186276,1.731103 0.283267,1.697315 0.09699,-0.03379 -0.8789,-1.437148 -0.778965,-1.461123 0.09993,-0.02398 -0.119743,1.629539 -0.01708,1.617918 0.102661,-0.01162 -0.592317,-1.678645 -0.489956,-1.681607 0.102361,-0.003 -0.424184,1.733004 -0.321964,1.742442 0.102221,0.0094 -0.222775,-1.7028 -0.12251,-1.678798 0.100264,0.024 -0.858042,1.381417 -0.760632,1.41811 0.09741,0.03669 0.260744,-1.624002 0.351393,-1.575913 0.09065,0.04809 -1.238627,1.134105 -1.151621,1.191205 0.08701,0.0571 0.719683,-1.529911 0.79624,-1.461501 0.07656,0.06841 -1.553765,0.808208 -1.482696,0.883643 0.07107,0.07543 1.034463,-1.307155 1.09833,-1.226908 0.06387,0.08025 -1.636262,0.443415 -1.586272,0.533496 0.04999,0.09008 1.223161,-1.090106 1.266236,-0.996003 0.04308,0.0941 -1.563134,0.125441 -1.533961,0.225142 0.02917,0.0997 1.485353,-0.749108 1.505668,-0.647083 0.02032,0.102025 -1.800701,-0.299363 -1.796915,-0.195469 0.0038,0.103893 1.74878,-0.40485 1.742043,-0.302578 -0.0067,0.102271 -1.601243,-0.6554 -1.619145,-0.553513 -0.0179,0.101887 1.735863,-0.03673 1.704292,0.06264 -0.03157,0.09937 -1.445563,-1.015 -1.48587,-0.919955 -0.04031,0.09505 1.718687,0.32891 1.665124,0.416179 -0.05356,0.08727 -1.129156,-1.236971 -1.193333,-1.1559 -0.06418,0.08107 1.597104,0.628019 1.529176,0.704875 -0.06793,0.07686 -0.855687,-1.42759 -0.935168,-1.361946 -0.07948,0.06564 1.256985,1.069606 1.17061,1.124666 -0.08637,0.05506 -0.3409,-1.57935 -0.432783,-1.530114 -0.09188,0.04924 1.017646,1.199601 0.922423,1.237742 -0.09522,0.03814 -0.0034,-1.669434 -0.103549,-1.642737 -0.100118,0.0267 0.705432,1.507837 0.602445,1.52065 -0.102987,0.01281 0.405676,-1.563145 0.301956,-1.561945 -0.103719,0.0012 0.274509,1.70638 0.171338,1.695499 -0.103171,-0.01088 0.692402,-1.521367 0.592123,-1.545077 -0.100279,-0.02371 -0.08165,1.590909 -0.180018,1.557788 -0.09837,-0.03312 1.091384,-1.330443 0.999426,-1.376908 -0.09196,-0.04647 -0.422931,1.719326 -0.50974,1.663858 -0.08681,-0.05547 1.408628,-1.138057 1.327525,-1.203058 -0.0811,-0.065 -0.85551,1.493001 -0.925324,1.415968 -0.06981,-0.07703 1.495591,-0.702294 1.431847,-0.783259 -0.06375,-0.08096 -1.124822,1.373384 -1.175165,1.282917 -0.05034,-0.09047 1.707328,-0.424188 1.664721,-0.518988 -0.04261,-0.0948 -1.446765,0.971347 -1.476476,0.871645 -0.02971,-0.0997 1.724684,0.135243 1.704317,0.03423 -0.02037,-0.101018 -1.538406,0.637042 -1.54771,0.534786 -0.0093,-0.102255 1.598155,0.442654 1.601596,0.340412 0.0034,-0.102243 -1.73358,0.149515 -1.718666,0.04833 0.01492,-0.101186 1.54712,0.945598 1.57757,0.847979 0.03045,-0.09762 -1.6478,-0.214918 -1.605262,-0.30998 0.04254,-0.09506 1.223898,1.18849 1.275639,1.099846 z" />
      <path
         d="m -22.40434,57.767476 c 0.05174,-0.08864 -1.656791,-0.586486 -1.595352,-0.668363 0.06144,-0.08188 0.949309,1.379093 1.021295,1.306544 0.07199,-0.07255 -1.410388,-0.91945 -1.334004,-0.987449 0.07638,-0.068 0.656662,1.56496 0.743418,1.509917 0.08676,-0.05504 -1.261349,-1.192846 -1.169879,-1.239564 0.09147,-0.04672 0.186276,1.731103 0.283267,1.697315 0.09699,-0.03379 -0.8789,-1.437148 -0.778965,-1.461123 0.09993,-0.02398 -0.119743,1.629539 -0.01708,1.617918 0.102661,-0.01162 -0.592317,-1.678645 -0.489956,-1.681607 0.102361,-0.003 -0.424184,1.733004 -0.321964,1.742442 0.102221,0.0094 -0.222775,-1.7028 -0.12251,-1.678798 0.100264,0.024 -0.858042,1.381417 -0.760632,1.41811 0.09741,0.03669 0.260744,-1.624002 0.351393,-1.575913 0.09065,0.04809 -1.238627,1.134105 -1.151621,1.191205 0.08701,0.0571 0.719683,-1.529911 0.79624,-1.461501 0.07656,0.06841 -1.553765,0.808208 -1.482696,0.883643 0.07107,0.07543 1.034463,-1.307155 1.09833,-1.226908 0.06387,0.08025 -1.636262,0.443415 -1.586272,0.533496 0.04999,0.09008 1.223161,-1.090106 1.266236,-0.996003 0.04308,0.0941 -1.563134,0.125441 -1.533961,0.225142 0.02917,0.0997 1.485353,-0.749108 1.505668,-0.647083 0.02032,0.102025 -1.800701,-0.299363 -1.796915,-0.195469 0.0038,0.103893 1.74878,-0.40485 1.742043,-0.302578 -0.0067,0.102271 -1.601243,-0.6554 -1.619145,-0.553513 -0.0179,0.101887 1.735863,-0.03673 1.704292,0.06264 -0.03157,0.09937 -1.445563,-1.015 -1.48587,-0.919955 -0.04031,0.09505 1.718687,0.32891 1.665124,0.416179 -0.05356,0.08727 -1.129156,-1.236971 -1.193333,-1.1559 -0.06418,0.08107 1.597104,0.628019 1.529176,0.704875 -0.06793,0.07686 -0.855687,-1.42759 -0.935168,-1.361946 -0.07948,0.06564 1.256985,1.069606 1.17061,1.124666 -0.08637,0.05506 -0.3409,-1.57935 -0.432783,-1.530114 -0.09188,0.04924 1.017646,1.199601 0.922423,1.237742 -0.09522,0.03814 -0.0034,-1.669434 -0.103549,-1.642737 -0.100118,0.0267 0.705432,1.507837 0.602445,1.52065 -0.102987,0.01281 0.405676,-1.563145 0.301956,-1.561945 -0.103719,0.0012 0.274509,1.70638 0.171338,1.695499 -0.103171,-0.01088 0.692402,-1.521367 0.592123,-1.545077 -0.100279,-0.02371 -0.08165,1.590909 -0.180018,1.557788 -0.09837,-0.03312 1.091384,-1.330443 0.999426,-1.376908 -0.09196,-0.04647 -0.422931,1.719326 -0.50974,1.663858 -0.08681,-0.05547 1.408628,-1.138057 1.327525,-1.203058 -0.0811,-0.065 -0.85551,1.493001 -0.925324,1.415968 -0.06981,-0.07703 1.495591,-0.702294 1.431847,-0.783259 -0.06375,-0.08096 -1.124822,1.373384 -1.175165,1.282917 -0.05034,-0.09047 1.707328,-0.424188 1.664721,-0.518988 -0.04261,-0.0948 -1.446765,0.971347 -1.476476,0.871645 -0.02971,-0.0997 1.724684,0.135243 1.704317,0.03423 -0.02037,-0.101018 -1.538406,0.637042 -1.54771,0.534786 -0.0093,-0.102255 1.598155,0.442654 1.601596,0.340412 0.0034,-0.102243 -1.73358,0.149515 -1.718666,0.04833 0.01492,-0.101186 1.54712,0.945598 1.57757,0.847979 0.03045,-0.09762 -1.6478,-0.214918 -1.605262,-0.30998 0.04254,-0.09506 1.223898,1.18849 1.275639,1.099846 z"
         sodipodi:type="star"
         style="fill:#000000;stroke:none;stroke-width:0.0603358;paint-order:stroke fill markers;filter:url(#filter11198)"
         id="path11442"
         sodipodi:sides="27"
         sodipodi:cx="-25.671753"
         sodipodi:cy="55.82983"
         sodipodi:r1="3.7406814"
         sodipodi:r2="2.0952566"
         sodipodi:arg1="0.52327832"
         sodipodi:arg2="0.63963361"
         inkscape:flatsided="false"
         inkscape:rounded="-0.0615314"
         inkscape:randomized="0.0211114"
         inkscape:transform-center-x="-0.17871664"
         inkscape:transform-center-y="0.081493438"
         transform="matrix(2.2063036,0,0,1.9147984,157.23207,110.99973)" />
      <path
         transform="matrix(2.2300059,0,0,1.9353691,175.21583,103.70438)"
         inkscape:transform-center-y="0.082371709"
         inkscape:transform-center-x="-0.18064252"
         inkscape:randomized="0.0211114"
         inkscape:rounded="-0.0615314"
         inkscape:flatsided="false"
         sodipodi:arg2="0.63963361"
         sodipodi:arg1="0.52327832"
         sodipodi:r2="2.0952566"
         sodipodi:r1="3.7406814"
         sodipodi:cy="55.82983"
         sodipodi:cx="-25.671753"
         sodipodi:sides="27"
         id="path11444"
         style="fill:#000000;stroke:none;stroke-width:0.0603358;paint-order:stroke fill markers;filter:url(#filter11198)"
         sodipodi:type="star"
         d="m -22.40434,57.767476 c 0.05174,-0.08864 -1.656791,-0.586486 -1.595352,-0.668363 0.06144,-0.08188 0.949309,1.379093 1.021295,1.306544 0.07199,-0.07255 -1.410388,-0.91945 -1.334004,-0.987449 0.07638,-0.068 0.656662,1.56496 0.743418,1.509917 0.08676,-0.05504 -1.261349,-1.192846 -1.169879,-1.239564 0.09147,-0.04672 0.186276,1.731103 0.283267,1.697315 0.09699,-0.03379 -0.8789,-1.437148 -0.778965,-1.461123 0.09993,-0.02398 -0.119743,1.629539 -0.01708,1.617918 0.102661,-0.01162 -0.592317,-1.678645 -0.489956,-1.681607 0.102361,-0.003 -0.424184,1.733004 -0.321964,1.742442 0.102221,0.0094 -0.222775,-1.7028 -0.12251,-1.678798 0.100264,0.024 -0.858042,1.381417 -0.760632,1.41811 0.09741,0.03669 0.260744,-1.624002 0.351393,-1.575913 0.09065,0.04809 -1.238627,1.134105 -1.151621,1.191205 0.08701,0.0571 0.719683,-1.529911 0.79624,-1.461501 0.07656,0.06841 -1.553765,0.808208 -1.482696,0.883643 0.07107,0.07543 1.034463,-1.307155 1.09833,-1.226908 0.06387,0.08025 -1.636262,0.443415 -1.586272,0.533496 0.04999,0.09008 1.223161,-1.090106 1.266236,-0.996003 0.04308,0.0941 -1.563134,0.125441 -1.533961,0.225142 0.02917,0.0997 1.485353,-0.749108 1.505668,-0.647083 0.02032,0.102025 -1.800701,-0.299363 -1.796915,-0.195469 0.0038,0.103893 1.74878,-0.40485 1.742043,-0.302578 -0.0067,0.102271 -1.601243,-0.6554 -1.619145,-0.553513 -0.0179,0.101887 1.735863,-0.03673 1.704292,0.06264 -0.03157,0.09937 -1.445563,-1.015 -1.48587,-0.919955 -0.04031,0.09505 1.718687,0.32891 1.665124,0.416179 -0.05356,0.08727 -1.129156,-1.236971 -1.193333,-1.1559 -0.06418,0.08107 1.597104,0.628019 1.529176,0.704875 -0.06793,0.07686 -0.855687,-1.42759 -0.935168,-1.361946 -0.07948,0.06564 1.256985,1.069606 1.17061,1.124666 -0.08637,0.05506 -0.3409,-1.57935 -0.432783,-1.530114 -0.09188,0.04924 1.017646,1.199601 0.922423,1.237742 -0.09522,0.03814 -0.0034,-1.669434 -0.103549,-1.642737 -0.100118,0.0267 0.705432,1.507837 0.602445,1.52065 -0.102987,0.01281 0.405676,-1.563145 0.301956,-1.561945 -0.103719,0.0012 0.274509,1.70638 0.171338,1.695499 -0.103171,-0.01088 0.692402,-1.521367 0.592123,-1.545077 -0.100279,-0.02371 -0.08165,1.590909 -0.180018,1.557788 -0.09837,-0.03312 1.091384,-1.330443 0.999426,-1.376908 -0.09196,-0.04647 -0.422931,1.719326 -0.50974,1.663858 -0.08681,-0.05547 1.408628,-1.138057 1.327525,-1.203058 -0.0811,-0.065 -0.85551,1.493001 -0.925324,1.415968 -0.06981,-0.07703 1.495591,-0.702294 1.431847,-0.783259 -0.06375,-0.08096 -1.124822,1.373384 -1.175165,1.282917 -0.05034,-0.09047 1.707328,-0.424188 1.664721,-0.518988 -0.04261,-0.0948 -1.446765,0.971347 -1.476476,0.871645 -0.02971,-0.0997 1.724684,0.135243 1.704317,0.03423 -0.02037,-0.101018 -1.538406,0.637042 -1.54771,0.534786 -0.0093,-0.102255 1.598155,0.442654 1.601596,0.340412 0.0034,-0.102243 -1.73358,0.149515 -1.718666,0.04833 0.01492,-0.101186 1.54712,0.945598 1.57757,0.847979 0.03045,-0.09762 -1.6478,-0.214918 -1.605262,-0.30998 0.04254,-0.09506 1.223898,1.18849 1.275639,1.099846 z" />
      <path
         transform="matrix(2.7820392,0,0,2.4144656,129.316,143.51374)"
         inkscape:transform-center-y="0.10276267"
         inkscape:transform-center-x="-0.22535362"
         inkscape:randomized="0.0211114"
         inkscape:rounded="-0.0615314"
         inkscape:flatsided="false"
         sodipodi:arg2="0.63963361"
         sodipodi:arg1="0.52327832"
         sodipodi:r2="2.0952566"
         sodipodi:r1="3.7406814"
         sodipodi:cy="55.82983"
         sodipodi:cx="-25.671753"
         sodipodi:sides="27"
         id="path11430"
         style="fill:#000000;stroke:none;stroke-width:0.0603358;paint-order:stroke fill markers;filter:url(#filter11198)"
         sodipodi:type="star"
         d="m -22.40434,57.767476 c 0.05174,-0.08864 -1.656791,-0.586486 -1.595352,-0.668363 0.06144,-0.08188 0.949309,1.379093 1.021295,1.306544 0.07199,-0.07255 -1.410388,-0.91945 -1.334004,-0.987449 0.07638,-0.068 0.656662,1.56496 0.743418,1.509917 0.08676,-0.05504 -1.261349,-1.192846 -1.169879,-1.239564 0.09147,-0.04672 0.186276,1.731103 0.283267,1.697315 0.09699,-0.03379 -0.8789,-1.437148 -0.778965,-1.461123 0.09993,-0.02398 -0.119743,1.629539 -0.01708,1.617918 0.102661,-0.01162 -0.592317,-1.678645 -0.489956,-1.681607 0.102361,-0.003 -0.424184,1.733004 -0.321964,1.742442 0.102221,0.0094 -0.222775,-1.7028 -0.12251,-1.678798 0.100264,0.024 -0.858042,1.381417 -0.760632,1.41811 0.09741,0.03669 0.260744,-1.624002 0.351393,-1.575913 0.09065,0.04809 -1.238627,1.134105 -1.151621,1.191205 0.08701,0.0571 0.719683,-1.529911 0.79624,-1.461501 0.07656,0.06841 -1.553765,0.808208 -1.482696,0.883643 0.07107,0.07543 1.034463,-1.307155 1.09833,-1.226908 0.06387,0.08025 -1.636262,0.443415 -1.586272,0.533496 0.04999,0.09008 1.223161,-1.090106 1.266236,-0.996003 0.04308,0.0941 -1.563134,0.125441 -1.533961,0.225142 0.02917,0.0997 1.485353,-0.749108 1.505668,-0.647083 0.02032,0.102025 -1.800701,-0.299363 -1.796915,-0.195469 0.0038,0.103893 1.74878,-0.40485 1.742043,-0.302578 -0.0067,0.102271 -1.601243,-0.6554 -1.619145,-0.553513 -0.0179,0.101887 1.735863,-0.03673 1.704292,0.06264 -0.03157,0.09937 -1.445563,-1.015 -1.48587,-0.919955 -0.04031,0.09505 1.718687,0.32891 1.665124,0.416179 -0.05356,0.08727 -1.129156,-1.236971 -1.193333,-1.1559 -0.06418,0.08107 1.597104,0.628019 1.529176,0.704875 -0.06793,0.07686 -0.855687,-1.42759 -0.935168,-1.361946 -0.07948,0.06564 1.256985,1.069606 1.17061,1.124666 -0.08637,0.05506 -0.3409,-1.57935 -0.432783,-1.530114 -0.09188,0.04924 1.017646,1.199601 0.922423,1.237742 -0.09522,0.03814 -0.0034,-1.669434 -0.103549,-1.642737 -0.100118,0.0267 0.705432,1.507837 0.602445,1.52065 -0.102987,0.01281 0.405676,-1.563145 0.301956,-1.561945 -0.103719,0.0012 0.274509,1.70638 0.171338,1.695499 -0.103171,-0.01088 0.692402,-1.521367 0.592123,-1.545077 -0.100279,-0.02371 -0.08165,1.590909 -0.180018,1.557788 -0.09837,-0.03312 1.091384,-1.330443 0.999426,-1.376908 -0.09196,-0.04647 -0.422931,1.719326 -0.50974,1.663858 -0.08681,-0.05547 1.408628,-1.138057 1.327525,-1.203058 -0.0811,-0.065 -0.85551,1.493001 -0.925324,1.415968 -0.06981,-0.07703 1.495591,-0.702294 1.431847,-0.783259 -0.06375,-0.08096 -1.124822,1.373384 -1.175165,1.282917 -0.05034,-0.09047 1.707328,-0.424188 1.664721,-0.518988 -0.04261,-0.0948 -1.446765,0.971347 -1.476476,0.871645 -0.02971,-0.0997 1.724684,0.135243 1.704317,0.03423 -0.02037,-0.101018 -1.538406,0.637042 -1.54771,0.534786 -0.0093,-0.102255 1.598155,0.442654 1.601596,0.340412 0.0034,-0.102243 -1.73358,0.149515 -1.718666,0.04833 0.01492,-0.101186 1.54712,0.945598 1.57757,0.847979 0.03045,-0.09762 -1.6478,-0.214918 -1.605262,-0.30998 0.04254,-0.09506 1.223898,1.18849 1.275639,1.099846 z" />
      <path
         d="m -22.40434,57.767476 c 0.05174,-0.08864 -1.656791,-0.586486 -1.595352,-0.668363 0.06144,-0.08188 0.949309,1.379093 1.021295,1.306544 0.07199,-0.07255 -1.410388,-0.91945 -1.334004,-0.987449 0.07638,-0.068 0.656662,1.56496 0.743418,1.509917 0.08676,-0.05504 -1.261349,-1.192846 -1.169879,-1.239564 0.09147,-0.04672 0.186276,1.731103 0.283267,1.697315 0.09699,-0.03379 -0.8789,-1.437148 -0.778965,-1.461123 0.09993,-0.02398 -0.119743,1.629539 -0.01708,1.617918 0.102661,-0.01162 -0.592317,-1.678645 -0.489956,-1.681607 0.102361,-0.003 -0.424184,1.733004 -0.321964,1.742442 0.102221,0.0094 -0.222775,-1.7028 -0.12251,-1.678798 0.100264,0.024 -0.858042,1.381417 -0.760632,1.41811 0.09741,0.03669 0.260744,-1.624002 0.351393,-1.575913 0.09065,0.04809 -1.238627,1.134105 -1.151621,1.191205 0.08701,0.0571 0.719683,-1.529911 0.79624,-1.461501 0.07656,0.06841 -1.553765,0.808208 -1.482696,0.883643 0.07107,0.07543 1.034463,-1.307155 1.09833,-1.226908 0.06387,0.08025 -1.636262,0.443415 -1.586272,0.533496 0.04999,0.09008 1.223161,-1.090106 1.266236,-0.996003 0.04308,0.0941 -1.563134,0.125441 -1.533961,0.225142 0.02917,0.0997 1.485353,-0.749108 1.505668,-0.647083 0.02032,0.102025 -1.800701,-0.299363 -1.796915,-0.195469 0.0038,0.103893 1.74878,-0.40485 1.742043,-0.302578 -0.0067,0.102271 -1.601243,-0.6554 -1.619145,-0.553513 -0.0179,0.101887 1.735863,-0.03673 1.704292,0.06264 -0.03157,0.09937 -1.445563,-1.015 -1.48587,-0.919955 -0.04031,0.09505 1.718687,0.32891 1.665124,0.416179 -0.05356,0.08727 -1.129156,-1.236971 -1.193333,-1.1559 -0.06418,0.08107 1.597104,0.628019 1.529176,0.704875 -0.06793,0.07686 -0.855687,-1.42759 -0.935168,-1.361946 -0.07948,0.06564 1.256985,1.069606 1.17061,1.124666 -0.08637,0.05506 -0.3409,-1.57935 -0.432783,-1.530114 -0.09188,0.04924 1.017646,1.199601 0.922423,1.237742 -0.09522,0.03814 -0.0034,-1.669434 -0.103549,-1.642737 -0.100118,0.0267 0.705432,1.507837 0.602445,1.52065 -0.102987,0.01281 0.405676,-1.563145 0.301956,-1.561945 -0.103719,0.0012 0.274509,1.70638 0.171338,1.695499 -0.103171,-0.01088 0.692402,-1.521367 0.592123,-1.545077 -0.100279,-0.02371 -0.08165,1.590909 -0.180018,1.557788 -0.09837,-0.03312 1.091384,-1.330443 0.999426,-1.376908 -0.09196,-0.04647 -0.422931,1.719326 -0.50974,1.663858 -0.08681,-0.05547 1.408628,-1.138057 1.327525,-1.203058 -0.0811,-0.065 -0.85551,1.493001 -0.925324,1.415968 -0.06981,-0.07703 1.495591,-0.702294 1.431847,-0.783259 -0.06375,-0.08096 -1.124822,1.373384 -1.175165,1.282917 -0.05034,-0.09047 1.707328,-0.424188 1.664721,-0.518988 -0.04261,-0.0948 -1.446765,0.971347 -1.476476,0.871645 -0.02971,-0.0997 1.724684,0.135243 1.704317,0.03423 -0.02037,-0.101018 -1.538406,0.637042 -1.54771,0.534786 -0.0093,-0.102255 1.598155,0.442654 1.601596,0.340412 0.0034,-0.102243 -1.73358,0.149515 -1.718666,0.04833 0.01492,-0.101186 1.54712,0.945598 1.57757,0.847979 0.03045,-0.09762 -1.6478,-0.214918 -1.605262,-0.30998 0.04254,-0.09506 1.223898,1.18849 1.275639,1.099846 z"
         sodipodi:type="star"
         style="fill:#000000;stroke:none;stroke-width:0.0603358;paint-order:stroke fill markers;filter:url(#filter11198)"
         id="path11428"
         sodipodi:sides="27"
         sodipodi:cx="-25.671753"
         sodipodi:cy="55.82983"
         sodipodi:r1="3.7406814"
         sodipodi:r2="2.0952566"
         sodipodi:arg1="0.52327832"
         sodipodi:arg2="0.63963361"
         inkscape:flatsided="false"
         inkscape:rounded="-0.0615314"
         inkscape:randomized="0.0211114"
         inkscape:transform-center-x="-0.22535362"
         inkscape:transform-center-y="0.10276267"
         transform="matrix(2.7820392,0,0,2.4144656,251.1909,132.82296)" />
      <path
         transform="matrix(2.7820392,0,0,2.4144656,213.23863,30.191464)"
         inkscape:transform-center-y="0.10276267"
         inkscape:transform-center-x="-0.22535362"
         inkscape:randomized="0.0211114"
         inkscape:rounded="-0.0615314"
         inkscape:flatsided="false"
         sodipodi:arg2="0.63963361"
         sodipodi:arg1="0.52327832"
         sodipodi:r2="2.0952566"
         sodipodi:r1="3.7406814"
         sodipodi:cy="55.82983"
         sodipodi:cx="-25.671753"
         sodipodi:sides="27"
         id="path11422"
         style="fill:#000000;stroke:none;stroke-width:0.0603358;paint-order:stroke fill markers;filter:url(#filter11198)"
         sodipodi:type="star"
         d="m -22.40434,57.767476 c 0.05174,-0.08864 -1.656791,-0.586486 -1.595352,-0.668363 0.06144,-0.08188 0.949309,1.379093 1.021295,1.306544 0.07199,-0.07255 -1.410388,-0.91945 -1.334004,-0.987449 0.07638,-0.068 0.656662,1.56496 0.743418,1.509917 0.08676,-0.05504 -1.261349,-1.192846 -1.169879,-1.239564 0.09147,-0.04672 0.186276,1.731103 0.283267,1.697315 0.09699,-0.03379 -0.8789,-1.437148 -0.778965,-1.461123 0.09993,-0.02398 -0.119743,1.629539 -0.01708,1.617918 0.102661,-0.01162 -0.592317,-1.678645 -0.489956,-1.681607 0.102361,-0.003 -0.424184,1.733004 -0.321964,1.742442 0.102221,0.0094 -0.222775,-1.7028 -0.12251,-1.678798 0.100264,0.024 -0.858042,1.381417 -0.760632,1.41811 0.09741,0.03669 0.260744,-1.624002 0.351393,-1.575913 0.09065,0.04809 -1.238627,1.134105 -1.151621,1.191205 0.08701,0.0571 0.719683,-1.529911 0.79624,-1.461501 0.07656,0.06841 -1.553765,0.808208 -1.482696,0.883643 0.07107,0.07543 1.034463,-1.307155 1.09833,-1.226908 0.06387,0.08025 -1.636262,0.443415 -1.586272,0.533496 0.04999,0.09008 1.223161,-1.090106 1.266236,-0.996003 0.04308,0.0941 -1.563134,0.125441 -1.533961,0.225142 0.02917,0.0997 1.485353,-0.749108 1.505668,-0.647083 0.02032,0.102025 -1.800701,-0.299363 -1.796915,-0.195469 0.0038,0.103893 1.74878,-0.40485 1.742043,-0.302578 -0.0067,0.102271 -1.601243,-0.6554 -1.619145,-0.553513 -0.0179,0.101887 1.735863,-0.03673 1.704292,0.06264 -0.03157,0.09937 -1.445563,-1.015 -1.48587,-0.919955 -0.04031,0.09505 1.718687,0.32891 1.665124,0.416179 -0.05356,0.08727 -1.129156,-1.236971 -1.193333,-1.1559 -0.06418,0.08107 1.597104,0.628019 1.529176,0.704875 -0.06793,0.07686 -0.855687,-1.42759 -0.935168,-1.361946 -0.07948,0.06564 1.256985,1.069606 1.17061,1.124666 -0.08637,0.05506 -0.3409,-1.57935 -0.432783,-1.530114 -0.09188,0.04924 1.017646,1.199601 0.922423,1.237742 -0.09522,0.03814 -0.0034,-1.669434 -0.103549,-1.642737 -0.100118,0.0267 0.705432,1.507837 0.602445,1.52065 -0.102987,0.01281 0.405676,-1.563145 0.301956,-1.561945 -0.103719,0.0012 0.274509,1.70638 0.171338,1.695499 -0.103171,-0.01088 0.692402,-1.521367 0.592123,-1.545077 -0.100279,-0.02371 -0.08165,1.590909 -0.180018,1.557788 -0.09837,-0.03312 1.091384,-1.330443 0.999426,-1.376908 -0.09196,-0.04647 -0.422931,1.719326 -0.50974,1.663858 -0.08681,-0.05547 1.408628,-1.138057 1.327525,-1.203058 -0.0811,-0.065 -0.85551,1.493001 -0.925324,1.415968 -0.06981,-0.07703 1.495591,-0.702294 1.431847,-0.783259 -0.06375,-0.08096 -1.124822,1.373384 -1.175165,1.282917 -0.05034,-0.09047 1.707328,-0.424188 1.664721,-0.518988 -0.04261,-0.0948 -1.446765,0.971347 -1.476476,0.871645 -0.02971,-0.0997 1.724684,0.135243 1.704317,0.03423 -0.02037,-0.101018 -1.538406,0.637042 -1.54771,0.534786 -0.0093,-0.102255 1.598155,0.442654 1.601596,0.340412 0.0034,-0.102243 -1.73358,0.149515 -1.718666,0.04833 0.01492,-0.101186 1.54712,0.945598 1.57757,0.847979 0.03045,-0.09762 -1.6478,-0.214918 -1.605262,-0.30998 0.04254,-0.09506 1.223898,1.18849 1.275639,1.099846 z" />
      <path
         d="m -22.40434,57.767476 c 0.05174,-0.08864 -1.656791,-0.586486 -1.595352,-0.668363 0.06144,-0.08188 0.949309,1.379093 1.021295,1.306544 0.07199,-0.07255 -1.410388,-0.91945 -1.334004,-0.987449 0.07638,-0.068 0.656662,1.56496 0.743418,1.509917 0.08676,-0.05504 -1.261349,-1.192846 -1.169879,-1.239564 0.09147,-0.04672 0.186276,1.731103 0.283267,1.697315 0.09699,-0.03379 -0.8789,-1.437148 -0.778965,-1.461123 0.09993,-0.02398 -0.119743,1.629539 -0.01708,1.617918 0.102661,-0.01162 -0.592317,-1.678645 -0.489956,-1.681607 0.102361,-0.003 -0.424184,1.733004 -0.321964,1.742442 0.102221,0.0094 -0.222775,-1.7028 -0.12251,-1.678798 0.100264,0.024 -0.858042,1.381417 -0.760632,1.41811 0.09741,0.03669 0.260744,-1.624002 0.351393,-1.575913 0.09065,0.04809 -1.238627,1.134105 -1.151621,1.191205 0.08701,0.0571 0.719683,-1.529911 0.79624,-1.461501 0.07656,0.06841 -1.553765,0.808208 -1.482696,0.883643 0.07107,0.07543 1.034463,-1.307155 1.09833,-1.226908 0.06387,0.08025 -1.636262,0.443415 -1.586272,0.533496 0.04999,0.09008 1.223161,-1.090106 1.266236,-0.996003 0.04308,0.0941 -1.563134,0.125441 -1.533961,0.225142 0.02917,0.0997 1.485353,-0.749108 1.505668,-0.647083 0.02032,0.102025 -1.800701,-0.299363 -1.796915,-0.195469 0.0038,0.103893 1.74878,-0.40485 1.742043,-0.302578 -0.0067,0.102271 -1.601243,-0.6554 -1.619145,-0.553513 -0.0179,0.101887 1.735863,-0.03673 1.704292,0.06264 -0.03157,0.09937 -1.445563,-1.015 -1.48587,-0.919955 -0.04031,0.09505 1.718687,0.32891 1.665124,0.416179 -0.05356,0.08727 -1.129156,-1.236971 -1.193333,-1.1559 -0.06418,0.08107 1.597104,0.628019 1.529176,0.704875 -0.06793,0.07686 -0.855687,-1.42759 -0.935168,-1.361946 -0.07948,0.06564 1.256985,1.069606 1.17061,1.124666 -0.08637,0.05506 -0.3409,-1.57935 -0.432783,-1.530114 -0.09188,0.04924 1.017646,1.199601 0.922423,1.237742 -0.09522,0.03814 -0.0034,-1.669434 -0.103549,-1.642737 -0.100118,0.0267 0.705432,1.507837 0.602445,1.52065 -0.102987,0.01281 0.405676,-1.563145 0.301956,-1.561945 -0.103719,0.0012 0.274509,1.70638 0.171338,1.695499 -0.103171,-0.01088 0.692402,-1.521367 0.592123,-1.545077 -0.100279,-0.02371 -0.08165,1.590909 -0.180018,1.557788 -0.09837,-0.03312 1.091384,-1.330443 0.999426,-1.376908 -0.09196,-0.04647 -0.422931,1.719326 -0.50974,1.663858 -0.08681,-0.05547 1.408628,-1.138057 1.327525,-1.203058 -0.0811,-0.065 -0.85551,1.493001 -0.925324,1.415968 -0.06981,-0.07703 1.495591,-0.702294 1.431847,-0.783259 -0.06375,-0.08096 -1.124822,1.373384 -1.175165,1.282917 -0.05034,-0.09047 1.707328,-0.424188 1.664721,-0.518988 -0.04261,-0.0948 -1.446765,0.971347 -1.476476,0.871645 -0.02971,-0.0997 1.724684,0.135243 1.704317,0.03423 -0.02037,-0.101018 -1.538406,0.637042 -1.54771,0.534786 -0.0093,-0.102255 1.598155,0.442654 1.601596,0.340412 0.0034,-0.102243 -1.73358,0.149515 -1.718666,0.04833 0.01492,-0.101186 1.54712,0.945598 1.57757,0.847979 0.03045,-0.09762 -1.6478,-0.214918 -1.605262,-0.30998 0.04254,-0.09506 1.223898,1.18849 1.275639,1.099846 z"
         sodipodi:type="star"
         style="fill:#ffffff;stroke:none;stroke-width:0.0603358;paint-order:stroke fill markers;filter:url(#filter11198)"
         id="path10688"
         sodipodi:sides="27"
         sodipodi:cx="-25.671753"
         sodipodi:cy="55.82983"
         sodipodi:r1="3.7406814"
         sodipodi:r2="2.0952566"
         sodipodi:arg1="0.52327832"
         sodipodi:arg2="0.63963361"
         inkscape:flatsided="false"
         inkscape:rounded="-0.0615314"
         inkscape:randomized="0.0211114"
         inkscape:transform-center-x="0.021368278"
         inkscape:transform-center-y="0.18864209"
         transform="matrix(1.4182379,0,0,1.2308549,118.31106,156.44066)" />
      <path
         d="m -22.40434,57.767476 c 0.05174,-0.08864 -1.656791,-0.586486 -1.595352,-0.668363 0.06144,-0.08188 0.949309,1.379093 1.021295,1.306544 0.07199,-0.07255 -1.410388,-0.91945 -1.334004,-0.987449 0.07638,-0.068 0.656662,1.56496 0.743418,1.509917 0.08676,-0.05504 -1.261349,-1.192846 -1.169879,-1.239564 0.09147,-0.04672 0.186276,1.731103 0.283267,1.697315 0.09699,-0.03379 -0.8789,-1.437148 -0.778965,-1.461123 0.09993,-0.02398 -0.119743,1.629539 -0.01708,1.617918 0.102661,-0.01162 -0.592317,-1.678645 -0.489956,-1.681607 0.102361,-0.003 -0.424184,1.733004 -0.321964,1.742442 0.102221,0.0094 -0.222775,-1.7028 -0.12251,-1.678798 0.100264,0.024 -0.858042,1.381417 -0.760632,1.41811 0.09741,0.03669 0.260744,-1.624002 0.351393,-1.575913 0.09065,0.04809 -1.238627,1.134105 -1.151621,1.191205 0.08701,0.0571 0.719683,-1.529911 0.79624,-1.461501 0.07656,0.06841 -1.553765,0.808208 -1.482696,0.883643 0.07107,0.07543 1.034463,-1.307155 1.09833,-1.226908 0.06387,0.08025 -1.636262,0.443415 -1.586272,0.533496 0.04999,0.09008 1.223161,-1.090106 1.266236,-0.996003 0.04308,0.0941 -1.563134,0.125441 -1.533961,0.225142 0.02917,0.0997 1.485353,-0.749108 1.505668,-0.647083 0.02032,0.102025 -1.800701,-0.299363 -1.796915,-0.195469 0.0038,0.103893 1.74878,-0.40485 1.742043,-0.302578 -0.0067,0.102271 -1.601243,-0.6554 -1.619145,-0.553513 -0.0179,0.101887 1.735863,-0.03673 1.704292,0.06264 -0.03157,0.09937 -1.445563,-1.015 -1.48587,-0.919955 -0.04031,0.09505 1.718687,0.32891 1.665124,0.416179 -0.05356,0.08727 -1.129156,-1.236971 -1.193333,-1.1559 -0.06418,0.08107 1.597104,0.628019 1.529176,0.704875 -0.06793,0.07686 -0.855687,-1.42759 -0.935168,-1.361946 -0.07948,0.06564 1.256985,1.069606 1.17061,1.124666 -0.08637,0.05506 -0.3409,-1.57935 -0.432783,-1.530114 -0.09188,0.04924 1.017646,1.199601 0.922423,1.237742 -0.09522,0.03814 -0.0034,-1.669434 -0.103549,-1.642737 -0.100118,0.0267 0.705432,1.507837 0.602445,1.52065 -0.102987,0.01281 0.405676,-1.563145 0.301956,-1.561945 -0.103719,0.0012 0.274509,1.70638 0.171338,1.695499 -0.103171,-0.01088 0.692402,-1.521367 0.592123,-1.545077 -0.100279,-0.02371 -0.08165,1.590909 -0.180018,1.557788 -0.09837,-0.03312 1.091384,-1.330443 0.999426,-1.376908 -0.09196,-0.04647 -0.422931,1.719326 -0.50974,1.663858 -0.08681,-0.05547 1.408628,-1.138057 1.327525,-1.203058 -0.0811,-0.065 -0.85551,1.493001 -0.925324,1.415968 -0.06981,-0.07703 1.495591,-0.702294 1.431847,-0.783259 -0.06375,-0.08096 -1.124822,1.373384 -1.175165,1.282917 -0.05034,-0.09047 1.707328,-0.424188 1.664721,-0.518988 -0.04261,-0.0948 -1.446765,0.971347 -1.476476,0.871645 -0.02971,-0.0997 1.724684,0.135243 1.704317,0.03423 -0.02037,-0.101018 -1.538406,0.637042 -1.54771,0.534786 -0.0093,-0.102255 1.598155,0.442654 1.601596,0.340412 0.0034,-0.102243 -1.73358,0.149515 -1.718666,0.04833 0.01492,-0.101186 1.54712,0.945598 1.57757,0.847979 0.03045,-0.09762 -1.6478,-0.214918 -1.605262,-0.30998 0.04254,-0.09506 1.223898,1.18849 1.275639,1.099846 z"
         sodipodi:type="star"
         style="fill:#ffffff;stroke:none;stroke-width:0.0603358;paint-order:stroke fill markers;filter:url(#filter11198)"
         id="path10692"
         sodipodi:sides="27"
         sodipodi:cx="-25.671753"
         sodipodi:cy="55.82983"
         sodipodi:r1="3.7406814"
         sodipodi:r2="2.0952566"
         sodipodi:arg1="0.52327832"
         sodipodi:arg2="0.63963361"
         inkscape:flatsided="false"
         inkscape:rounded="-0.0615314"
         inkscape:randomized="0.0211114"
         inkscape:transform-center-x="0.021368301"
         inkscape:transform-center-y="0.18864026"
         transform="matrix(1.4182379,0,0,1.2308549,154.39245,143.07719)" />
      <path
         d="m -22.40434,57.767476 c 0.05174,-0.08864 -1.656791,-0.586486 -1.595352,-0.668363 0.06144,-0.08188 0.949309,1.379093 1.021295,1.306544 0.07199,-0.07255 -1.410388,-0.91945 -1.334004,-0.987449 0.07638,-0.068 0.656662,1.56496 0.743418,1.509917 0.08676,-0.05504 -1.261349,-1.192846 -1.169879,-1.239564 0.09147,-0.04672 0.186276,1.731103 0.283267,1.697315 0.09699,-0.03379 -0.8789,-1.437148 -0.778965,-1.461123 0.09993,-0.02398 -0.119743,1.629539 -0.01708,1.617918 0.102661,-0.01162 -0.592317,-1.678645 -0.489956,-1.681607 0.102361,-0.003 -0.424184,1.733004 -0.321964,1.742442 0.102221,0.0094 -0.222775,-1.7028 -0.12251,-1.678798 0.100264,0.024 -0.858042,1.381417 -0.760632,1.41811 0.09741,0.03669 0.260744,-1.624002 0.351393,-1.575913 0.09065,0.04809 -1.238627,1.134105 -1.151621,1.191205 0.08701,0.0571 0.719683,-1.529911 0.79624,-1.461501 0.07656,0.06841 -1.553765,0.808208 -1.482696,0.883643 0.07107,0.07543 1.034463,-1.307155 1.09833,-1.226908 0.06387,0.08025 -1.636262,0.443415 -1.586272,0.533496 0.04999,0.09008 1.223161,-1.090106 1.266236,-0.996003 0.04308,0.0941 -1.563134,0.125441 -1.533961,0.225142 0.02917,0.0997 1.485353,-0.749108 1.505668,-0.647083 0.02032,0.102025 -1.800701,-0.299363 -1.796915,-0.195469 0.0038,0.103893 1.74878,-0.40485 1.742043,-0.302578 -0.0067,0.102271 -1.601243,-0.6554 -1.619145,-0.553513 -0.0179,0.101887 1.735863,-0.03673 1.704292,0.06264 -0.03157,0.09937 -1.445563,-1.015 -1.48587,-0.919955 -0.04031,0.09505 1.718687,0.32891 1.665124,0.416179 -0.05356,0.08727 -1.129156,-1.236971 -1.193333,-1.1559 -0.06418,0.08107 1.597104,0.628019 1.529176,0.704875 -0.06793,0.07686 -0.855687,-1.42759 -0.935168,-1.361946 -0.07948,0.06564 1.256985,1.069606 1.17061,1.124666 -0.08637,0.05506 -0.3409,-1.57935 -0.432783,-1.530114 -0.09188,0.04924 1.017646,1.199601 0.922423,1.237742 -0.09522,0.03814 -0.0034,-1.669434 -0.103549,-1.642737 -0.100118,0.0267 0.705432,1.507837 0.602445,1.52065 -0.102987,0.01281 0.405676,-1.563145 0.301956,-1.561945 -0.103719,0.0012 0.274509,1.70638 0.171338,1.695499 -0.103171,-0.01088 0.692402,-1.521367 0.592123,-1.545077 -0.100279,-0.02371 -0.08165,1.590909 -0.180018,1.557788 -0.09837,-0.03312 1.091384,-1.330443 0.999426,-1.376908 -0.09196,-0.04647 -0.422931,1.719326 -0.50974,1.663858 -0.08681,-0.05547 1.408628,-1.138057 1.327525,-1.203058 -0.0811,-0.065 -0.85551,1.493001 -0.925324,1.415968 -0.06981,-0.07703 1.495591,-0.702294 1.431847,-0.783259 -0.06375,-0.08096 -1.124822,1.373384 -1.175165,1.282917 -0.05034,-0.09047 1.707328,-0.424188 1.664721,-0.518988 -0.04261,-0.0948 -1.446765,0.971347 -1.476476,0.871645 -0.02971,-0.0997 1.724684,0.135243 1.704317,0.03423 -0.02037,-0.101018 -1.538406,0.637042 -1.54771,0.534786 -0.0093,-0.102255 1.598155,0.442654 1.601596,0.340412 0.0034,-0.102243 -1.73358,0.149515 -1.718666,0.04833 0.01492,-0.101186 1.54712,0.945598 1.57757,0.847979 0.03045,-0.09762 -1.6478,-0.214918 -1.605262,-0.30998 0.04254,-0.09506 1.223898,1.18849 1.275639,1.099846 z"
         sodipodi:type="star"
         style="fill:#000000;stroke:none;stroke-width:0.0603358;paint-order:stroke fill markers;filter:url(#filter11198)"
         id="path10696"
         sodipodi:sides="27"
         sodipodi:cx="-25.671753"
         sodipodi:cy="55.82983"
         sodipodi:r1="3.7406814"
         sodipodi:r2="2.0952566"
         sodipodi:arg1="0.52327832"
         sodipodi:arg2="0.63963361"
         inkscape:flatsided="false"
         inkscape:rounded="-0.0615314"
         inkscape:randomized="0.0211114"
         inkscape:transform-center-x="0.041915907"
         inkscape:transform-center-y="0.3700322"
         transform="matrix(2.7820392,0,0,2.4144656,100.4509,22.173379)" />
      <path
         transform="matrix(1.4182379,0,0,1.2308549,178.17944,96.305022)"
         inkscape:transform-center-y="0.18864026"
         inkscape:transform-center-x="0.021368301"
         inkscape:randomized="0.0211114"
         inkscape:rounded="-0.0615314"
         inkscape:flatsided="false"
         sodipodi:arg2="0.63963361"
         sodipodi:arg1="0.52327832"
         sodipodi:r2="2.0952566"
         sodipodi:r1="3.7406814"
         sodipodi:cy="55.82983"
         sodipodi:cx="-25.671753"
         sodipodi:sides="27"
         id="path11432"
         style="fill:#ffffff;stroke:none;stroke-width:0.0603358;paint-order:stroke fill markers;filter:url(#filter11198)"
         sodipodi:type="star"
         d="m -22.40434,57.767476 c 0.05174,-0.08864 -1.656791,-0.586486 -1.595352,-0.668363 0.06144,-0.08188 0.949309,1.379093 1.021295,1.306544 0.07199,-0.07255 -1.410388,-0.91945 -1.334004,-0.987449 0.07638,-0.068 0.656662,1.56496 0.743418,1.509917 0.08676,-0.05504 -1.261349,-1.192846 -1.169879,-1.239564 0.09147,-0.04672 0.186276,1.731103 0.283267,1.697315 0.09699,-0.03379 -0.8789,-1.437148 -0.778965,-1.461123 0.09993,-0.02398 -0.119743,1.629539 -0.01708,1.617918 0.102661,-0.01162 -0.592317,-1.678645 -0.489956,-1.681607 0.102361,-0.003 -0.424184,1.733004 -0.321964,1.742442 0.102221,0.0094 -0.222775,-1.7028 -0.12251,-1.678798 0.100264,0.024 -0.858042,1.381417 -0.760632,1.41811 0.09741,0.03669 0.260744,-1.624002 0.351393,-1.575913 0.09065,0.04809 -1.238627,1.134105 -1.151621,1.191205 0.08701,0.0571 0.719683,-1.529911 0.79624,-1.461501 0.07656,0.06841 -1.553765,0.808208 -1.482696,0.883643 0.07107,0.07543 1.034463,-1.307155 1.09833,-1.226908 0.06387,0.08025 -1.636262,0.443415 -1.586272,0.533496 0.04999,0.09008 1.223161,-1.090106 1.266236,-0.996003 0.04308,0.0941 -1.563134,0.125441 -1.533961,0.225142 0.02917,0.0997 1.485353,-0.749108 1.505668,-0.647083 0.02032,0.102025 -1.800701,-0.299363 -1.796915,-0.195469 0.0038,0.103893 1.74878,-0.40485 1.742043,-0.302578 -0.0067,0.102271 -1.601243,-0.6554 -1.619145,-0.553513 -0.0179,0.101887 1.735863,-0.03673 1.704292,0.06264 -0.03157,0.09937 -1.445563,-1.015 -1.48587,-0.919955 -0.04031,0.09505 1.718687,0.32891 1.665124,0.416179 -0.05356,0.08727 -1.129156,-1.236971 -1.193333,-1.1559 -0.06418,0.08107 1.597104,0.628019 1.529176,0.704875 -0.06793,0.07686 -0.855687,-1.42759 -0.935168,-1.361946 -0.07948,0.06564 1.256985,1.069606 1.17061,1.124666 -0.08637,0.05506 -0.3409,-1.57935 -0.432783,-1.530114 -0.09188,0.04924 1.017646,1.199601 0.922423,1.237742 -0.09522,0.03814 -0.0034,-1.669434 -0.103549,-1.642737 -0.100118,0.0267 0.705432,1.507837 0.602445,1.52065 -0.102987,0.01281 0.405676,-1.563145 0.301956,-1.561945 -0.103719,0.0012 0.274509,1.70638 0.171338,1.695499 -0.103171,-0.01088 0.692402,-1.521367 0.592123,-1.545077 -0.100279,-0.02371 -0.08165,1.590909 -0.180018,1.557788 -0.09837,-0.03312 1.091384,-1.330443 0.999426,-1.376908 -0.09196,-0.04647 -0.422931,1.719326 -0.50974,1.663858 -0.08681,-0.05547 1.408628,-1.138057 1.327525,-1.203058 -0.0811,-0.065 -0.85551,1.493001 -0.925324,1.415968 -0.06981,-0.07703 1.495591,-0.702294 1.431847,-0.783259 -0.06375,-0.08096 -1.124822,1.373384 -1.175165,1.282917 -0.05034,-0.09047 1.707328,-0.424188 1.664721,-0.518988 -0.04261,-0.0948 -1.446765,0.971347 -1.476476,0.871645 -0.02971,-0.0997 1.724684,0.135243 1.704317,0.03423 -0.02037,-0.101018 -1.538406,0.637042 -1.54771,0.534786 -0.0093,-0.102255 1.598155,0.442654 1.601596,0.340412 0.0034,-0.102243 -1.73358,0.149515 -1.718666,0.04833 0.01492,-0.101186 1.54712,0.945598 1.57757,0.847979 0.03045,-0.09762 -1.6478,-0.214918 -1.605262,-0.30998 0.04254,-0.09506 1.223898,1.18849 1.275639,1.099846 z" />
      <path
         transform="matrix(1.4182379,0,0,1.2308549,65.391712,88.286937)"
         inkscape:transform-center-y="0.18864026"
         inkscape:transform-center-x="0.021368301"
         inkscape:randomized="0.0211114"
         inkscape:rounded="-0.0615314"
         inkscape:flatsided="false"
         sodipodi:arg2="0.63963361"
         sodipodi:arg1="0.52327832"
         sodipodi:r2="2.0952566"
         sodipodi:r1="3.7406814"
         sodipodi:cy="55.82983"
         sodipodi:cx="-25.671753"
         sodipodi:sides="27"
         id="path11434"
         style="fill:#ffffff;stroke:none;stroke-width:0.0603358;paint-order:stroke fill markers;filter:url(#filter11198)"
         sodipodi:type="star"
         d="m -22.40434,57.767476 c 0.05174,-0.08864 -1.656791,-0.586486 -1.595352,-0.668363 0.06144,-0.08188 0.949309,1.379093 1.021295,1.306544 0.07199,-0.07255 -1.410388,-0.91945 -1.334004,-0.987449 0.07638,-0.068 0.656662,1.56496 0.743418,1.509917 0.08676,-0.05504 -1.261349,-1.192846 -1.169879,-1.239564 0.09147,-0.04672 0.186276,1.731103 0.283267,1.697315 0.09699,-0.03379 -0.8789,-1.437148 -0.778965,-1.461123 0.09993,-0.02398 -0.119743,1.629539 -0.01708,1.617918 0.102661,-0.01162 -0.592317,-1.678645 -0.489956,-1.681607 0.102361,-0.003 -0.424184,1.733004 -0.321964,1.742442 0.102221,0.0094 -0.222775,-1.7028 -0.12251,-1.678798 0.100264,0.024 -0.858042,1.381417 -0.760632,1.41811 0.09741,0.03669 0.260744,-1.624002 0.351393,-1.575913 0.09065,0.04809 -1.238627,1.134105 -1.151621,1.191205 0.08701,0.0571 0.719683,-1.529911 0.79624,-1.461501 0.07656,0.06841 -1.553765,0.808208 -1.482696,0.883643 0.07107,0.07543 1.034463,-1.307155 1.09833,-1.226908 0.06387,0.08025 -1.636262,0.443415 -1.586272,0.533496 0.04999,0.09008 1.223161,-1.090106 1.266236,-0.996003 0.04308,0.0941 -1.563134,0.125441 -1.533961,0.225142 0.02917,0.0997 1.485353,-0.749108 1.505668,-0.647083 0.02032,0.102025 -1.800701,-0.299363 -1.796915,-0.195469 0.0038,0.103893 1.74878,-0.40485 1.742043,-0.302578 -0.0067,0.102271 -1.601243,-0.6554 -1.619145,-0.553513 -0.0179,0.101887 1.735863,-0.03673 1.704292,0.06264 -0.03157,0.09937 -1.445563,-1.015 -1.48587,-0.919955 -0.04031,0.09505 1.718687,0.32891 1.665124,0.416179 -0.05356,0.08727 -1.129156,-1.236971 -1.193333,-1.1559 -0.06418,0.08107 1.597104,0.628019 1.529176,0.704875 -0.06793,0.07686 -0.855687,-1.42759 -0.935168,-1.361946 -0.07948,0.06564 1.256985,1.069606 1.17061,1.124666 -0.08637,0.05506 -0.3409,-1.57935 -0.432783,-1.530114 -0.09188,0.04924 1.017646,1.199601 0.922423,1.237742 -0.09522,0.03814 -0.0034,-1.669434 -0.103549,-1.642737 -0.100118,0.0267 0.705432,1.507837 0.602445,1.52065 -0.102987,0.01281 0.405676,-1.563145 0.301956,-1.561945 -0.103719,0.0012 0.274509,1.70638 0.171338,1.695499 -0.103171,-0.01088 0.692402,-1.521367 0.592123,-1.545077 -0.100279,-0.02371 -0.08165,1.590909 -0.180018,1.557788 -0.09837,-0.03312 1.091384,-1.330443 0.999426,-1.376908 -0.09196,-0.04647 -0.422931,1.719326 -0.50974,1.663858 -0.08681,-0.05547 1.408628,-1.138057 1.327525,-1.203058 -0.0811,-0.065 -0.85551,1.493001 -0.925324,1.415968 -0.06981,-0.07703 1.495591,-0.702294 1.431847,-0.783259 -0.06375,-0.08096 -1.124822,1.373384 -1.175165,1.282917 -0.05034,-0.09047 1.707328,-0.424188 1.664721,-0.518988 -0.04261,-0.0948 -1.446765,0.971347 -1.476476,0.871645 -0.02971,-0.0997 1.724684,0.135243 1.704317,0.03423 -0.02037,-0.101018 -1.538406,0.637042 -1.54771,0.534786 -0.0093,-0.102255 1.598155,0.442654 1.601596,0.340412 0.0034,-0.102243 -1.73358,0.149515 -1.718666,0.04833 0.01492,-0.101186 1.54712,0.945598 1.57757,0.847979 0.03045,-0.09762 -1.6478,-0.214918 -1.605262,-0.30998 0.04254,-0.09506 1.223898,1.18849 1.275639,1.099846 z" />
      <path
         transform="matrix(1.4182379,0,0,1.2308549,94.256812,209.6273)"
         inkscape:transform-center-y="0.18864026"
         inkscape:transform-center-x="0.021368301"
         inkscape:randomized="0.0211114"
         inkscape:rounded="-0.0615314"
         inkscape:flatsided="false"
         sodipodi:arg2="0.63963361"
         sodipodi:arg1="0.52327832"
         sodipodi:r2="2.0952566"
         sodipodi:r1="3.7406814"
         sodipodi:cy="55.82983"
         sodipodi:cx="-25.671753"
         sodipodi:sides="27"
         id="path11436"
         style="fill:#ffffff;stroke:none;stroke-width:0.0603358;paint-order:stroke fill markers;filter:url(#filter11198)"
         sodipodi:type="star"
         d="m -22.40434,57.767476 c 0.05174,-0.08864 -1.656791,-0.586486 -1.595352,-0.668363 0.06144,-0.08188 0.949309,1.379093 1.021295,1.306544 0.07199,-0.07255 -1.410388,-0.91945 -1.334004,-0.987449 0.07638,-0.068 0.656662,1.56496 0.743418,1.509917 0.08676,-0.05504 -1.261349,-1.192846 -1.169879,-1.239564 0.09147,-0.04672 0.186276,1.731103 0.283267,1.697315 0.09699,-0.03379 -0.8789,-1.437148 -0.778965,-1.461123 0.09993,-0.02398 -0.119743,1.629539 -0.01708,1.617918 0.102661,-0.01162 -0.592317,-1.678645 -0.489956,-1.681607 0.102361,-0.003 -0.424184,1.733004 -0.321964,1.742442 0.102221,0.0094 -0.222775,-1.7028 -0.12251,-1.678798 0.100264,0.024 -0.858042,1.381417 -0.760632,1.41811 0.09741,0.03669 0.260744,-1.624002 0.351393,-1.575913 0.09065,0.04809 -1.238627,1.134105 -1.151621,1.191205 0.08701,0.0571 0.719683,-1.529911 0.79624,-1.461501 0.07656,0.06841 -1.553765,0.808208 -1.482696,0.883643 0.07107,0.07543 1.034463,-1.307155 1.09833,-1.226908 0.06387,0.08025 -1.636262,0.443415 -1.586272,0.533496 0.04999,0.09008 1.223161,-1.090106 1.266236,-0.996003 0.04308,0.0941 -1.563134,0.125441 -1.533961,0.225142 0.02917,0.0997 1.485353,-0.749108 1.505668,-0.647083 0.02032,0.102025 -1.800701,-0.299363 -1.796915,-0.195469 0.0038,0.103893 1.74878,-0.40485 1.742043,-0.302578 -0.0067,0.102271 -1.601243,-0.6554 -1.619145,-0.553513 -0.0179,0.101887 1.735863,-0.03673 1.704292,0.06264 -0.03157,0.09937 -1.445563,-1.015 -1.48587,-0.919955 -0.04031,0.09505 1.718687,0.32891 1.665124,0.416179 -0.05356,0.08727 -1.129156,-1.236971 -1.193333,-1.1559 -0.06418,0.08107 1.597104,0.628019 1.529176,0.704875 -0.06793,0.07686 -0.855687,-1.42759 -0.935168,-1.361946 -0.07948,0.06564 1.256985,1.069606 1.17061,1.124666 -0.08637,0.05506 -0.3409,-1.57935 -0.432783,-1.530114 -0.09188,0.04924 1.017646,1.199601 0.922423,1.237742 -0.09522,0.03814 -0.0034,-1.669434 -0.103549,-1.642737 -0.100118,0.0267 0.705432,1.507837 0.602445,1.52065 -0.102987,0.01281 0.405676,-1.563145 0.301956,-1.561945 -0.103719,0.0012 0.274509,1.70638 0.171338,1.695499 -0.103171,-0.01088 0.692402,-1.521367 0.592123,-1.545077 -0.100279,-0.02371 -0.08165,1.590909 -0.180018,1.557788 -0.09837,-0.03312 1.091384,-1.330443 0.999426,-1.376908 -0.09196,-0.04647 -0.422931,1.719326 -0.50974,1.663858 -0.08681,-0.05547 1.408628,-1.138057 1.327525,-1.203058 -0.0811,-0.065 -0.85551,1.493001 -0.925324,1.415968 -0.06981,-0.07703 1.495591,-0.702294 1.431847,-0.783259 -0.06375,-0.08096 -1.124822,1.373384 -1.175165,1.282917 -0.05034,-0.09047 1.707328,-0.424188 1.664721,-0.518988 -0.04261,-0.0948 -1.446765,0.971347 -1.476476,0.871645 -0.02971,-0.0997 1.724684,0.135243 1.704317,0.03423 -0.02037,-0.101018 -1.538406,0.637042 -1.54771,0.534786 -0.0093,-0.102255 1.598155,0.442654 1.601596,0.340412 0.0034,-0.102243 -1.73358,0.149515 -1.718666,0.04833 0.01492,-0.101186 1.54712,0.945598 1.57757,0.847979 0.03045,-0.09762 -1.6478,-0.214918 -1.605262,-0.30998 0.04254,-0.09506 1.223898,1.18849 1.275639,1.099846 z" />
      <path
         transform="matrix(1.4182379,0,0,1.2308549,216.13171,198.93652)"
         inkscape:transform-center-y="0.18864026"
         inkscape:transform-center-x="0.021368301"
         inkscape:randomized="0.0211114"
         inkscape:rounded="-0.0615314"
         inkscape:flatsided="false"
         sodipodi:arg2="0.63963361"
         sodipodi:arg1="0.52327832"
         sodipodi:r2="2.0952566"
         sodipodi:r1="3.7406814"
         sodipodi:cy="55.82983"
         sodipodi:cx="-25.671753"
         sodipodi:sides="27"
         id="path11440"
         style="fill:#ffffff;stroke:none;stroke-width:0.0603358;paint-order:stroke fill markers;filter:url(#filter11198)"
         sodipodi:type="star"
         d="m -22.40434,57.767476 c 0.05174,-0.08864 -1.656791,-0.586486 -1.595352,-0.668363 0.06144,-0.08188 0.949309,1.379093 1.021295,1.306544 0.07199,-0.07255 -1.410388,-0.91945 -1.334004,-0.987449 0.07638,-0.068 0.656662,1.56496 0.743418,1.509917 0.08676,-0.05504 -1.261349,-1.192846 -1.169879,-1.239564 0.09147,-0.04672 0.186276,1.731103 0.283267,1.697315 0.09699,-0.03379 -0.8789,-1.437148 -0.778965,-1.461123 0.09993,-0.02398 -0.119743,1.629539 -0.01708,1.617918 0.102661,-0.01162 -0.592317,-1.678645 -0.489956,-1.681607 0.102361,-0.003 -0.424184,1.733004 -0.321964,1.742442 0.102221,0.0094 -0.222775,-1.7028 -0.12251,-1.678798 0.100264,0.024 -0.858042,1.381417 -0.760632,1.41811 0.09741,0.03669 0.260744,-1.624002 0.351393,-1.575913 0.09065,0.04809 -1.238627,1.134105 -1.151621,1.191205 0.08701,0.0571 0.719683,-1.529911 0.79624,-1.461501 0.07656,0.06841 -1.553765,0.808208 -1.482696,0.883643 0.07107,0.07543 1.034463,-1.307155 1.09833,-1.226908 0.06387,0.08025 -1.636262,0.443415 -1.586272,0.533496 0.04999,0.09008 1.223161,-1.090106 1.266236,-0.996003 0.04308,0.0941 -1.563134,0.125441 -1.533961,0.225142 0.02917,0.0997 1.485353,-0.749108 1.505668,-0.647083 0.02032,0.102025 -1.800701,-0.299363 -1.796915,-0.195469 0.0038,0.103893 1.74878,-0.40485 1.742043,-0.302578 -0.0067,0.102271 -1.601243,-0.6554 -1.619145,-0.553513 -0.0179,0.101887 1.735863,-0.03673 1.704292,0.06264 -0.03157,0.09937 -1.445563,-1.015 -1.48587,-0.919955 -0.04031,0.09505 1.718687,0.32891 1.665124,0.416179 -0.05356,0.08727 -1.129156,-1.236971 -1.193333,-1.1559 -0.06418,0.08107 1.597104,0.628019 1.529176,0.704875 -0.06793,0.07686 -0.855687,-1.42759 -0.935168,-1.361946 -0.07948,0.06564 1.256985,1.069606 1.17061,1.124666 -0.08637,0.05506 -0.3409,-1.57935 -0.432783,-1.530114 -0.09188,0.04924 1.017646,1.199601 0.922423,1.237742 -0.09522,0.03814 -0.0034,-1.669434 -0.103549,-1.642737 -0.100118,0.0267 0.705432,1.507837 0.602445,1.52065 -0.102987,0.01281 0.405676,-1.563145 0.301956,-1.561945 -0.103719,0.0012 0.274509,1.70638 0.171338,1.695499 -0.103171,-0.01088 0.692402,-1.521367 0.592123,-1.545077 -0.100279,-0.02371 -0.08165,1.590909 -0.180018,1.557788 -0.09837,-0.03312 1.091384,-1.330443 0.999426,-1.376908 -0.09196,-0.04647 -0.422931,1.719326 -0.50974,1.663858 -0.08681,-0.05547 1.408628,-1.138057 1.327525,-1.203058 -0.0811,-0.065 -0.85551,1.493001 -0.925324,1.415968 -0.06981,-0.07703 1.495591,-0.702294 1.431847,-0.783259 -0.06375,-0.08096 -1.124822,1.373384 -1.175165,1.282917 -0.05034,-0.09047 1.707328,-0.424188 1.664721,-0.518988 -0.04261,-0.0948 -1.446765,0.971347 -1.476476,0.871645 -0.02971,-0.0997 1.724684,0.135243 1.704317,0.03423 -0.02037,-0.101018 -1.538406,0.637042 -1.54771,0.534786 -0.0093,-0.102255 1.598155,0.442654 1.601596,0.340412 0.0034,-0.102243 -1.73358,0.149515 -1.718666,0.04833 0.01492,-0.101186 1.54712,0.945598 1.57757,0.847979 0.03045,-0.09762 -1.6478,-0.214918 -1.605262,-0.30998 0.04254,-0.09506 1.223898,1.18849 1.275639,1.099846 z" />
      <path
         d="m -22.40434,57.767476 c 0.05174,-0.08864 -1.656791,-0.586486 -1.595352,-0.668363 0.06144,-0.08188 0.949309,1.379093 1.021295,1.306544 0.07199,-0.07255 -1.410388,-0.91945 -1.334004,-0.987449 0.07638,-0.068 0.656662,1.56496 0.743418,1.509917 0.08676,-0.05504 -1.261349,-1.192846 -1.169879,-1.239564 0.09147,-0.04672 0.186276,1.731103 0.283267,1.697315 0.09699,-0.03379 -0.8789,-1.437148 -0.778965,-1.461123 0.09993,-0.02398 -0.119743,1.629539 -0.01708,1.617918 0.102661,-0.01162 -0.592317,-1.678645 -0.489956,-1.681607 0.102361,-0.003 -0.424184,1.733004 -0.321964,1.742442 0.102221,0.0094 -0.222775,-1.7028 -0.12251,-1.678798 0.100264,0.024 -0.858042,1.381417 -0.760632,1.41811 0.09741,0.03669 0.260744,-1.624002 0.351393,-1.575913 0.09065,0.04809 -1.238627,1.134105 -1.151621,1.191205 0.08701,0.0571 0.719683,-1.529911 0.79624,-1.461501 0.07656,0.06841 -1.553765,0.808208 -1.482696,0.883643 0.07107,0.07543 1.034463,-1.307155 1.09833,-1.226908 0.06387,0.08025 -1.636262,0.443415 -1.586272,0.533496 0.04999,0.09008 1.223161,-1.090106 1.266236,-0.996003 0.04308,0.0941 -1.563134,0.125441 -1.533961,0.225142 0.02917,0.0997 1.485353,-0.749108 1.505668,-0.647083 0.02032,0.102025 -1.800701,-0.299363 -1.796915,-0.195469 0.0038,0.103893 1.74878,-0.40485 1.742043,-0.302578 -0.0067,0.102271 -1.601243,-0.6554 -1.619145,-0.553513 -0.0179,0.101887 1.735863,-0.03673 1.704292,0.06264 -0.03157,0.09937 -1.445563,-1.015 -1.48587,-0.919955 -0.04031,0.09505 1.718687,0.32891 1.665124,0.416179 -0.05356,0.08727 -1.129156,-1.236971 -1.193333,-1.1559 -0.06418,0.08107 1.597104,0.628019 1.529176,0.704875 -0.06793,0.07686 -0.855687,-1.42759 -0.935168,-1.361946 -0.07948,0.06564 1.256985,1.069606 1.17061,1.124666 -0.08637,0.05506 -0.3409,-1.57935 -0.432783,-1.530114 -0.09188,0.04924 1.017646,1.199601 0.922423,1.237742 -0.09522,0.03814 -0.0034,-1.669434 -0.103549,-1.642737 -0.100118,0.0267 0.705432,1.507837 0.602445,1.52065 -0.102987,0.01281 0.405676,-1.563145 0.301956,-1.561945 -0.103719,0.0012 0.274509,1.70638 0.171338,1.695499 -0.103171,-0.01088 0.692402,-1.521367 0.592123,-1.545077 -0.100279,-0.02371 -0.08165,1.590909 -0.180018,1.557788 -0.09837,-0.03312 1.091384,-1.330443 0.999426,-1.376908 -0.09196,-0.04647 -0.422931,1.719326 -0.50974,1.663858 -0.08681,-0.05547 1.408628,-1.138057 1.327525,-1.203058 -0.0811,-0.065 -0.85551,1.493001 -0.925324,1.415968 -0.06981,-0.07703 1.495591,-0.702294 1.431847,-0.783259 -0.06375,-0.08096 -1.124822,1.373384 -1.175165,1.282917 -0.05034,-0.09047 1.707328,-0.424188 1.664721,-0.518988 -0.04261,-0.0948 -1.446765,0.971347 -1.476476,0.871645 -0.02971,-0.0997 1.724684,0.135243 1.704317,0.03423 -0.02037,-0.101018 -1.538406,0.637042 -1.54771,0.534786 -0.0093,-0.102255 1.598155,0.442654 1.601596,0.340412 0.0034,-0.102243 -1.73358,0.149515 -1.718666,0.04833 0.01492,-0.101186 1.54712,0.945598 1.57757,0.847979 0.03045,-0.09762 -1.6478,-0.214918 -1.605262,-0.30998 0.04254,-0.09506 1.223898,1.18849 1.275639,1.099846 z"
         transform="matrix(1.4182379,0,0,1.2308549,137.01993,149.22439)"
         inkscape:transform-center-y="0.18863969"
         inkscape:transform-center-x="0.021367857"
         inkscape:randomized="0.0211114"
         inkscape:rounded="-0.0615314"
         inkscape:flatsided="false"
         sodipodi:arg2="0.63963361"
         sodipodi:arg1="0.52327832"
         sodipodi:r2="2.0952566"
         sodipodi:r1="3.7406814"
         sodipodi:cy="55.82983"
         sodipodi:cx="-25.671753"
         sodipodi:sides="27"
         id="path10690"
         style="fill:#ffffff;stroke:none;stroke-width:0.0603358;paint-order:stroke fill markers;filter:url(#filter11198)"
         sodipodi:type="star" />
      <path
         style="fill:none;stroke:#000000;stroke-width:0.264583px;stroke-linecap:butt;stroke-linejoin:miter;stroke-opacity:1"
         d="M 179.87239,267.53679 118.4004,212.74654 141.92012,164.9053 29.132379,156.88721 81.784475,225.04094 57.997487,278.49485"
         id="path11446" />
    </g>
  </g>
</svg>
