<?xml version="1.0" encoding="UTF-8" standalone="no"?>
<svg
   xmlns:osb="http://www.openswatchbook.org/uri/2009/osb"
   xmlns:dc="http://purl.org/dc/elements/1.1/"
   xmlns:cc="http://creativecommons.org/ns#"
   xmlns:rdf="http://www.w3.org/1999/02/22-rdf-syntax-ns#"
   xmlns:svg="http://www.w3.org/2000/svg"
   xmlns="http://www.w3.org/2000/svg"
   xmlns:sodipodi="http://sodipodi.sourceforge.net/DTD/sodipodi-0.dtd"
   xmlns:inkscape="http://www.inkscape.org/namespaces/inkscape"
   width="210mm"
   height="297mm"
   viewBox="0 0 210 297"
   version="1.1"
   id="svg1122"
   inkscape:version="1.0 (4035a4fb49, 2020-05-01)"
   sodipodi:docname="Badu 9 officals.svg">
  <defs
     id="defs1116">
    <linearGradient
       id="linearGradient4668"
       osb:paint="solid">
      <stop
         style="stop-color:#000000;stop-opacity:1;"
         offset="0"
         id="stop4666" />
    </linearGradient>
    <rect
       x="829.60461"
       y="-179.60512"
       width="838.15724"
       height="594.40743"
       id="rect1741" />
    <rect
       x="-213.93452"
       y="73.327381"
       width="616.10119"
       height="109.6131"
       id="rect1687" />
  </defs>
  <sodipodi:namedview
     id="base"
     pagecolor="#ffffff"
     bordercolor="#666666"
     borderopacity="1.0"
     inkscape:pageopacity="0.0"
     inkscape:pageshadow="2"
     inkscape:zoom="0.028284271"
     inkscape:cx="-54372.929"
     inkscape:cy="-12298.95"
     inkscape:document-units="px"
     inkscape:current-layer="layer1"
     inkscape:document-rotation="0"
     showgrid="false"
     inkscape:showpageshadow="false"
     showborder="false"
     inkscape:snap-nodes="false"
     inkscape:snap-global="false"
     showguides="false"
     inkscape:window-width="1920"
     inkscape:window-height="1046"
     inkscape:window-x="-11"
     inkscape:window-y="-11"
     inkscape:window-maximized="1" />
  <metadata
     id="metadata1119">
    <rdf:RDF>
      <cc:Work
         rdf:about="">
        <dc:format>image/svg+xml</dc:format>
        <dc:type
           rdf:resource="http://purl.org/dc/dcmitype/StillImage" />
        <dc:title></dc:title>
      </cc:Work>
    </rdf:RDF>
  </metadata>
  <g
     inkscape:label="Layer 1"
     inkscape:groupmode="layer"
     id="layer1">
    <g
       id="g5185"
       transform="matrix(1.3085615,0,0,1.9574643,-13464.804,-1214.292)">
      <path
         id="path4732"
         style="font-style:normal;font-variant:normal;font-weight:normal;font-stretch:normal;font-size:0.00527048px;line-height:1.25;font-family:'Baskerville Old Face';-inkscape-font-specification:'Baskerville Old Face, Normal';font-variant-ligatures:normal;font-variant-caps:normal;font-variant-numeric:normal;font-variant-east-asian:normal;letter-spacing:0px;word-spacing:0px;white-space:pre;fill:#000000;fill-opacity:1;stroke:none;stroke-width:12.0256;stroke-miterlimit:4;stroke-dasharray:none;stroke-opacity:1"
         d="m -7790.9553,1841.4383 v -11.2957 q 35.5592,-1.5317 56.8946,-7.8497 21.3355,-6.8923 37.9298,-20.8684 21.3355,-15.6991 26.0768,-39.8224 7.1117,-24.1231 7.1117,-74.8583 V 1322.982 q 0,-50.7352 -7.1117,-74.8584 -4.7413,-24.1231 -26.0768,-39.8223 -16.5943,-14.359 -37.9298,-20.8684 -21.3354,-6.3179 -56.8946,-7.8496 v -11.2958 h 474.1221 q 61.6359,0 80.6008,0.9573 68.7477,4.4034 116.1599,26.612 37.9298,19.7198 59.2653,51.6925 23.7061,32.1642 23.7061,71.9865 0,64.5199 -49.7828,105.8739 -18.9649,15.3163 -40.3004,25.6547 -23.7061,9.9556 -66.3771,22.2087 59.2653,7.8495 92.4538,17.2308 30.8179,9.3812 56.8947,26.2292 40.3004,25.4633 61.6358,63.9454 21.3355,37.9078 21.3355,82.3251 0,44.8001 -21.3355,82.3251 -23.7061,36.9505 -61.6358,59.542 -37.9298,20.2941 -87.7126,28.1437 -49.7829,7.8495 -139.8661,7.8495 z m 237.061,-650.9422 v 287.1804 h 47.4122 q 35.5592,0 73.489,-4.0205 30.818,-4.0206 52.1534,-9.3812 18.9649,-5.3607 35.5592,-14.742 30.8179,-18.7624 47.4122,-47.8634 16.5943,-29.4838 16.5943,-64.9027 0,-37.5249 -16.5943,-71.0293 -16.5943,-34.0787 -45.0416,-52.6497 -26.0767,-16.2736 -59.2652,-22.2086 -30.818,-5.9351 -94.8245,-5.9351 z m 0,306.3258 v 210.5989 q 0,36.9506 4.7413,59.5421 7.1118,22.5914 21.3355,38.4822 30.8179,32.9299 106.6774,32.9299 99.5657,0 156.4603,-43.2684 56.8947,-43.46 56.8947,-118.3184 0,-42.8856 -18.9649,-79.2617 -16.5942,-36.9506 -47.4122,-56.6703 -54.524,-36.5677 -170.684,-36.5677 z" />
      <path
         id="path4734"
         style="font-style:normal;font-variant:normal;font-weight:normal;font-stretch:normal;font-size:0.00527048px;line-height:1.25;font-family:'Baskerville Old Face';-inkscape-font-specification:'Baskerville Old Face, Normal';font-variant-ligatures:normal;font-variant-caps:normal;font-variant-numeric:normal;font-variant-east-asian:normal;letter-spacing:0px;word-spacing:0px;white-space:pre;fill:#000000;fill-opacity:1;stroke:none;stroke-width:16.7757;stroke-miterlimit:4;stroke-dasharray:none;stroke-opacity:1"
         d="m -6320.4818,1781.2427 11.1496,5.2875 q -25.0866,54.9081 -117.0708,54.9081 -52.9606,0 -86.4094,-18.3026 -22.2992,-11.9985 -44.5984,-41.893 -47.3858,31.5213 -72.4724,41.4862 -47.3858,18.7094 -108.7085,18.7094 -78.0473,0 -125.4331,-27.6574 -47.3858,-27.8608 -47.3858,-74.8378 0,-43.5198 39.0236,-72.8041 22.2993,-16.2691 50.1732,-25.6238 27.8741,-9.9648 80.8346,-19.9297 61.3228,-11.3883 91.9842,-19.3196 30.6614,-7.9311 50.1732,-18.9127 22.2992,-11.9985 30.6614,-28.2676 8.3622,-16.0658 8.3622,-44.9433 0,-61.2124 -30.6614,-89.48 -13.937,-13.0152 -36.2362,-20.9465 -22.2992,-7.9311 -47.3858,-7.9311 -30.6614,0 -52.9606,11.185 -22.2992,10.9816 -33.4488,30.3012 l -19.5118,30.3011 q -13.9369,24.607 -50.1732,24.607 -25.0866,0 -41.811,-11.5917 -16.7244,-11.9985 -16.7244,-29.6911 0,-26.8439 52.9606,-45.1467 27.8741,-9.3547 66.8976,-15.049 41.811,-6.3041 80.8346,-6.3041 44.5984,0 94.7716,8.3378 47.3858,8.338 80.8346,21.5566 44.5984,19.3195 55.748,50.2308 5.5748,15.6589 5.5748,52.8745 v 193.6021 q 0,49.214 5.5748,66.9066 13.9371,37.2156 61.3228,37.2156 22.2992,0 33.4488,-5.6942 13.937,-5.8976 30.6614,-23.1835 z m -236.929,-203.3635 q -39.0236,23.5902 -86.4094,41.4861 -52.9606,20.3364 -72.4724,30.7079 -19.5118,10.575 -36.2362,25.2171 -33.4487,30.3012 -33.4487,70.5672 0,34.5718 25.0865,57.1452 27.874,22.5733 66.8976,22.5733 36.2362,0 66.8976,-15.8624 30.6614,-16.0656 47.3858,-42.9096 22.2992,-34.9786 22.2992,-101.4785 z" />
      <path
         id="path4736"
         style="font-style:normal;font-variant:normal;font-weight:normal;font-stretch:normal;font-size:0.00527048px;line-height:1.25;font-family:'Baskerville Old Face';-inkscape-font-specification:'Baskerville Old Face, Normal';font-variant-ligatures:normal;font-variant-caps:normal;font-variant-numeric:normal;font-variant-east-asian:normal;letter-spacing:0px;word-spacing:0px;white-space:pre;fill:#000000;fill-opacity:1;stroke:none;stroke-width:14.6583;stroke-miterlimit:4;stroke-dasharray:none;stroke-opacity:1"
         d="m -5923.7321,1841.4383 q -4.8895,-22.3058 -4.8895,-47.2671 -46.4502,21.7748 -88.011,31.3344 -41.5607,9.5596 -88.0109,9.5596 -97.7899,0 -163.7982,-41.4252 -44.0055,-26.3775 -68.4529,-66.0324 -22.0027,-40.1859 -22.0027,-87.4531 0,-50.0997 24.4474,-92.587 24.4475,-42.8415 70.8977,-70.9893 70.8977,-43.7266 171.1324,-43.7266 46.4503,0 80.6768,9.9137 34.2264,10.0908 80.6766,36.4683 v -168.8872 q 0,-49.7457 -24.4474,-71.5205 -22.0028,-21.9517 -73.3425,-21.9517 v -10.9759 l 190.6904,-17.7031 v 531.092 q 0,51.3389 24.4475,73.2907 22.0027,21.7748 73.3424,21.7748 v 11.507 z m -7.3343,-212.4368 q 0,-63.3769 -7.3342,-94.7113 -9.779,-31.8655 -29.337,-51.87 -14.6685,-17.3491 -44.0054,-27.7938 -29.337,-10.6219 -58.674,-10.6219 -68.453,0 -117.348,45.6739 -29.337,27.2628 -46.4502,65.1474 -17.1132,37.7074 -17.1132,77.8935 0,39.1237 17.1132,77.0082 14.6685,37.3535 41.5607,64.2622 48.895,46.382 117.348,46.382 31.7817,0 61.1187,-11.861 29.3369,-11.8611 48.895,-32.7508 17.1132,-21.9517 26.8922,-53.8173 7.3342,-32.3965 7.3342,-92.9411 z" />
      <path
         id="path4738"
         style="font-style:normal;font-variant:normal;font-weight:normal;font-stretch:normal;font-size:0.00527048px;line-height:1.25;font-family:'Baskerville Old Face';-inkscape-font-specification:'Baskerville Old Face, Normal';font-variant-ligatures:normal;font-variant-caps:normal;font-variant-numeric:normal;font-variant-east-asian:normal;letter-spacing:0px;word-spacing:0px;white-space:pre;fill:#000000;fill-opacity:1;stroke:none;stroke-width:13.682;stroke-miterlimit:4;stroke-dasharray:none;stroke-opacity:1"
         d="m -5327.3176,1841.1443 q -7.6966,-22.7805 -7.6966,-46.5899 -82.0972,46.8839 -194.9808,46.8839 -82.0972,0 -133.4078,-23.0745 -48.7453,-22.6336 -48.7453,-64.2266 v -131.6864 -28.6595 q 0,-25.72 -5.1311,-37.4778 -5.131,-11.7577 -20.5243,-20.135 -17.9587,-10.1411 -69.2694,-14.9911 v -8.0835 h 194.9807 v 191.063 q 0,40.5642 2.5655,60.1114 5.1311,19.4002 20.5243,31.8928 12.8278,12.7865 41.0486,20.429 25.6554,7.0547 61.5729,7.0547 35.9176,0 69.2695,-8.2304 30.7864,-8.3774 48.7452,-22.7806 20.5243,-14.6972 25.6553,-33.9504 7.6967,-19.2533 7.6967,-63.6386 v -74.0738 l -2.5656,-27.9245 q 0,-25.7201 -5.1311,-37.4778 -2.5655,-11.7577 -17.9587,-20.135 -20.5243,-10.1411 -69.2694,-14.9912 v -8.0834 h 192.4152 v 205.7601 q 0,38.9475 5.1311,54.8204 2.5656,15.579 12.8277,25.2791 12.8277,10.582 28.2209,15.5789 15.3931,4.5562 46.1796,5.732 v 7.4955 z" />
    </g>
    <g
       id="g4288">
      <path
         id="path2655"
         style="fill:#ffff00;stroke:#000000;stroke-width:0.565964;stroke-linejoin:round"
         d="m -16430.291,-5397.1007 v 1221.7218 h 742.088 v -1221.7218 z m 37.829,152.2725 h 667.856 l -1.427,919.9981 h -667.856 z" />
      <path
         d="m -16343.881,-4297.8759 v -14.942 q 25.472,-2.0261 40.755,-10.3835 15.283,-9.1172 27.17,-27.6049 15.283,-20.7668 18.679,-52.6771 5.095,-31.9102 5.095,-99.0229 v -481.1854 q 0,-67.1126 -5.095,-99.0229 -3.396,-31.9101 -18.679,-52.6771 -11.887,-18.9941 -27.17,-27.6048 -15.283,-8.3574 -40.755,-10.3835 v -14.9421 h 339.624 q 44.151,0 57.736,1.2663 49.245,5.8249 83.207,35.2025 27.17,26.0854 42.453,68.379 16.982,42.5469 16.982,95.224 0,85.3471 -35.661,140.0503 -13.585,20.2605 -28.868,33.9363 -16.981,13.1692 -47.547,29.3776 42.453,10.3835 66.226,22.793 22.076,12.4095 40.755,34.696 28.868,33.683 44.151,84.5873 15.283,50.1446 15.283,108.8999 0,59.2617 -15.283,108.8999 -16.981,48.8783 -44.151,78.7624 -27.17,26.845 -62.83,37.2286 -35.661,10.3834 -100.189,10.3834 z m 169.812,-861.0685 v 379.8832 h 33.962 q 25.472,0 52.642,-5.3184 22.075,-5.3184 37.358,-12.4095 13.585,-7.0912 25.472,-19.5007 22.076,-24.819 33.963,-63.3139 11.886,-39.0013 11.886,-85.8535 0,-49.6381 -11.886,-93.9579 -11.887,-45.0794 -32.265,-69.6452 -18.679,-21.5267 -42.453,-29.3776 -22.075,-7.8509 -67.924,-7.8509 z m 0,405.2087 v 278.581 q 0,48.8783 3.396,78.7625 5.095,29.8841 15.283,50.9044 22.076,43.5599 76.415,43.5599 71.321,0 112.076,-57.2358 40.755,-57.4889 40.755,-156.5118 0,-56.7293 -13.585,-104.8478 -11.887,-48.8783 -33.962,-74.9636 -39.057,-48.3718 -122.265,-48.3718 z"
         style="font-style:normal;font-variant:normal;font-weight:normal;font-stretch:normal;font-size:0.00527048px;line-height:1.25;font-family:'Baskerville Old Face';-inkscape-font-specification:'Baskerville Old Face, Normal';font-variant-ligatures:normal;font-variant-caps:normal;font-variant-numeric:normal;font-variant-east-asian:normal;letter-spacing:0px;word-spacing:0px;white-space:pre;fill:#000000;fill-opacity:1;stroke:none;stroke-width:207378"
         id="path2617" />
      <path
         d="m -15342.585,-4344.5285 7.005,4.0979 q -15.761,42.5547 -73.552,42.5547 -33.273,0 -54.288,-14.1848 -14.009,-9.299 -28.019,-32.4678 -29.771,24.4296 -45.532,32.1526 -29.771,14.5 -68.298,14.5 -49.034,0 -78.805,-21.4349 -29.771,-21.5926 -29.771,-58.0006 0,-33.7285 24.517,-56.4243 14.01,-12.6089 31.522,-19.859 17.513,-7.7229 50.786,-15.4458 38.527,-8.8261 57.79,-14.973 19.264,-6.1467 31.522,-14.6577 14.01,-9.299 19.264,-21.9078 5.254,-12.4512 5.254,-34.8318 0,-47.4407 -19.264,-69.3485 -8.756,-10.0871 -22.766,-16.2338 -14.01,-6.1468 -29.771,-6.1468 -19.263,0 -33.273,8.6685 -14.01,8.511 -21.015,23.4839 l -12.258,23.4839 q -8.756,19.0709 -31.522,19.0709 -15.761,0 -26.269,-8.9838 -10.507,-9.299 -10.507,-23.0111 0,-20.8045 33.273,-34.9894 17.513,-7.2501 42.03,-11.6632 26.268,-4.8859 50.785,-4.8859 28.02,0 59.542,6.462 29.771,6.462 50.785,16.7067 28.02,14.9729 35.025,38.9297 3.502,12.136 3.502,40.9786 v 150.0449 q 0,38.1417 3.503,51.8538 8.756,28.8426 38.527,28.8426 14.009,0 21.014,-4.4131 8.756,-4.5707 19.264,-17.9676 z m -148.854,-157.6101 q -24.517,18.2828 -54.288,32.1524 -33.273,15.7611 -45.532,23.7992 -12.259,8.1957 -22.766,19.5436 -21.015,23.484 -21.015,54.6908 0,26.7937 15.761,44.2885 17.513,17.4947 42.03,17.4947 22.766,0 42.029,-12.2936 19.264,-12.4512 29.771,-33.2557 14.01,-27.109 14.01,-78.6475 z"
         style="font-style:normal;font-variant:normal;font-weight:normal;font-stretch:normal;font-size:0.00527048px;line-height:1.25;font-family:'Baskerville Old Face';-inkscape-font-specification:'Baskerville Old Face, Normal';font-variant-ligatures:normal;font-variant-caps:normal;font-variant-numeric:normal;font-variant-east-asian:normal;letter-spacing:0px;word-spacing:0px;white-space:pre;fill:#000000;fill-opacity:1;stroke:none;stroke-width:166136"
         id="path2619" />
      <path
         d="m -15006.35,-4297.8759 q -3.503,-19.8588 -3.503,-42.0818 -33.273,19.386 -63.044,27.897 -29.77,8.5109 -63.044,8.5109 -70.049,0 -117.332,-36.8808 -31.522,-23.4839 -49.034,-58.7886 -15.761,-35.7775 -15.761,-77.8593 0,-44.6038 17.512,-82.4302 17.512,-38.1417 50.786,-63.2017 50.785,-38.9297 122.585,-38.9297 33.274,0 57.791,8.8262 24.517,8.9838 57.79,32.4677 v -150.3601 q 0,-44.2885 -17.512,-63.6745 -15.761,-19.5437 -52.537,-19.5437 v -9.7718 l 136.596,-15.7611 v 472.8305 q 0,45.707 17.512,65.2507 15.761,19.3861 52.537,19.3861 v 10.2446 z m -5.254,-189.1322 q 0,-56.4243 -5.254,-84.3214 -7.004,-28.3698 -21.014,-46.1797 -10.508,-15.4458 -31.522,-24.7448 -21.015,-9.4566 -42.03,-9.4566 -49.034,0 -84.058,40.6634 -21.015,24.272 -33.274,58.0005 -12.258,33.571 -12.258,69.3485 0,34.8318 12.258,68.5604 10.508,33.2557 29.771,57.2125 35.025,41.2939 84.059,41.2939 22.766,0 43.781,-10.5599 21.014,-10.5599 35.024,-29.1579 12.259,-19.5437 19.263,-47.9135 5.254,-28.8426 5.254,-82.7454 z"
         style="font-style:normal;font-variant:normal;font-weight:normal;font-stretch:normal;font-size:0.00527048px;line-height:1.25;font-family:'Baskerville Old Face';-inkscape-font-specification:'Baskerville Old Face, Normal';font-variant-ligatures:normal;font-variant-caps:normal;font-variant-numeric:normal;font-variant-east-asian:normal;letter-spacing:0px;word-spacing:0px;white-space:pre;fill:#000000;fill-opacity:1;stroke:none;stroke-width:166136"
         id="path2621" />
      <path
         d="m -14572.983,-4298.1911 q -5.254,-24.4295 -5.254,-49.9624 -56.039,50.2776 -133.093,50.2776 -56.039,0 -91.063,-24.7447 -33.274,-24.272 -33.274,-68.8757 v -141.2187 -30.7339 q 0,-27.5818 -3.502,-40.1906 -3.502,-12.6089 -14.01,-21.5926 -12.258,-10.8751 -47.283,-16.0763 v -8.6685 h 133.093 v 204.8932 q 0,43.5004 1.751,64.4625 3.503,20.8046 14.01,34.2015 8.756,13.7121 28.02,21.9077 17.512,7.5654 42.029,7.5654 24.517,0 47.283,-8.8262 21.015,-8.9838 33.273,-24.4296 14.01,-15.761 17.513,-36.408 5.253,-20.6469 5.253,-68.2451 v -79.4356 l -1.751,-29.9459 q 0,-27.5818 -3.502,-40.1906 -1.752,-12.6088 -12.259,-21.5926 -14.01,-10.8751 -47.283,-16.0762 v -8.6686 h 131.342 v 220.6543 q 0,41.7667 3.502,58.7886 1.752,16.7066 8.756,27.1089 8.757,11.3479 19.264,16.7066 10.507,4.886 31.522,6.1469 v 8.0381 z"
         style="font-style:normal;font-variant:normal;font-weight:normal;font-stretch:normal;font-size:0.00527048px;line-height:1.25;font-family:'Baskerville Old Face';-inkscape-font-specification:'Baskerville Old Face, Normal';font-variant-ligatures:normal;font-variant-caps:normal;font-variant-numeric:normal;font-variant-east-asian:normal;letter-spacing:0px;word-spacing:0px;white-space:pre;fill:#000000;fill-opacity:1;stroke:none;stroke-width:166136"
         id="path2623" />
      <g
         transform="matrix(0.70770276,0,0,0.91075899,-5526.2431,686.8387)"
         id="g2930">
        <g
           id="g2904"
           transform="matrix(1.4828604,0,0,0.882636,-14922.62,-7453.7603)">
          <g
             transform="matrix(1.4433,0,0,1.4114247,-857.64715,161.34725)"
             id="g2902">
            <path
               sodipodi:nodetypes="cscssssscccccsssac"
               d="m 1669.4485,657.98979 c -47.0058,3.59628 -91.9044,33.279 -112.2364,69.39128 -24.2751,43.11567 -33.4567,104.16881 -25.9006,154.97791 4.4654,14.28553 -16.1273,37.40193 -29.2625,46.97191 -20.2721,14.76961 -11.3134,33.82361 -7.3497,50.32894 3.0266,12.60371 1.2043,3.1428 7.5736,36.62707 6.5033,34.1885 11.3013,48.6773 20.7,65.278 17.0801,30.1683 46.0554,54.9566 76.652,59.3305 74.235,10.6123 137.9159,-28.9167 137.2484,-86.1213 l 5.271,451.6764 c -0.2328,23.1355 23.5933,41.9072 53.4238,42.0887 l 9.8558,0.061 c 29.831,0.1817 54.0356,-18.299 54.2696,-41.435 0,0 -15.0112,-323.961 9.0225,-504.677 12.2101,-91.81085 19.1396,-128.74577 16.3682,-169.95178 -8.7706,-130.40535 -33.3713,-168.62688 -139.7455,-177.71129 0,0 -23.4902,-2.98674 -35.2541,-2.58823 -13.6096,0.46108 -40.6361,5.75267 -40.6361,5.75267 z"
               style="fill:#000000;fill-opacity:1;stroke:none;stroke-width:12.7871;stroke-miterlimit:4;stroke-dasharray:none;stroke-opacity:1"
               id="path2896" />
            <path
               id="path2898"
               style="fill:#552200;fill-opacity:1;stroke:none;stroke-width:12.7871;stroke-miterlimit:4;stroke-dasharray:none;stroke-opacity:1"
               d="m 1675.023,690.79426 c -43.1197,3.29906 -84.3062,30.52769 -102.9573,63.65446 -22.268,39.55077 -30.6906,95.55642 -23.7592,142.16477 4.0962,13.10486 -14.794,34.30976 -26.8433,43.08879 -18.5959,13.5483 -10.378,31.02689 -6.742,46.16769 2.7765,11.56172 1.1048,2.88291 6.9475,33.59893 5.9656,31.3619 10.3669,44.6529 18.9886,59.8812 15.668,27.6739 42.2478,50.4128 70.3147,54.4252 68.0975,9.7349 126.5136,-26.526 125.9013,-79.0013 l 5.271,451.6765 c -0.2136,21.2227 17.4375,41.497 53.4238,42.0887 5.8653,-0.072 11.7312,0.3518 17.5958,-0.3156 21.8706,-1.7938 45.8556,-16.9177 46.5296,-41.0582 0,0 -23.9244,-334.5791 -1.8777,-500.3542 11.2005,-84.22033 17.5572,-118.10151 15.0149,-155.9009 -8.0454,-119.62387 -30.6122,-154.68561 -128.1919,-163.01904 0,0 -21.5482,-2.73966 -32.3395,-2.37399 -12.4844,0.42293 -37.2763,5.27692 -37.2763,5.27692 z"
               sodipodi:nodetypes="cscssssscccccsssacc" />
            <path
               sodipodi:nodetypes="cscssssscccccsssacc"
               d="m 1681.547,728.48178 c -38.5683,2.95083 -75.4076,27.3055 -92.09,56.9357 -19.9177,35.37618 -27.4512,85.47036 -21.2514,127.15915 3.6638,11.72166 -13.2324,30.68835 -24.0099,38.54074 -16.6332,12.11828 -9.2826,27.75202 -6.0304,41.29467 2.4834,10.34136 0.9882,2.57864 6.2141,30.05256 5.3359,28.0516 9.2727,39.9397 16.9843,53.5607 14.0143,24.7529 37.7886,45.0917 62.893,48.6806 60.9097,8.7073 113.16,-23.7263 112.6123,-70.6627 l 4.7147,404.0017 c -1.1766,50.3664 -3.6708,70.3658 23.3546,83.668 19.4763,7.8603 30.6298,6.8263 40.4856,6.8875 27.8355,0.074 55.7185,-18.2576 54.2696,-41.435 0,0 -34.3672,-347.745 -14.6476,-496.0225 10.0184,-75.33081 15.7041,-105.63579 13.4302,-139.44541 -7.1963,-106.99752 -27.3812,-138.35846 -114.6613,-145.81229 0,0 -19.2737,-2.4505 -28.926,-2.12342 -11.1667,0.37829 -33.3418,4.71996 -33.3418,4.71996 z"
               style="fill:#803300;fill-opacity:1;stroke:none;stroke-width:12.7871;stroke-miterlimit:4;stroke-dasharray:none;stroke-opacity:1"
               id="path2900" />
          </g>
        </g>
        <g
           style="stroke:none;stroke-width:6.08997;stroke-miterlimit:4;stroke-dasharray:none;stroke-opacity:1"
           transform="matrix(3.2283403,-0.39612729,0.11444894,3.5649409,-12151.608,-5754.8011)"
           id="g2928">
          <g
             transform="translate(-14.683894,-27.607991)"
             id="g2926">
            <g
               transform="matrix(1.0369816,0.00410931,0.00131105,1.0001457,18.062494,24.272505)"
               id="g2924">
              <g
                 id="g2910"
                 style="opacity:1;stroke:none;stroke-width:6.08997;stroke-miterlimit:4;stroke-dasharray:none;stroke-opacity:1">
                <path
                   style="color:#000000;font-style:normal;font-variant:normal;font-weight:normal;font-stretch:normal;font-size:medium;line-height:normal;font-family:sans-serif;font-variant-ligatures:normal;font-variant-position:normal;font-variant-caps:normal;font-variant-numeric:normal;font-variant-alternates:normal;font-variant-east-asian:normal;font-feature-settings:normal;font-variation-settings:normal;text-indent:0;text-align:start;text-decoration:none;text-decoration-line:none;text-decoration-style:solid;text-decoration-color:#000000;letter-spacing:normal;word-spacing:normal;text-transform:none;writing-mode:lr-tb;direction:ltr;text-orientation:mixed;dominant-baseline:auto;baseline-shift:baseline;text-anchor:start;white-space:normal;shape-padding:0;shape-margin:0;inline-size:0;clip-rule:nonzero;display:inline;overflow:visible;visibility:visible;isolation:auto;mix-blend-mode:normal;color-interpolation:sRGB;color-interpolation-filters:linearRGB;solid-color:#000000;solid-opacity:1;vector-effect:none;fill:#000000;fill-opacity:1;fill-rule:nonzero;stroke:none;stroke-width:6.08997;stroke-linecap:butt;stroke-linejoin:miter;stroke-miterlimit:4;stroke-dasharray:none;stroke-dashoffset:0;stroke-opacity:1;color-rendering:auto;image-rendering:auto;shape-rendering:auto;text-rendering:auto;enable-background:accumulate;stop-color:#000000;stop-opacity:1"
                   d="m -220.48833,-202.06297 c 0,16.10728 -102.64397,26.26993 -102.64397,41.16055 H 98.644333 c 0,-15.69386 -115.040778,-25.4667 -115.040778,-41.16055 l -205.097125,-0.1616 z"
                   id="path2906" />
                <path
                   style="color:#000000;font-style:normal;font-variant:normal;font-weight:normal;font-stretch:normal;font-size:medium;line-height:normal;font-family:sans-serif;font-variant-ligatures:normal;font-variant-position:normal;font-variant-caps:normal;font-variant-numeric:normal;font-variant-alternates:normal;font-variant-east-asian:normal;font-feature-settings:normal;font-variation-settings:normal;text-indent:0;text-align:start;text-decoration:none;text-decoration-line:none;text-decoration-style:solid;text-decoration-color:#000000;letter-spacing:normal;word-spacing:normal;text-transform:none;writing-mode:lr-tb;direction:ltr;text-orientation:mixed;dominant-baseline:auto;baseline-shift:baseline;text-anchor:start;white-space:normal;shape-padding:0;shape-margin:0;inline-size:0;clip-rule:nonzero;display:inline;overflow:visible;visibility:visible;isolation:auto;mix-blend-mode:normal;color-interpolation:sRGB;color-interpolation-filters:linearRGB;solid-color:#000000;solid-opacity:1;vector-effect:none;fill-opacity:1;fill-rule:nonzero;stroke:none;stroke-width:6.08997;stroke-linecap:butt;stroke-linejoin:miter;stroke-miterlimit:4;stroke-dasharray:none;stroke-dashoffset:0;stroke-opacity:1;color-rendering:auto;image-rendering:auto;shape-rendering:auto;text-rendering:auto;enable-background:accumulate;stop-color:#000000;stop-opacity:1"
                   d="m -221.49414,-202.26758 -0.006,0.084 h 0.006 v 0.002 h 0.006 l 0.95117,0.15234 c -0.0177,1.97901 -1.5988,3.87805 -4.38477,5.71289 -2.80163,1.84517 -6.80935,3.62105 -11.61914,5.34571 -9.61957,3.44931 -22.44887,6.69661 -35.27929,9.90429 -12.83042,3.20768 -25.6612,6.37633 -35.28711,9.67579 -4.81296,1.64972 -8.82514,3.3309 -11.63672,5.06835 -2.81158,1.73746 -4.42969,3.53439 -4.42969,5.41993 v 0.043 H 98.685547 v -0.043 c 0,-0.99374 -0.455591,-1.96173 -1.302735,-2.9043 -0.847143,-0.94257 -2.084877,-1.86235 -3.660156,-2.76367 -3.150557,-1.80264 -7.646997,-3.53215 -13.041015,-5.2168 -10.788037,-3.36929 -25.168731,-6.55299 -39.548829,-9.73633 -14.380097,-3.18333 -28.758906,-6.36693 -39.5410151,-9.73437 -5.3910548,-1.68372 -9.8827021,-3.41392 -13.0234379,-5.21094 -1.570367,-0.89851 -2.8026,-1.81367 -3.640625,-2.74609 -0.838024,-0.93243 -1.28125,-1.87967 -1.28125,-2.84766 v -0.043 z m 0.53711,0.0859 204.527342,0.16016 c 0.01255,0.97913 0.457667,1.93388 1.292969,2.86328 0.847143,0.94257 2.086831,1.8604 3.66211,2.76172 3.1505567,1.80263 7.6469971,3.5341 13.0410152,5.21875 10.7880368,3.36929 25.1687308,6.55299 39.5488278,9.73632 14.380098,3.18334 28.758906,6.36694 39.541016,9.73438 5.391055,1.68372 9.882702,3.41392 13.023438,5.21094 1.570367,0.89851 2.8026,1.81366 3.640624,2.74609 0.825499,0.91849 1.258446,1.85177 1.271485,2.80469 H -323.08008 c 0.0248,-1.82173 1.60118,-3.58694 4.38086,-5.30469 2.80176,-1.73139 6.80922,-3.41186 11.61914,-5.06055 9.61984,-3.29737 22.44873,-6.46806 35.2793,-9.67578 12.83057,-3.20772 25.66289,-6.45261 35.28906,-9.90429 4.81309,-1.72585 8.82501,-3.50367 11.63672,-5.35547 2.81171,-1.85181 4.42969,-3.78062 4.42969,-5.81641 v -0.0371 l -0.0371,-0.006 z"
                   id="path2908" />
              </g>
              <g
                 id="g2916"
                 style="opacity:1;stroke:none;stroke-width:6.08997;stroke-miterlimit:4;stroke-dasharray:none;stroke-opacity:1">
                <path
                   style="color:#000000;font-style:normal;font-variant:normal;font-weight:normal;font-stretch:normal;font-size:medium;line-height:normal;font-family:sans-serif;font-variant-ligatures:normal;font-variant-position:normal;font-variant-caps:normal;font-variant-numeric:normal;font-variant-alternates:normal;font-variant-east-asian:normal;font-feature-settings:normal;font-variation-settings:normal;text-indent:0;text-align:start;text-decoration:none;text-decoration-line:none;text-decoration-style:solid;text-decoration-color:#000000;letter-spacing:normal;word-spacing:normal;text-transform:none;writing-mode:lr-tb;direction:ltr;text-orientation:mixed;dominant-baseline:auto;baseline-shift:baseline;text-anchor:start;white-space:normal;shape-padding:0;shape-margin:0;inline-size:0;clip-rule:nonzero;display:inline;overflow:visible;visibility:visible;isolation:auto;mix-blend-mode:normal;color-interpolation:sRGB;color-interpolation-filters:linearRGB;solid-color:#000000;solid-opacity:1;vector-effect:none;fill:#ffff00;fill-opacity:1;fill-rule:nonzero;stroke:none;stroke-width:6.08997;stroke-linecap:butt;stroke-linejoin:miter;stroke-miterlimit:4;stroke-dasharray:none;stroke-dashoffset:0;stroke-opacity:1;color-rendering:auto;image-rendering:auto;shape-rendering:auto;text-rendering:auto;enable-background:accumulate;stop-color:#000000;stop-opacity:1"
                   d="m -220.48833,-227.3791 h 204.091876 v 25.31613 H -220.48833 Z"
                   id="path2912" />
                <path
                   style="color:#000000;font-style:normal;font-variant:normal;font-weight:normal;font-stretch:normal;font-size:medium;line-height:normal;font-family:sans-serif;font-variant-ligatures:normal;font-variant-position:normal;font-variant-caps:normal;font-variant-numeric:normal;font-variant-alternates:normal;font-variant-east-asian:normal;font-feature-settings:normal;font-variation-settings:normal;text-indent:0;text-align:start;text-decoration:none;text-decoration-line:none;text-decoration-style:solid;text-decoration-color:#000000;letter-spacing:normal;word-spacing:normal;text-transform:none;writing-mode:lr-tb;direction:ltr;text-orientation:mixed;dominant-baseline:auto;baseline-shift:baseline;text-anchor:start;white-space:normal;shape-padding:0;shape-margin:0;inline-size:0;clip-rule:nonzero;display:inline;overflow:visible;visibility:visible;isolation:auto;mix-blend-mode:normal;color-interpolation:sRGB;color-interpolation-filters:linearRGB;solid-color:#000000;solid-opacity:1;vector-effect:none;fill-opacity:1;fill-rule:nonzero;stroke:none;stroke-width:6.08997;stroke-linecap:butt;stroke-linejoin:miter;stroke-miterlimit:4;stroke-dasharray:none;stroke-dashoffset:0;stroke-opacity:1;color-rendering:auto;image-rendering:auto;shape-rendering:auto;text-rendering:auto;enable-background:accumulate;stop-color:#000000;stop-opacity:1"
                   d="m -220.51953,-227.41016 v 0.0312 25.34766 h 204.154296 v -25.37891 z m 0.0625,0.0625 h 204.029296 v 25.25391 H -220.45703 Z"
                   id="path2914" />
              </g>
              <g
                 id="g2922"
                 style="opacity:1;stroke:none;stroke-width:6.08997;stroke-miterlimit:4;stroke-dasharray:none;stroke-opacity:1">
                <path
                   style="color:#000000;font-style:normal;font-variant:normal;font-weight:normal;font-stretch:normal;font-size:medium;line-height:normal;font-family:sans-serif;font-variant-ligatures:normal;font-variant-position:normal;font-variant-caps:normal;font-variant-numeric:normal;font-variant-alternates:normal;font-variant-east-asian:normal;font-feature-settings:normal;font-variation-settings:normal;text-indent:0;text-align:start;text-decoration:none;text-decoration-line:none;text-decoration-style:solid;text-decoration-color:#000000;letter-spacing:normal;word-spacing:normal;text-transform:none;writing-mode:lr-tb;direction:ltr;text-orientation:mixed;dominant-baseline:auto;baseline-shift:baseline;text-anchor:start;white-space:normal;shape-padding:0;shape-margin:0;inline-size:0;clip-rule:nonzero;display:inline;overflow:visible;visibility:visible;isolation:auto;mix-blend-mode:normal;color-interpolation:sRGB;color-interpolation-filters:linearRGB;solid-color:#000000;solid-opacity:1;vector-effect:none;fill:#000000;fill-opacity:1;fill-rule:nonzero;stroke:none;stroke-width:6.08997;stroke-linecap:butt;stroke-linejoin:miter;stroke-miterlimit:4;stroke-dasharray:none;stroke-dashoffset:0;stroke-opacity:1;color-rendering:auto;image-rendering:auto;shape-rendering:auto;text-rendering:auto;enable-background:accumulate;stop-color:#000000;stop-opacity:1"
                   d="m -119.12269,-278.10781 c -77.45115,-13.85115 -93.32519,2.52309 -101.36552,50.72872 h 204.092058 c -9.451309,-45.94141 -25.924063,-53.3604 -42.063722,-52.80737 z"
                   id="path2918" />
                <path
                   style="color:#000000;font-style:normal;font-variant:normal;font-weight:normal;font-stretch:normal;font-size:medium;line-height:normal;font-family:sans-serif;font-variant-ligatures:normal;font-variant-position:normal;font-variant-caps:normal;font-variant-numeric:normal;font-variant-alternates:normal;font-variant-east-asian:normal;font-feature-settings:normal;font-variation-settings:normal;text-indent:0;text-align:start;text-decoration:none;text-decoration-line:none;text-decoration-style:solid;text-decoration-color:#000000;letter-spacing:normal;word-spacing:normal;text-transform:none;writing-mode:lr-tb;direction:ltr;text-orientation:mixed;dominant-baseline:auto;baseline-shift:baseline;text-anchor:start;white-space:normal;shape-padding:0;shape-margin:0;inline-size:0;clip-rule:nonzero;display:inline;overflow:visible;visibility:visible;isolation:auto;mix-blend-mode:normal;color-interpolation:sRGB;color-interpolation-filters:linearRGB;solid-color:#000000;solid-opacity:1;vector-effect:none;fill-opacity:1;fill-rule:nonzero;stroke:none;stroke-width:6.08997;stroke-linecap:butt;stroke-linejoin:miter;stroke-miterlimit:4;stroke-dasharray:none;stroke-dashoffset:0;stroke-opacity:1;color-rendering:auto;image-rendering:auto;shape-rendering:auto;text-rendering:auto;enable-background:accumulate;stop-color:#000000;stop-opacity:1"
                   d="m -166.50781,-282.86523 c -12.51219,0.34071 -22.01837,2.59631 -29.35742,6.79687 -14.67812,8.40113 -20.66254,24.57153 -24.6836,48.67969 l -0.0117,0.0703 h 204.240238 l -0.01563,-0.0723 c -4.726938,-22.97695 -11.2094,-36.32984 -18.539062,-43.8711 -7.329662,-7.54126 -15.507982,-9.26319 -23.587891,-8.98633 l -60.660155,2.07813 c -19.35946,-3.46169 -34.87523,-5.03596 -47.38476,-4.69531 z m 0.006,0.12304 c 12.49859,-0.34024 28.00876,1.23296 47.36914,4.69531 h 0.006 0.006 l 60.664059,-2.07812 c 8.059751,-0.27617 16.189684,1.43389 23.49414,8.94922 7.295942,7.50657 13.765334,20.82106 18.488282,43.73633 H -220.41211 c 4.01916,-24.05493 9.9912,-40.15578 24.60742,-48.52149 7.31589,-4.1873 16.80415,-6.441 29.30274,-6.78125 z"
                   id="path2920" />
              </g>
            </g>
          </g>
        </g>
      </g>
    </g>
  </g>
</svg>
