<?xml version="1.0" encoding="UTF-8" standalone="no"?>
<svg
   xmlns:dc="http://purl.org/dc/elements/1.1/"
   xmlns:cc="http://creativecommons.org/ns#"
   xmlns:rdf="http://www.w3.org/1999/02/22-rdf-syntax-ns#"
   xmlns:svg="http://www.w3.org/2000/svg"
   xmlns="http://www.w3.org/2000/svg"
   xmlns:sodipodi="http://sodipodi.sourceforge.net/DTD/sodipodi-0.dtd"
   xmlns:inkscape="http://www.inkscape.org/namespaces/inkscape"
   sodipodi:docname="Belt Badu.svg"
   inkscape:version="1.0 (4035a4fb49, 2020-05-01)"
   id="svg3074"
   version="1.1"
   viewBox="0 0 210 297"
   height="297mm"
   width="210mm">
  <defs
     id="defs3068" />
  <sodipodi:namedview
     showborder="false"
     inkscape:showpageshadow="false"
     inkscape:window-maximized="1"
     inkscape:window-y="-11"
     inkscape:window-x="-11"
     inkscape:window-height="1046"
     inkscape:window-width="1920"
     showgrid="false"
     inkscape:document-rotation="0"
     inkscape:current-layer="layer1"
     inkscape:document-units="px"
     inkscape:cy="560"
     inkscape:cx="400"
     inkscape:zoom="0.0875"
     inkscape:pageshadow="2"
     inkscape:pageopacity="0.0"
     borderopacity="1.0"
     bordercolor="#666666"
     pagecolor="#ffffff"
     id="base" />
  <metadata
     id="metadata3071">
    <rdf:RDF>
      <cc:Work
         rdf:about="">
        <dc:format>image/svg+xml</dc:format>
        <dc:type
           rdf:resource="http://purl.org/dc/dcmitype/StillImage" />
        <dc:title></dc:title>
      </cc:Work>
    </rdf:RDF>
  </metadata>
  <g
     id="layer1"
     inkscape:groupmode="layer"
     inkscape:label="Layer 1">
    <g
       transform="translate(15658.65,6613.0714)"
       id="g2955">
      <path
         id="rect2013"
         style="fill:#ffff00;stroke:#000000;stroke-width:18.0952;stroke-linejoin:round;stroke-miterlimit:4;stroke-dasharray:none;stroke-opacity:1"
         d="m -16524.606,-7212.3548 c -161.552,0 -292.607,299.3013 -300.747,678.2634 7.383,-292.1842 108.81,-522.1821 233.673,-522.1821 h 1984.849 c 124.863,0 226.29,229.9979 233.673,522.1821 -8.14,-378.9621 -139.195,-678.2634 -300.747,-678.2634 z m -301.128,724.1754 c 1.898,392.5611 135.482,707.2247 301.128,707.2247 h 1850.701 c 165.646,0 299.23,-314.6636 301.128,-707.2247 -2.609,302.7683 -106.009,544.637 -234.054,544.637 h -1984.849 c -128.045,0 -231.444,-241.8687 -234.054,-544.637 z" />
      <path
         id="path2020"
         style="font-style:normal;font-variant:normal;font-weight:normal;font-stretch:normal;font-size:0.00527048px;line-height:1.25;font-family:'Baskerville Old Face';-inkscape-font-specification:'Baskerville Old Face, Normal';font-variant-ligatures:normal;font-variant-caps:normal;font-variant-numeric:normal;font-variant-east-asian:normal;letter-spacing:0px;word-spacing:0px;white-space:pre;fill:#000000;fill-opacity:1;stroke:none;stroke-width:222337"
         d="m -16604.538,-5962.3624 v -17.9248 q 24.407,-2.4305 39.051,-12.4563 14.644,-10.9371 26.034,-33.1153 14.644,-24.9123 17.899,-63.1926 4.881,-38.28 4.881,-118.7898 v -577.2397 q 0,-80.5097 -4.881,-118.7898 -3.255,-38.2801 -17.899,-63.1926 -11.39,-22.7857 -26.034,-33.1153 -14.644,-10.0257 -39.051,-12.4562 v -17.9248 h 325.426 q 42.305,0 55.322,1.519 47.187,6.9877 79.73,42.2296 26.034,31.2926 40.678,82.0289 16.271,51.0401 16.271,114.2326 0,102.3841 -34.17,168.0072 -13.017,24.3049 -27.661,40.7106 -16.271,15.7981 -45.559,35.242 40.678,12.4562 63.458,27.343 21.152,14.8866 39.051,41.622 27.661,40.4067 42.305,101.4726 14.644,60.1545 14.644,130.6385 0,71.0915 -14.644,130.6385 -16.271,58.6354 -42.305,94.485 -26.034,32.2038 -60.204,44.6601 -34.17,12.4561 -96.001,12.4561 z m 162.713,-1032.9552 v 455.7155 h 32.543 q 24.407,0 50.441,-6.38 21.152,-6.38 35.796,-14.8867 13.017,-8.5067 24.407,-23.3934 21.153,-29.7734 32.543,-75.9526 11.39,-46.7868 11.39,-102.9917 0,-59.5469 -11.39,-112.7137 -11.39,-54.0782 -30.916,-83.5478 -17.898,-25.8239 -40.678,-35.242 -21.152,-9.4181 -65.085,-9.4181 z m 0,486.0966 v 334.1914 q 0,58.6354 3.254,94.485 4.882,35.8495 14.644,61.0659 21.153,52.2553 73.221,52.2553 68.34,0 107.391,-68.6611 39.051,-68.9649 39.051,-187.7548 0,-68.0535 -13.017,-125.7775 -11.39,-58.6354 -32.543,-89.9278 -37.424,-58.0279 -117.153,-58.0279 z" />
      <path
         id="path2022"
         style="font-style:normal;font-variant:normal;font-weight:normal;font-stretch:normal;font-size:0.00527048px;line-height:1.25;font-family:'Baskerville Old Face';-inkscape-font-specification:'Baskerville Old Face, Normal';font-variant-ligatures:normal;font-variant-caps:normal;font-variant-numeric:normal;font-variant-east-asian:normal;letter-spacing:0px;word-spacing:0px;white-space:pre;fill:#000000;fill-opacity:1;stroke:none;stroke-width:178120"
         d="m -15645.101,-6018.3278 6.712,4.9159 q -15.102,51.0495 -70.477,51.0495 -31.882,0 -52.018,-17.0165 -13.424,-11.1552 -26.848,-38.9489 -28.527,29.3062 -43.629,38.5708 -28.526,17.3946 -65.442,17.3946 -46.985,0 -75.511,-25.7138 -28.526,-25.9029 -28.526,-69.5786 0,-40.4615 23.492,-67.6879 13.424,-15.1258 30.204,-23.8231 16.78,-9.2646 48.663,-18.5291 36.916,-10.588 55.374,-17.9619 18.458,-7.3738 30.205,-17.5837 13.424,-11.1553 18.458,-26.2811 5.034,-14.9367 5.034,-41.785 0,-56.9107 -18.458,-83.1918 -8.391,-12.1006 -21.815,-19.4744 -13.424,-7.3738 -28.526,-7.3738 -18.458,0 -31.882,10.3989 -13.424,10.2099 -20.136,28.1718 l -11.746,28.1718 q -8.391,22.8777 -30.205,22.8777 -15.102,0 -25.17,-10.7771 -10.068,-11.1552 -10.068,-27.6045 0,-24.9576 31.882,-41.9741 16.78,-8.6973 40.273,-13.9914 25.17,-5.8612 48.662,-5.8612 26.848,0 57.053,7.752 28.526,7.7519 48.662,20.0416 26.848,17.9619 33.56,46.7009 3.356,14.5586 3.356,49.1588 v 179.9969 q 0,45.7555 3.356,62.2048 8.39,34.6002 36.917,34.6002 13.424,0 20.136,-5.294 8.39,-5.4832 18.458,-21.5543 z m -142.631,-189.0723 q -23.492,21.9324 -52.019,38.5707 -31.882,18.9073 -43.628,28.55 -11.746,9.8317 -21.814,23.4449 -20.136,28.1718 -20.136,65.6082 0,32.1422 15.102,53.1293 16.78,20.987 40.272,20.987 21.814,0 40.272,-14.7476 18.459,-14.9367 28.527,-39.8943 13.424,-32.5204 13.424,-94.3471 z" />
      <path
         id="path2024"
         style="font-style:normal;font-variant:normal;font-weight:normal;font-stretch:normal;font-size:0.00527048px;line-height:1.25;font-family:'Baskerville Old Face';-inkscape-font-specification:'Baskerville Old Face, Normal';font-variant-ligatures:normal;font-variant-caps:normal;font-variant-numeric:normal;font-variant-east-asian:normal;letter-spacing:0px;word-spacing:0px;white-space:pre;fill:#000000;fill-opacity:1;stroke:none;stroke-width:178120"
         d="m -15322.922,-5962.3624 q -3.356,-23.8231 -3.356,-50.4823 -31.882,23.2559 -60.409,33.4658 -28.526,10.21 -60.408,10.21 -67.121,0 -112.427,-44.243 -30.205,-28.1718 -46.985,-70.524 -15.102,-42.9194 -15.102,-93.4017 0,-53.5075 16.78,-98.8848 16.78,-45.7555 48.663,-75.818 48.662,-46.7009 117.461,-46.7009 31.882,0 55.374,10.5881 23.493,10.7771 55.375,38.9488 v -180.3749 q 0,-53.1294 -16.78,-76.3853 -15.102,-23.445 -50.341,-23.445 v -11.7225 l 130.885,-18.9072 v 567.217 q 0,54.831 16.78,78.276 15.103,23.2559 50.341,23.2559 v 12.2897 z m -5.034,-226.8868 q 0,-67.6878 -5.034,-101.1537 -6.712,-34.033 -20.136,-55.3981 -10.069,-18.5291 -30.205,-29.6844 -20.136,-11.3443 -40.272,-11.3443 -46.984,0 -80.545,48.7806 -20.136,29.1172 -31.882,69.5786 -11.746,40.2724 -11.746,83.1919 0,41.7849 11.746,82.2464 10.068,39.8942 28.526,68.6333 33.56,49.5369 80.545,49.5369 21.814,0 41.95,-12.6678 20.136,-12.6679 33.561,-34.9784 11.746,-23.445 18.458,-57.478 5.034,-34.6002 5.034,-99.263 z" />
      <path
         id="path2026"
         style="font-style:normal;font-variant:normal;font-weight:normal;font-stretch:normal;font-size:0.00527048px;line-height:1.25;font-family:'Baskerville Old Face';-inkscape-font-specification:'Baskerville Old Face, Normal';font-variant-ligatures:normal;font-variant-caps:normal;font-variant-numeric:normal;font-variant-east-asian:normal;letter-spacing:0px;word-spacing:0px;white-space:pre;fill:#000000;fill-opacity:1;stroke:none;stroke-width:178120"
         d="m -14907.672,-5962.7405 q -5.034,-29.3062 -5.034,-59.936 -53.696,60.3141 -127.529,60.3141 -53.696,0 -87.257,-29.6843 -31.882,-29.1171 -31.882,-82.6247 v -169.4087 -36.8691 q 0,-33.0877 -3.356,-48.2135 -3.356,-15.1258 -13.424,-25.9029 -11.746,-13.046 -45.307,-19.2854 v -10.3989 h 127.53 v 245.794 q 0,52.184 1.678,77.3306 3.356,24.9575 13.424,41.0287 8.39,16.4493 26.848,26.281 16.78,9.0755 40.272,9.0755 23.493,0 45.307,-10.588 20.136,-10.7772 31.882,-29.3063 13.424,-18.9073 16.78,-43.6757 5.034,-24.7685 5.034,-81.8683 v -95.2925 l -1.678,-35.9237 q 0,-33.0877 -3.356,-48.2134 -1.678,-15.1258 -11.746,-25.903 -13.424,-13.0459 -45.306,-19.2853 v -10.399 h 125.851 v 264.7013 q 0,50.1041 3.356,70.5239 1.678,20.0417 8.39,32.5205 8.39,13.6132 18.458,20.0416 10.068,5.8613 30.204,7.3739 v 9.6426 z" />
      <g
         transform="matrix(0.66719997,0,0,0.90105599,-6414.3244,-1122.5318)"
         id="g2856">
        <g
           id="g1051"
           transform="matrix(1.4828604,0,0,0.882636,-14922.62,-7453.7603)">
          <g
             transform="matrix(1.4433,0,0,1.4114247,-857.64715,161.34725)"
             id="g1049">
            <path
               sodipodi:nodetypes="cscssssscccccsssac"
               d="m 1669.4485,657.98979 c -47.0058,3.59628 -91.9044,33.279 -112.2364,69.39128 -24.2751,43.11567 -33.4567,104.16881 -25.9006,154.97791 4.4654,14.28553 -16.1273,37.40193 -29.2625,46.97191 -20.2721,14.76961 -11.3134,33.82361 -7.3497,50.32894 3.0266,12.60371 1.2043,3.1428 7.5736,36.62707 6.5033,34.1885 11.3013,48.6773 20.7,65.278 17.0801,30.1683 46.0554,54.9566 76.652,59.3305 74.235,10.6123 137.9159,-28.9167 137.2484,-86.1213 l 5.271,451.6764 c -0.2328,23.1355 23.5933,41.9072 53.4238,42.0887 l 9.8558,0.061 c 29.831,0.1817 54.0356,-18.299 54.2696,-41.435 0,0 -15.0112,-323.961 9.0225,-504.677 12.2101,-91.81085 19.1396,-128.74577 16.3682,-169.95178 -8.7706,-130.40535 -33.3713,-168.62688 -139.7455,-177.71129 0,0 -23.4902,-2.98674 -35.2541,-2.58823 -13.6096,0.46108 -40.6361,5.75267 -40.6361,5.75267 z"
               style="fill:#000000;fill-opacity:1;stroke:none;stroke-width:12.7871;stroke-miterlimit:4;stroke-dasharray:none;stroke-opacity:1"
               id="path1043" />
            <path
               id="path1045"
               style="fill:#552200;fill-opacity:1;stroke:none;stroke-width:12.7871;stroke-miterlimit:4;stroke-dasharray:none;stroke-opacity:1"
               d="m 1675.023,690.79426 c -43.1197,3.29906 -84.3062,30.52769 -102.9573,63.65446 -22.268,39.55077 -30.6906,95.55642 -23.7592,142.16477 4.0962,13.10486 -14.794,34.30976 -26.8433,43.08879 -18.5959,13.5483 -10.378,31.02689 -6.742,46.16769 2.7765,11.56172 1.1048,2.88291 6.9475,33.59893 5.9656,31.3619 10.3669,44.6529 18.9886,59.8812 15.668,27.6739 42.2478,50.4128 70.3147,54.4252 68.0975,9.7349 126.5136,-26.526 125.9013,-79.0013 l 5.271,451.6765 c -0.2136,21.2227 17.4375,41.497 53.4238,42.0887 5.8653,-0.072 11.7312,0.3518 17.5958,-0.3156 21.8706,-1.7938 45.8556,-16.9177 46.5296,-41.0582 0,0 -23.9244,-334.5791 -1.8777,-500.3542 11.2005,-84.22033 17.5572,-118.10151 15.0149,-155.9009 -8.0454,-119.62387 -30.6122,-154.68561 -128.1919,-163.01904 0,0 -21.5482,-2.73966 -32.3395,-2.37399 -12.4844,0.42293 -37.2763,5.27692 -37.2763,5.27692 z"
               sodipodi:nodetypes="cscssssscccccsssacc" />
            <path
               sodipodi:nodetypes="cscssssscccccsssacc"
               d="m 1681.547,728.48178 c -38.5683,2.95083 -75.4076,27.3055 -92.09,56.9357 -19.9177,35.37618 -27.4512,85.47036 -21.2514,127.15915 3.6638,11.72166 -13.2324,30.68835 -24.0099,38.54074 -16.6332,12.11828 -9.2826,27.75202 -6.0304,41.29467 2.4834,10.34136 0.9882,2.57864 6.2141,30.05256 5.3359,28.0516 9.2727,39.9397 16.9843,53.5607 14.0143,24.7529 37.7886,45.0917 62.893,48.6806 60.9097,8.7073 113.16,-23.7263 112.6123,-70.6627 l 4.7147,404.0017 c -1.1766,50.3664 -3.6708,70.3658 23.3546,83.668 19.4763,7.8603 30.6298,6.8263 40.4856,6.8875 27.8355,0.074 55.7185,-18.2576 54.2696,-41.435 0,0 -34.3672,-347.745 -14.6476,-496.0225 10.0184,-75.33081 15.7041,-105.63579 13.4302,-139.44541 -7.1963,-106.99752 -27.3812,-138.35846 -114.6613,-145.81229 0,0 -19.2737,-2.4505 -28.926,-2.12342 -11.1667,0.37829 -33.3418,4.71996 -33.3418,4.71996 z"
               style="fill:#803300;fill-opacity:1;stroke:none;stroke-width:12.7871;stroke-miterlimit:4;stroke-dasharray:none;stroke-opacity:1"
               id="path1047" />
          </g>
        </g>
        <g
           style="stroke:none;stroke-width:6.08997;stroke-miterlimit:4;stroke-dasharray:none;stroke-opacity:1"
           transform="matrix(3.2283403,-0.39612729,0.11444894,3.5649409,-12151.608,-5754.8011)"
           id="g1075">
          <g
             transform="translate(-14.683894,-27.607991)"
             id="g1073">
            <g
               transform="matrix(1.0369816,0.00410931,0.00131105,1.0001457,18.062494,24.272505)"
               id="g1071">
              <g
                 id="g1057"
                 style="opacity:1;stroke:none;stroke-width:6.08997;stroke-miterlimit:4;stroke-dasharray:none;stroke-opacity:1">
                <path
                   style="color:#000000;font-style:normal;font-variant:normal;font-weight:normal;font-stretch:normal;font-size:medium;line-height:normal;font-family:sans-serif;font-variant-ligatures:normal;font-variant-position:normal;font-variant-caps:normal;font-variant-numeric:normal;font-variant-alternates:normal;font-variant-east-asian:normal;font-feature-settings:normal;font-variation-settings:normal;text-indent:0;text-align:start;text-decoration:none;text-decoration-line:none;text-decoration-style:solid;text-decoration-color:#000000;letter-spacing:normal;word-spacing:normal;text-transform:none;writing-mode:lr-tb;direction:ltr;text-orientation:mixed;dominant-baseline:auto;baseline-shift:baseline;text-anchor:start;white-space:normal;shape-padding:0;shape-margin:0;inline-size:0;clip-rule:nonzero;display:inline;overflow:visible;visibility:visible;isolation:auto;mix-blend-mode:normal;color-interpolation:sRGB;color-interpolation-filters:linearRGB;solid-color:#000000;solid-opacity:1;vector-effect:none;fill:#000000;fill-opacity:1;fill-rule:nonzero;stroke:none;stroke-width:6.08997;stroke-linecap:butt;stroke-linejoin:miter;stroke-miterlimit:4;stroke-dasharray:none;stroke-dashoffset:0;stroke-opacity:1;color-rendering:auto;image-rendering:auto;shape-rendering:auto;text-rendering:auto;enable-background:accumulate;stop-color:#000000;stop-opacity:1"
                   d="m -220.48833,-202.06297 c 0,16.10728 -102.64397,26.26993 -102.64397,41.16055 H 98.644333 c 0,-15.69386 -115.040778,-25.4667 -115.040778,-41.16055 l -205.097125,-0.1616 z"
                   id="path1053" />
                <path
                   style="color:#000000;font-style:normal;font-variant:normal;font-weight:normal;font-stretch:normal;font-size:medium;line-height:normal;font-family:sans-serif;font-variant-ligatures:normal;font-variant-position:normal;font-variant-caps:normal;font-variant-numeric:normal;font-variant-alternates:normal;font-variant-east-asian:normal;font-feature-settings:normal;font-variation-settings:normal;text-indent:0;text-align:start;text-decoration:none;text-decoration-line:none;text-decoration-style:solid;text-decoration-color:#000000;letter-spacing:normal;word-spacing:normal;text-transform:none;writing-mode:lr-tb;direction:ltr;text-orientation:mixed;dominant-baseline:auto;baseline-shift:baseline;text-anchor:start;white-space:normal;shape-padding:0;shape-margin:0;inline-size:0;clip-rule:nonzero;display:inline;overflow:visible;visibility:visible;isolation:auto;mix-blend-mode:normal;color-interpolation:sRGB;color-interpolation-filters:linearRGB;solid-color:#000000;solid-opacity:1;vector-effect:none;fill-opacity:1;fill-rule:nonzero;stroke:none;stroke-width:6.08997;stroke-linecap:butt;stroke-linejoin:miter;stroke-miterlimit:4;stroke-dasharray:none;stroke-dashoffset:0;stroke-opacity:1;color-rendering:auto;image-rendering:auto;shape-rendering:auto;text-rendering:auto;enable-background:accumulate;stop-color:#000000;stop-opacity:1"
                   d="m -221.49414,-202.26758 -0.006,0.084 h 0.006 v 0.002 h 0.006 l 0.95117,0.15234 c -0.0177,1.97901 -1.5988,3.87805 -4.38477,5.71289 -2.80163,1.84517 -6.80935,3.62105 -11.61914,5.34571 -9.61957,3.44931 -22.44887,6.69661 -35.27929,9.90429 -12.83042,3.20768 -25.6612,6.37633 -35.28711,9.67579 -4.81296,1.64972 -8.82514,3.3309 -11.63672,5.06835 -2.81158,1.73746 -4.42969,3.53439 -4.42969,5.41993 v 0.043 H 98.685547 v -0.043 c 0,-0.99374 -0.455591,-1.96173 -1.302735,-2.9043 -0.847143,-0.94257 -2.084877,-1.86235 -3.660156,-2.76367 -3.150557,-1.80264 -7.646997,-3.53215 -13.041015,-5.2168 -10.788037,-3.36929 -25.168731,-6.55299 -39.548829,-9.73633 -14.380097,-3.18333 -28.758906,-6.36693 -39.5410151,-9.73437 -5.3910548,-1.68372 -9.8827021,-3.41392 -13.0234379,-5.21094 -1.570367,-0.89851 -2.8026,-1.81367 -3.640625,-2.74609 -0.838024,-0.93243 -1.28125,-1.87967 -1.28125,-2.84766 v -0.043 z m 0.53711,0.0859 204.527342,0.16016 c 0.01255,0.97913 0.457667,1.93388 1.292969,2.86328 0.847143,0.94257 2.086831,1.8604 3.66211,2.76172 3.1505567,1.80263 7.6469971,3.5341 13.0410152,5.21875 10.7880368,3.36929 25.1687308,6.55299 39.5488278,9.73632 14.380098,3.18334 28.758906,6.36694 39.541016,9.73438 5.391055,1.68372 9.882702,3.41392 13.023438,5.21094 1.570367,0.89851 2.8026,1.81366 3.640624,2.74609 0.825499,0.91849 1.258446,1.85177 1.271485,2.80469 H -323.08008 c 0.0248,-1.82173 1.60118,-3.58694 4.38086,-5.30469 2.80176,-1.73139 6.80922,-3.41186 11.61914,-5.06055 9.61984,-3.29737 22.44873,-6.46806 35.2793,-9.67578 12.83057,-3.20772 25.66289,-6.45261 35.28906,-9.90429 4.81309,-1.72585 8.82501,-3.50367 11.63672,-5.35547 2.81171,-1.85181 4.42969,-3.78062 4.42969,-5.81641 v -0.0371 l -0.0371,-0.006 z"
                   id="path1055" />
              </g>
              <g
                 id="g1063"
                 style="opacity:1;stroke:none;stroke-width:6.08997;stroke-miterlimit:4;stroke-dasharray:none;stroke-opacity:1">
                <path
                   style="color:#000000;font-style:normal;font-variant:normal;font-weight:normal;font-stretch:normal;font-size:medium;line-height:normal;font-family:sans-serif;font-variant-ligatures:normal;font-variant-position:normal;font-variant-caps:normal;font-variant-numeric:normal;font-variant-alternates:normal;font-variant-east-asian:normal;font-feature-settings:normal;font-variation-settings:normal;text-indent:0;text-align:start;text-decoration:none;text-decoration-line:none;text-decoration-style:solid;text-decoration-color:#000000;letter-spacing:normal;word-spacing:normal;text-transform:none;writing-mode:lr-tb;direction:ltr;text-orientation:mixed;dominant-baseline:auto;baseline-shift:baseline;text-anchor:start;white-space:normal;shape-padding:0;shape-margin:0;inline-size:0;clip-rule:nonzero;display:inline;overflow:visible;visibility:visible;isolation:auto;mix-blend-mode:normal;color-interpolation:sRGB;color-interpolation-filters:linearRGB;solid-color:#000000;solid-opacity:1;vector-effect:none;fill:#ffff00;fill-opacity:1;fill-rule:nonzero;stroke:none;stroke-width:6.08997;stroke-linecap:butt;stroke-linejoin:miter;stroke-miterlimit:4;stroke-dasharray:none;stroke-dashoffset:0;stroke-opacity:1;color-rendering:auto;image-rendering:auto;shape-rendering:auto;text-rendering:auto;enable-background:accumulate;stop-color:#000000;stop-opacity:1"
                   d="m -220.48833,-227.3791 h 204.091876 v 25.31613 H -220.48833 Z"
                   id="path1059" />
                <path
                   style="color:#000000;font-style:normal;font-variant:normal;font-weight:normal;font-stretch:normal;font-size:medium;line-height:normal;font-family:sans-serif;font-variant-ligatures:normal;font-variant-position:normal;font-variant-caps:normal;font-variant-numeric:normal;font-variant-alternates:normal;font-variant-east-asian:normal;font-feature-settings:normal;font-variation-settings:normal;text-indent:0;text-align:start;text-decoration:none;text-decoration-line:none;text-decoration-style:solid;text-decoration-color:#000000;letter-spacing:normal;word-spacing:normal;text-transform:none;writing-mode:lr-tb;direction:ltr;text-orientation:mixed;dominant-baseline:auto;baseline-shift:baseline;text-anchor:start;white-space:normal;shape-padding:0;shape-margin:0;inline-size:0;clip-rule:nonzero;display:inline;overflow:visible;visibility:visible;isolation:auto;mix-blend-mode:normal;color-interpolation:sRGB;color-interpolation-filters:linearRGB;solid-color:#000000;solid-opacity:1;vector-effect:none;fill-opacity:1;fill-rule:nonzero;stroke:none;stroke-width:6.08997;stroke-linecap:butt;stroke-linejoin:miter;stroke-miterlimit:4;stroke-dasharray:none;stroke-dashoffset:0;stroke-opacity:1;color-rendering:auto;image-rendering:auto;shape-rendering:auto;text-rendering:auto;enable-background:accumulate;stop-color:#000000;stop-opacity:1"
                   d="m -220.51953,-227.41016 v 0.0312 25.34766 h 204.154296 v -25.37891 z m 0.0625,0.0625 h 204.029296 v 25.25391 H -220.45703 Z"
                   id="path1061" />
              </g>
              <g
                 id="g1069"
                 style="opacity:1;stroke:none;stroke-width:6.08997;stroke-miterlimit:4;stroke-dasharray:none;stroke-opacity:1">
                <path
                   style="color:#000000;font-style:normal;font-variant:normal;font-weight:normal;font-stretch:normal;font-size:medium;line-height:normal;font-family:sans-serif;font-variant-ligatures:normal;font-variant-position:normal;font-variant-caps:normal;font-variant-numeric:normal;font-variant-alternates:normal;font-variant-east-asian:normal;font-feature-settings:normal;font-variation-settings:normal;text-indent:0;text-align:start;text-decoration:none;text-decoration-line:none;text-decoration-style:solid;text-decoration-color:#000000;letter-spacing:normal;word-spacing:normal;text-transform:none;writing-mode:lr-tb;direction:ltr;text-orientation:mixed;dominant-baseline:auto;baseline-shift:baseline;text-anchor:start;white-space:normal;shape-padding:0;shape-margin:0;inline-size:0;clip-rule:nonzero;display:inline;overflow:visible;visibility:visible;isolation:auto;mix-blend-mode:normal;color-interpolation:sRGB;color-interpolation-filters:linearRGB;solid-color:#000000;solid-opacity:1;vector-effect:none;fill:#000000;fill-opacity:1;fill-rule:nonzero;stroke:none;stroke-width:6.08997;stroke-linecap:butt;stroke-linejoin:miter;stroke-miterlimit:4;stroke-dasharray:none;stroke-dashoffset:0;stroke-opacity:1;color-rendering:auto;image-rendering:auto;shape-rendering:auto;text-rendering:auto;enable-background:accumulate;stop-color:#000000;stop-opacity:1"
                   d="m -119.12269,-278.10781 c -77.45115,-13.85115 -93.32519,2.52309 -101.36552,50.72872 h 204.092058 c -9.451309,-45.94141 -25.924063,-53.3604 -42.063722,-52.80737 z"
                   id="path1065" />
                <path
                   style="color:#000000;font-style:normal;font-variant:normal;font-weight:normal;font-stretch:normal;font-size:medium;line-height:normal;font-family:sans-serif;font-variant-ligatures:normal;font-variant-position:normal;font-variant-caps:normal;font-variant-numeric:normal;font-variant-alternates:normal;font-variant-east-asian:normal;font-feature-settings:normal;font-variation-settings:normal;text-indent:0;text-align:start;text-decoration:none;text-decoration-line:none;text-decoration-style:solid;text-decoration-color:#000000;letter-spacing:normal;word-spacing:normal;text-transform:none;writing-mode:lr-tb;direction:ltr;text-orientation:mixed;dominant-baseline:auto;baseline-shift:baseline;text-anchor:start;white-space:normal;shape-padding:0;shape-margin:0;inline-size:0;clip-rule:nonzero;display:inline;overflow:visible;visibility:visible;isolation:auto;mix-blend-mode:normal;color-interpolation:sRGB;color-interpolation-filters:linearRGB;solid-color:#000000;solid-opacity:1;vector-effect:none;fill-opacity:1;fill-rule:nonzero;stroke:none;stroke-width:6.08997;stroke-linecap:butt;stroke-linejoin:miter;stroke-miterlimit:4;stroke-dasharray:none;stroke-dashoffset:0;stroke-opacity:1;color-rendering:auto;image-rendering:auto;shape-rendering:auto;text-rendering:auto;enable-background:accumulate;stop-color:#000000;stop-opacity:1"
                   d="m -166.50781,-282.86523 c -12.51219,0.34071 -22.01837,2.59631 -29.35742,6.79687 -14.67812,8.40113 -20.66254,24.57153 -24.6836,48.67969 l -0.0117,0.0703 h 204.240238 l -0.01563,-0.0723 c -4.726938,-22.97695 -11.2094,-36.32984 -18.539062,-43.8711 -7.329662,-7.54126 -15.507982,-9.26319 -23.587891,-8.98633 l -60.660155,2.07813 c -19.35946,-3.46169 -34.87523,-5.03596 -47.38476,-4.69531 z m 0.006,0.12304 c 12.49859,-0.34024 28.00876,1.23296 47.36914,4.69531 h 0.006 0.006 l 60.664059,-2.07812 c 8.059751,-0.27617 16.189684,1.43389 23.49414,8.94922 7.295942,7.50657 13.765334,20.82106 18.488282,43.73633 H -220.41211 c 4.01916,-24.05493 9.9912,-40.15578 24.60742,-48.52149 7.31589,-4.1873 16.80415,-6.441 29.30274,-6.78125 z"
                   id="path1067" />
              </g>
            </g>
          </g>
        </g>
      </g>
    </g>
  </g>
</svg>
