<?xml version="1.0" encoding="UTF-8" standalone="no"?>
<svg
   xmlns:dc="http://purl.org/dc/elements/1.1/"
   xmlns:cc="http://creativecommons.org/ns#"
   xmlns:rdf="http://www.w3.org/1999/02/22-rdf-syntax-ns#"
   xmlns:svg="http://www.w3.org/2000/svg"
   xmlns="http://www.w3.org/2000/svg"
   xmlns:sodipodi="http://sodipodi.sourceforge.net/DTD/sodipodi-0.dtd"
   xmlns:inkscape="http://www.inkscape.org/namespaces/inkscape"
   inkscape:version="1.0 (4035a4fb49, 2020-05-01)"
   sodipodi:docname="Geo Badu.svg"
   viewBox="0 0 793.70074 1122.5197"
   height="1122.5197"
   width="793.70074"
   xml:space="preserve"
   id="svg3211"
   version="1.1"><metadata
     id="metadata3217"><rdf:RDF><cc:Work
         rdf:about=""><dc:format>image/svg+xml</dc:format><dc:type
           rdf:resource="http://purl.org/dc/dcmitype/StillImage" /><dc:title></dc:title></cc:Work></rdf:RDF></metadata><defs
     id="defs3215" /><sodipodi:namedview
     inkscape:current-layer="g3219"
     inkscape:window-maximized="1"
     inkscape:window-y="-11"
     inkscape:window-x="-11"
     inkscape:cy="561.25983"
     inkscape:cx="396.85037"
     inkscape:zoom="0.65477695"
     showgrid="false"
     id="namedview3213"
     inkscape:window-height="1046"
     inkscape:window-width="1920"
     inkscape:pageshadow="2"
     inkscape:pageopacity="0"
     guidetolerance="10"
     gridtolerance="10"
     objecttolerance="10"
     borderopacity="1"
     bordercolor="#666666"
     pagecolor="#ffffff" /><g
     transform="matrix(1.3333333,0,0,1.3333333,0,3.3396326e-5)"
     inkscape:label="Geo Badu"
     inkscape:groupmode="layer"
     id="g3219"><g
       id="g3221"><g
         transform="scale(1,0.87931)"
         id="g3223"><path
           id="path3225"
           style="fill:#ffff00;fill-opacity:1;fill-rule:nonzero;stroke:#000000;stroke-width:0.10384;stroke-linecap:butt;stroke-linejoin:round;stroke-miterlimit:4;stroke-dasharray:none;stroke-opacity:1"
           d="M 90.488,321.661 V 545.816 H 226.641 V 321.661 Z m 6.942,27.938 h 122.535 l -0.262,168.794 H 97.168 Z" /></g><path
         id="path3227"
         style="fill:#000000;fill-opacity:1;fill-rule:nonzero;stroke:none"
         d="m 106.34,460.176 v -2.41 c 3.117,-0.215 5.609,-0.774 7.48,-1.676 1.868,-0.981 3.532,-2.465 4.985,-4.453 1.867,-2.231 3.011,-5.067 3.425,-8.496 0.625,-3.434 0.938,-8.758 0.938,-15.977 v -77.629 c 0,-7.219 -0.313,-12.543 -0.938,-15.976 -0.414,-3.434 -1.558,-6.266 -3.425,-8.5 -1.453,-2.043 -3.117,-3.528 -4.985,-4.454 -1.871,-0.898 -4.363,-1.457 -7.48,-1.675 v -2.41 h 62.312 c 5.403,0 8.934,0.07 10.594,0.207 6.024,0.625 11.113,2.519 15.266,5.675 3.324,2.809 5.922,6.485 7.789,11.036 2.078,4.574 3.117,9.695 3.117,15.359 0,9.18 -2.18,16.711 -6.543,22.598 -1.66,2.175 -3.426,4.003 -5.297,5.472 -2.074,1.418 -4.984,2.996 -8.723,4.742 5.192,1.114 9.243,2.34 12.153,3.676 2.699,1.336 5.191,3.199 7.476,5.598 3.532,3.621 6.231,8.172 8.102,13.644 1.867,5.395 2.801,11.25 2.801,17.571 0,6.375 -0.934,12.23 -2.801,17.57 -2.078,5.258 -4.777,9.492 -8.102,12.707 -3.324,2.887 -7.168,4.887 -11.527,6.004 -4.363,1.117 -10.492,1.676 -18.383,1.676 z m 31.156,-138.914 v 61.285 h 6.234 c 3.114,0 6.333,-0.285 9.657,-0.859 2.699,-0.571 4.984,-1.239 6.855,-2 1.66,-0.762 3.219,-1.813 4.672,-3.145 2.703,-2.672 4.777,-6.074 6.234,-10.215 1.454,-4.195 2.18,-8.812 2.18,-13.851 0,-5.34 -0.726,-10.391 -2.18,-15.161 -1.457,-4.847 -3.429,-8.593 -5.921,-11.234 -2.286,-2.316 -4.883,-3.894 -7.789,-4.742 -2.7,-0.844 -6.856,-1.266 -12.461,-1.266 z m 0,65.371 v 44.945 c 0,5.254 0.211,9.492 0.625,12.707 0.621,3.211 1.559,5.949 2.805,8.211 2.699,4.684 7.371,7.027 14.019,7.027 8.723,0 15.578,-3.078 20.563,-9.234 4.984,-6.184 7.476,-14.598 7.476,-25.25 0,-6.101 -0.828,-11.738 -2.492,-16.914 -1.453,-5.258 -3.531,-9.289 -6.23,-12.094 -4.778,-5.203 -12.254,-7.804 -22.434,-7.804 z" /><path
         id="path3229"
         style="fill:#000000;fill-opacity:1;fill-rule:nonzero;stroke:none"
         d="m 290.055,452.652 1.285,0.661 c -1.93,4.578 -6.426,6.863 -13.496,6.863 -4.071,0 -7.391,-0.762 -9.961,-2.285 -1.711,-1 -3.426,-2.746 -5.141,-5.239 -3.64,2.625 -6.426,4.356 -8.351,5.188 -3.645,1.558 -7.821,2.336 -12.532,2.336 -6,0 -10.816,-1.153 -14.461,-3.457 -3.64,-2.321 -5.46,-5.442 -5.46,-9.356 0,-3.629 1.5,-6.664 4.5,-9.105 1.71,-1.356 3.64,-2.422 5.781,-3.203 2.144,-0.832 5.25,-1.66 9.32,-2.492 4.711,-0.95 8.246,-1.754 10.602,-2.415 2.355,-0.66 4.285,-1.449 5.781,-2.367 1.715,-1 2.894,-2.176 3.535,-3.531 0.645,-1.34 0.965,-3.215 0.965,-5.621 0,-5.102 -1.18,-8.832 -3.535,-11.188 -1.071,-1.086 -2.461,-1.957 -4.176,-2.621 -1.715,-0.66 -3.535,-0.988 -5.461,-0.988 -2.359,0 -4.395,0.465 -6.105,1.398 -1.715,0.915 -3,2.176 -3.856,3.786 l -2.25,3.789 c -1.07,2.05 -3,3.078 -5.785,3.078 -1.926,0 -3.531,-0.485 -4.816,-1.449 -1.286,-1 -1.93,-2.239 -1.93,-3.711 0,-2.239 2.035,-4.121 6.105,-5.645 2.141,-0.781 4.711,-1.41 7.711,-1.883 3.215,-0.527 6.321,-0.789 9.317,-0.789 3.429,0 7.07,0.348 10.925,1.043 3.641,0.696 6.747,1.594 9.317,2.696 3.43,1.609 5.57,3.703 6.426,6.281 0.429,1.304 0.644,3.508 0.644,6.609 v 24.207 c 0,4.102 0.215,6.891 0.641,8.367 1.074,3.102 3.429,4.653 7.07,4.653 1.715,0 3,-0.239 3.856,-0.711 1.07,-0.492 2.25,-1.457 3.535,-2.899 z m -27.313,-25.429 c -2.996,1.968 -6.316,3.695 -9.961,5.187 -4.066,1.695 -6.851,2.977 -8.351,3.84 -1.5,0.883 -2.891,1.934 -4.176,3.152 -2.574,2.528 -3.859,5.469 -3.859,8.825 0,2.882 0.964,5.261 2.894,7.144 2.141,1.883 4.711,2.824 7.711,2.824 2.785,0 5.355,-0.664 7.711,-1.984 2.355,-1.34 4.176,-3.129 5.461,-5.367 1.715,-2.914 2.57,-7.145 2.57,-12.688 z" /><path
         id="path3231"
         style="fill:#000000;fill-opacity:1;fill-rule:nonzero;stroke:none"
         d="m 351.746,460.176 c -0.43,-2.133 -0.644,-4.399 -0.644,-6.789 -4.071,2.086 -7.926,3.586 -11.567,4.504 -3.64,0.914 -7.496,1.371 -11.566,1.371 -8.571,0 -15.746,-1.985 -21.528,-5.949 -3.855,-2.528 -6.855,-5.688 -8.996,-9.485 -1.929,-3.848 -2.894,-8.035 -2.894,-12.562 0,-4.797 1.074,-9.231 3.215,-13.297 2.14,-4.102 5.25,-7.5 9.316,-10.196 6.215,-4.187 13.711,-6.281 22.492,-6.281 4.071,0 7.606,0.473 10.606,1.422 2.996,0.969 6.531,2.715 10.601,5.238 v -24.257 c 0,-4.762 -1.07,-8.188 -3.215,-10.274 -1.925,-2.101 -5.14,-3.152 -9.636,-3.152 v -1.574 l 25.062,-2.543 v 76.281 c 0,4.914 1.071,8.426 3.211,10.527 1.93,2.086 5.141,3.129 9.641,3.129 v 1.652 z m -0.965,-30.512 c 0,-6.066 -0.32,-10.601 -0.965,-13.601 -0.855,-3.055 -2.14,-5.536 -3.855,-7.454 -1.285,-1.66 -3.211,-2.992 -5.781,-3.992 -2.571,-1.015 -5.141,-1.523 -7.715,-1.523 -5.996,0 -11.137,2.187 -15.422,6.558 -2.57,2.614 -4.605,5.731 -6.105,9.36 -1.497,3.609 -2.247,7.34 -2.247,11.187 0,3.746 0.75,7.434 2.247,11.059 1.285,3.578 3.109,6.656 5.464,9.23 4.286,4.442 9.426,6.664 15.422,6.664 2.785,0 5.461,-0.57 8.031,-1.703 2.571,-1.136 4.715,-2.703 6.426,-4.707 1.5,-2.101 2.68,-4.676 3.535,-7.726 0.645,-3.106 0.965,-7.555 0.965,-13.352 z" /><path
         id="path3233"
         style="fill:#000000;fill-opacity:1;fill-rule:nonzero;stroke:none"
         d="m 431.258,460.125 c -0.645,-2.625 -0.965,-5.312 -0.965,-8.059 -6.855,5.407 -14.992,8.11 -24.418,8.11 -6.855,0 -12.426,-1.328 -16.707,-3.992 -4.07,-2.61 -6.105,-6.313 -6.105,-11.11 v -27.742 c 0,-2.965 -0.215,-5.129 -0.645,-6.484 -0.426,-1.356 -1.285,-2.516 -2.57,-3.485 -1.5,-1.168 -4.391,-2.031 -8.676,-2.593 v -1.399 h 24.422 v 33.059 c 0,4.675 0.105,8.144 0.32,10.398 0.43,2.238 1.285,4.078 2.57,5.52 1.071,1.472 2.786,2.652 5.141,3.531 2.141,0.816 4.711,1.223 7.711,1.223 3,0 5.891,-0.477 8.676,-1.426 2.57,-0.965 4.605,-2.278 6.105,-3.942 1.711,-1.695 2.785,-3.652 3.211,-5.871 0.645,-2.222 0.965,-5.89 0.965,-11.011 v -12.817 l -0.32,-4.828 c 0,-2.969 -0.215,-5.129 -0.645,-6.484 -0.215,-1.36 -0.961,-2.52 -2.246,-3.485 -1.715,-1.172 -4.605,-2.035 -8.676,-2.593 v -1.399 h 24.098 v 35.598 c 0,4.492 0.215,7.652 0.641,9.484 0.214,1.797 0.75,3.254 1.609,4.375 1.07,1.219 2.246,2.117 3.531,2.695 1.285,0.524 3.215,0.856 5.785,0.993 v 1.297 z" /><path
         id="path3235"
         style="fill:#000000;fill-opacity:1;fill-rule:nonzero;stroke:none"
         d="m 452.27,310.523 c -13.063,0.661 -25.54,6.094 -31.188,12.704 -6.746,7.894 -9.301,19.066 -7.199,28.367 1.242,2.617 -4.481,6.847 -8.133,8.597 -5.633,2.707 -3.145,6.192 -2.043,9.215 0.844,2.309 0.336,0.574 2.106,6.703 1.808,6.258 3.14,8.911 5.753,11.95 4.747,5.523 12.797,10.058 21.301,10.859 20.629,1.945 38.324,-5.293 38.141,-15.762 l 1.465,82.676 c -0.067,4.234 6.554,7.672 14.847,7.707 l 2.739,0.008 c 8.289,0.035 15.015,-3.348 15.082,-7.582 0,0 -4.172,-59.301 2.504,-92.379 3.394,-16.809 5.32,-23.566 4.55,-31.109 -2.437,-23.872 -9.273,-30.868 -38.836,-32.532 0,0 -6.527,-0.547 -9.796,-0.472 -3.782,0.082 -11.293,1.05 -11.293,1.05 z" /><path
         id="path3237"
         style="fill:#552200;fill-opacity:1;fill-rule:nonzero;stroke:none"
         d="m 453.82,316.531 c -11.984,0.602 -23.429,5.586 -28.613,11.653 -6.187,7.238 -8.527,17.488 -6.602,26.019 1.137,2.399 -4.113,6.281 -7.46,7.891 -5.168,2.476 -2.883,5.676 -1.872,8.449 0.77,2.117 0.305,0.527 1.93,6.148 1.656,5.743 2.879,8.176 5.277,10.961 4.352,5.067 11.739,9.231 19.54,9.965 18.925,1.781 35.16,-4.855 34.988,-14.461 l 1.465,82.676 c -0.059,3.887 4.843,7.598 14.847,7.707 1.629,-0.016 3.258,0.063 4.887,-0.059 6.078,-0.328 12.746,-3.097 12.934,-7.515 0,0 -6.649,-61.246 -0.524,-91.59 3.113,-15.414 4.879,-21.617 4.172,-28.535 -2.234,-21.899 -8.508,-28.317 -35.625,-29.84 0,0 -5.988,-0.504 -8.984,-0.437 -3.469,0.078 -10.36,0.968 -10.36,0.968 z" /><path
         id="path3239"
         style="fill:#803300;fill-opacity:1;fill-rule:nonzero;stroke:none"
         d="m 455.633,323.43 c -10.719,0.539 -20.957,4.996 -25.594,10.422 -5.535,6.472 -7.625,15.644 -5.902,23.273 1.015,2.148 -3.68,5.617 -6.672,7.055 -4.625,2.218 -2.582,5.082 -1.68,7.558 0.692,1.895 0.278,0.473 1.731,5.504 1.48,5.133 2.574,7.309 4.718,9.805 3.895,4.531 10.5,8.254 17.477,8.91 16.926,1.594 31.449,-4.344 31.297,-12.934 l 1.308,73.95 c -0.328,9.218 -1.019,12.879 6.493,15.316 5.41,1.438 8.511,1.25 11.25,1.258 7.734,0.016 15.484,-3.34 15.082,-7.582 0,0 -9.551,-63.656 -4.071,-90.797 2.782,-13.789 4.364,-19.336 3.731,-25.523 -2,-19.586 -7.61,-25.329 -31.863,-26.692 0,0 -5.356,-0.449 -8.04,-0.387 -3.101,0.067 -9.265,0.864 -9.265,0.864 z" /><path
         id="path3241"
         style="fill:#000000;fill-opacity:1;fill-rule:nonzero;stroke:none"
         d="m 415.668,323.84 c 0.25,8.437 -44.219,19.734 -43.988,27.535 l 183.367,-24.551 c -0.242,-8.219 -50.406,-6.644 -50.649,-14.863 l -89.168,11.852 z" /><path
         id="path3243"
         style="fill:#000000;fill-opacity:1;fill-rule:nonzero;stroke:none"
         d="m 415.227,323.789 v 0.047 h 0.003 l 0.418,0.023 c 0.024,1.039 -0.636,2.125 -1.82,3.246 -1.187,1.133 -2.902,2.297 -4.969,3.477 -4.129,2.367 -9.656,4.816 -15.183,7.242 -5.528,2.43 -11.059,4.836 -15.192,7.125 -2.066,1.141 -3.785,2.258 -4.98,3.332 -1.195,1.071 -1.871,2.11 -1.844,3.094 v 0.023 l 183.403,-24.554 v -0.024 c -0.016,-0.519 -0.227,-1 -0.61,-1.445 -0.383,-0.441 -0.937,-0.852 -1.633,-1.234 -1.398,-0.758 -3.379,-1.403 -5.75,-1.973 -4.742,-1.137 -11.047,-1.969 -17.347,-2.797 -6.301,-0.832 -12.598,-1.66 -17.34,-2.797 -2.367,-0.57 -4.348,-1.215 -5.742,-1.972 -0.696,-0.379 -1.246,-0.786 -1.625,-1.227 -0.379,-0.441 -0.586,-0.91 -0.602,-1.418 v -0.023 z m 0.234,0.016 88.922,-11.821 c 0.019,0.512 0.23,0.985 0.605,1.426 0.383,0.442 0.938,0.852 1.637,1.231 1.398,0.761 3.379,1.406 5.75,1.976 4.742,1.137 11.043,1.965 17.344,2.797 6.301,0.832 12.601,1.66 17.34,2.797 2.371,0.57 4.347,1.215 5.742,1.973 0.695,0.379 1.246,0.785 1.625,1.226 0.375,0.434 0.574,0.899 0.597,1.395 l -183.324,24.543 c -0.015,-0.953 0.641,-1.973 1.824,-3.032 1.192,-1.07 2.907,-2.183 4.973,-3.328 4.133,-2.289 9.66,-4.695 15.188,-7.121 5.531,-2.429 11.058,-4.875 15.191,-7.242 2.066,-1.184 3.781,-2.352 4.977,-3.484 1.191,-1.133 1.867,-2.239 1.836,-3.305 v -0.02 h -0.016 z" /><path
         id="path3245"
         style="fill:#ffff00;fill-opacity:1;fill-rule:nonzero;stroke:none"
         d="m 415.277,310.578 88.731,-11.879 0.39,13.262 -88.73,11.879 z" /><path
         id="path3247"
         style="fill:#000000;fill-opacity:1;fill-rule:nonzero;stroke:none"
         d="m 415.266,310.563 v 0.019 l 0.39,13.277 88.754,-11.882 -0.39,-13.297 z m 0.027,0.031 88.699,-11.875 0.391,13.226 -88.703,11.875 z" /><path
         id="path3249"
         style="fill:#000000;fill-opacity:1;fill-rule:nonzero;stroke:none"
         d="m 458.566,278.105 c -33.886,-2.746 -40.535,6.754 -43.289,32.473 l 88.731,-11.879 c -4.817,-23.515 -12.094,-26.441 -19.102,-25.211 z" /><path
         id="path3251"
         style="fill:#000000;fill-opacity:1;fill-rule:nonzero;stroke:none"
         d="m 437.891,278.371 c -5.434,0.906 -9.532,2.641 -12.657,5.27 -6.254,5.254 -8.605,14.074 -9.984,26.937 l -0.004,0.035 88.793,-11.886 -0.008,-0.036 c -2.406,-11.761 -5.429,-18.378 -8.734,-21.902 -3.301,-3.523 -6.883,-3.949 -10.395,-3.336 l -26.339,4.621 c -8.469,-0.687 -15.239,-0.609 -20.672,0.297 z m 0.004,0.067 c 5.429,-0.907 12.195,-0.985 20.668,-0.301 h 0.003 l 26.344,-4.617 c 3.496,-0.614 7.059,-0.192 10.352,3.32 3.285,3.508 6.304,10.105 8.711,21.832 l -88.664,11.871 c 1.379,-12.836 3.726,-21.617 9.953,-26.848 3.113,-2.621 7.207,-4.351 12.633,-5.257 z" /></g></g></svg>
