<?xml version="1.0" encoding="UTF-8" standalone="no"?>
<svg
   xmlns:dc="http://purl.org/dc/elements/1.1/"
   xmlns:cc="http://creativecommons.org/ns#"
   xmlns:rdf="http://www.w3.org/1999/02/22-rdf-syntax-ns#"
   xmlns:svg="http://www.w3.org/2000/svg"
   xmlns="http://www.w3.org/2000/svg"
   xmlns:sodipodi="http://sodipodi.sourceforge.net/DTD/sodipodi-0.dtd"
   xmlns:inkscape="http://www.inkscape.org/namespaces/inkscape"
   sodipodi:docname="Halo Badu.svg"
   inkscape:version="1.0 (4035a4fb49, 2020-05-01)"
   id="svg2140"
   version="1.1"
   viewBox="0 0 210 297"
   height="297mm"
   width="210mm">
  <defs
     id="defs2134">
    <rect
       x="-279.4637"
       y="97.052248"
       width="144.99372"
       height="56.126601"
       id="rect6394" />
  </defs>
  <sodipodi:namedview
     inkscape:window-maximized="1"
     inkscape:window-y="-11"
     inkscape:window-x="-11"
     inkscape:window-height="1046"
     inkscape:window-width="1920"
     showborder="true"
     inkscape:showpageshadow="true"
     showgrid="false"
     inkscape:document-rotation="0"
     inkscape:current-layer="layer1"
     inkscape:document-units="px"
     inkscape:cy="560"
     inkscape:cx="367.61229"
     inkscape:zoom="0.64"
     inkscape:pageshadow="2"
     inkscape:pageopacity="0.0"
     borderopacity="1.0"
     bordercolor="#666666"
     pagecolor="#ffffff"
     id="base"
     inkscape:snap-global="true"
     inkscape:object-paths="true"
     inkscape:snap-intersection-paths="true"
     inkscape:snap-smooth-nodes="true" />
  <metadata
     id="metadata2137">
    <rdf:RDF>
      <cc:Work
         rdf:about="">
        <dc:format>image/svg+xml</dc:format>
        <dc:type
           rdf:resource="http://purl.org/dc/dcmitype/StillImage" />
        <dc:title></dc:title>
      </cc:Work>
    </rdf:RDF>
  </metadata>
  <g
     id="layer1"
     inkscape:groupmode="layer"
     inkscape:label="Layer 1">
    <path
       style="fill:#ffff00;stroke-width:40.1047;stroke-linejoin:round"
       d="M 99.518462,29.765625 A 97.565098,97.97852 0 0 0 2.0706758,126.91732 H 30.24208 a 69.394892,70.09232 0 0 1 69.267096,-69.265544 69.394892,70.09232 0 0 1 0.122978,0 69.394892,70.09232 0 0 1 69.390076,69.265544 h 28.1714 a 97.565098,97.97852 0 0 0 -97.561476,-97.151695 97.565098,97.97852 0 0 0 -0.113692,0 z"
       id="path6285" />
    <g
       id="g6565">
      <g
         transform="matrix(0.19754575,0,0,0.1203236,-220.50232,-62.271477)"
         id="g1874"
         style="stroke:none;stroke-width:6.08997;stroke-miterlimit:4;stroke-dasharray:none;stroke-opacity:1">
        <g
           id="g1872"
           transform="matrix(1.4433,0,0,1.4114247,-857.64715,161.34725)">
          <path
             id="path1866"
             style="fill:#000000;fill-opacity:1;stroke:none;stroke-width:12.7871;stroke-miterlimit:4;stroke-dasharray:none;stroke-opacity:1"
             d="m 1669.4485,657.98979 c -47.0058,3.59628 -91.9044,33.279 -112.2364,69.39128 -24.2751,43.11567 -33.4567,104.16881 -25.9006,154.97791 4.4654,14.28553 -16.1273,37.40193 -29.2625,46.97191 -20.2721,14.76961 -11.3134,33.82361 -7.3497,50.32894 3.0266,12.60371 1.2043,3.1428 7.5736,36.62707 6.5033,34.1885 11.3013,48.6773 20.7,65.278 17.0801,30.1683 46.0554,54.9566 76.652,59.3305 74.235,10.6123 137.9159,-28.9167 137.2484,-86.1213 l 5.271,451.6764 c -0.2328,23.1355 23.5933,41.9072 53.4238,42.0887 l 9.8558,0.061 c 29.831,0.1817 54.0356,-18.299 54.2696,-41.435 0,0 -15.0112,-323.961 9.0225,-504.677 12.2101,-91.81085 19.1396,-128.74577 16.3682,-169.95178 -8.7706,-130.40535 -33.3713,-168.62688 -139.7455,-177.71129 0,0 -23.4902,-2.98674 -35.2541,-2.58823 -13.6096,0.46108 -40.6361,5.75267 -40.6361,5.75267 z"
             sodipodi:nodetypes="cscssssscccccsssac" />
          <path
             sodipodi:nodetypes="cscssssscccccsssacc"
             d="m 1675.023,690.79426 c -43.1197,3.29906 -84.3062,30.52769 -102.9573,63.65446 -22.268,39.55077 -30.6906,95.55642 -23.7592,142.16477 4.0962,13.10486 -14.794,34.30976 -26.8433,43.08879 -18.5959,13.5483 -10.378,31.02689 -6.742,46.16769 2.7765,11.56172 1.1048,2.88291 6.9475,33.59893 5.9656,31.3619 10.3669,44.6529 18.9886,59.8812 15.668,27.6739 42.2478,50.4128 70.3147,54.4252 68.0975,9.7349 126.5136,-26.526 125.9013,-79.0013 l 5.271,451.6765 c -0.2136,21.2227 17.4375,41.497 53.4238,42.0887 5.8653,-0.072 11.7312,0.3518 17.5958,-0.3156 21.8706,-1.7938 45.8556,-16.9177 46.5296,-41.0582 0,0 -23.9244,-334.5791 -1.8777,-500.3542 11.2005,-84.22033 17.5572,-118.10151 15.0149,-155.9009 -8.0454,-119.62387 -30.6122,-154.68561 -128.1919,-163.01904 0,0 -21.5482,-2.73966 -32.3395,-2.37399 -12.4844,0.42293 -37.2763,5.27692 -37.2763,5.27692 z"
             style="fill:#552200;fill-opacity:1;stroke:none;stroke-width:12.7871;stroke-miterlimit:4;stroke-dasharray:none;stroke-opacity:1"
             id="path1868" />
          <path
             id="path1870"
             style="fill:#803300;fill-opacity:1;stroke:none;stroke-width:12.7871;stroke-miterlimit:4;stroke-dasharray:none;stroke-opacity:1"
             d="m 1681.547,728.48178 c -38.5683,2.95083 -75.4076,27.3055 -92.09,56.9357 -19.9177,35.37618 -27.4512,85.47036 -21.2514,127.15915 3.6638,11.72166 -13.2324,30.68835 -24.0099,38.54074 -16.6332,12.11828 -9.2826,27.75202 -6.0304,41.29467 2.4834,10.34136 0.9882,2.57864 6.2141,30.05256 5.3359,28.0516 9.2727,39.9397 16.9843,53.5607 14.0143,24.7529 37.7886,45.0917 62.893,48.6806 60.9097,8.7073 113.16,-23.7263 112.6123,-70.6627 l 4.7147,404.0017 c -1.1766,50.3664 -3.6708,70.3658 23.3546,83.668 19.4763,7.8603 30.6298,6.8263 40.4856,6.8875 27.8355,0.074 55.7185,-18.2576 54.2696,-41.435 0,0 -34.3672,-347.745 -14.6476,-496.0225 10.0184,-75.33081 15.7041,-105.63579 13.4302,-139.44541 -7.1963,-106.99752 -27.3812,-138.35846 -114.6613,-145.81229 0,0 -19.2737,-2.4505 -28.926,-2.12342 -11.1667,0.37829 -33.3418,4.71996 -33.3418,4.71996 z"
             sodipodi:nodetypes="cscssssscccccsssacc" />
        </g>
      </g>
      <path
         style="color:#000000;font-style:normal;font-variant:normal;font-weight:normal;font-stretch:normal;font-size:medium;line-height:normal;font-family:sans-serif;font-variant-ligatures:normal;font-variant-position:normal;font-variant-caps:normal;font-variant-numeric:normal;font-variant-alternates:normal;font-variant-east-asian:normal;font-feature-settings:normal;font-variation-settings:normal;text-indent:0;text-align:start;text-decoration:none;text-decoration-line:none;text-decoration-style:solid;text-decoration-color:#000000;letter-spacing:normal;word-spacing:normal;text-transform:none;writing-mode:lr-tb;direction:ltr;text-orientation:mixed;dominant-baseline:auto;baseline-shift:baseline;text-anchor:start;white-space:normal;shape-padding:0;shape-margin:0;inline-size:0;clip-rule:nonzero;display:inline;overflow:visible;visibility:visible;isolation:auto;mix-blend-mode:normal;color-interpolation:sRGB;color-interpolation-filters:linearRGB;solid-color:#000000;solid-opacity:1;vector-effect:none;fill:#000000;fill-opacity:1;fill-rule:nonzero;stroke:none;stroke-width:2.99791;stroke-linecap:butt;stroke-linejoin:miter;stroke-miterlimit:4;stroke-dasharray:none;stroke-dashoffset:0;stroke-opacity:1;color-rendering:auto;image-rendering:auto;shape-rendering:auto;text-rendering:auto;enable-background:accumulate;stop-color:#000000"
         d="m 23.690591,13.093139 c -36.699331,-2.688806 -43.900405,6.609608 -46.881554,31.779973 l 95.9404,-11.314831 C 56.570156,21.945763 59.809356,7.3690618 52.219176,8.5719448 Z"
         id="path1888"
         sodipodi:nodetypes="cccsc" />
      <g
         id="g1886"
         style="fill:#ffff00;fill-opacity:1;stroke:#000000;stroke-width:0.252934;stroke-miterlimit:4;stroke-dasharray:none;stroke-opacity:1"
         transform="matrix(0.47085321,-0.0569638,0.01669237,0.51264463,155.55226,175.09814)">
        <path
           style="color:#000000;font-style:normal;font-variant:normal;font-weight:normal;font-stretch:normal;font-size:medium;line-height:normal;font-family:sans-serif;font-variant-ligatures:normal;font-variant-position:normal;font-variant-caps:normal;font-variant-numeric:normal;font-variant-alternates:normal;font-variant-east-asian:normal;font-feature-settings:normal;font-variation-settings:normal;text-indent:0;text-align:start;text-decoration:none;text-decoration-line:none;text-decoration-style:solid;text-decoration-color:#000000;letter-spacing:normal;word-spacing:normal;text-transform:none;writing-mode:lr-tb;direction:ltr;text-orientation:mixed;dominant-baseline:auto;baseline-shift:baseline;text-anchor:start;white-space:normal;shape-padding:0;shape-margin:0;inline-size:0;clip-rule:nonzero;display:inline;overflow:visible;visibility:visible;isolation:auto;mix-blend-mode:normal;color-interpolation:sRGB;color-interpolation-filters:linearRGB;solid-color:#000000;solid-opacity:1;vector-effect:none;fill:#ffff00;fill-opacity:1;fill-rule:nonzero;stroke:#000000;stroke-width:0.252934;stroke-linecap:butt;stroke-linejoin:miter;stroke-miterlimit:4;stroke-dasharray:none;stroke-dashoffset:0;stroke-opacity:1;color-rendering:auto;image-rendering:auto;shape-rendering:auto;text-rendering:auto;enable-background:accumulate;stop-color:#000000;stop-opacity:1"
           d="m -220.48833,-227.3791 203.738508,0.56743 0.322088,24.70611 -204.060596,0.0425 z"
           id="path1882"
           sodipodi:nodetypes="ccccc" />
        <path
           style="color:#000000;font-style:normal;font-variant:normal;font-weight:normal;font-stretch:normal;font-size:medium;line-height:normal;font-family:sans-serif;font-variant-ligatures:normal;font-variant-position:normal;font-variant-caps:normal;font-variant-numeric:normal;font-variant-alternates:normal;font-variant-east-asian:normal;font-feature-settings:normal;font-variation-settings:normal;text-indent:0;text-align:start;text-decoration:none;text-decoration-line:none;text-decoration-style:solid;text-decoration-color:#000000;letter-spacing:normal;word-spacing:normal;text-transform:none;writing-mode:lr-tb;direction:ltr;text-orientation:mixed;dominant-baseline:auto;baseline-shift:baseline;text-anchor:start;white-space:normal;shape-padding:0;shape-margin:0;inline-size:0;clip-rule:nonzero;display:inline;overflow:visible;visibility:visible;isolation:auto;mix-blend-mode:normal;color-interpolation:sRGB;color-interpolation-filters:linearRGB;solid-color:#000000;solid-opacity:1;vector-effect:none;fill:#ffff00;fill-opacity:1;fill-rule:nonzero;stroke:#000000;stroke-width:0.252934;stroke-linecap:butt;stroke-linejoin:miter;stroke-miterlimit:4;stroke-dasharray:none;stroke-dashoffset:0;stroke-opacity:1;color-rendering:auto;image-rendering:auto;shape-rendering:auto;text-rendering:auto;enable-background:accumulate;stop-color:#000000;stop-opacity:1"
           d="m -220.51953,-227.41016 v 0.0312 25.34766 l 203.878665,0.62778 -0.108957,-25.40815 z m 0.0625,0.0625 203.707208,0.53599 0.322088,24.71793 H -220.45703 Z"
           id="path1884"
           sodipodi:nodetypes="ccccccccccc" />
      </g>
      <g
         id="g1880"
         style="stroke:none;stroke-width:6.08997;stroke-miterlimit:4;stroke-dasharray:none;stroke-opacity:1"
         transform="matrix(0.47085321,-0.0569638,0.01669237,0.51264463,155.55226,175.09814)">
        <path
           style="color:#000000;font-style:normal;font-variant:normal;font-weight:normal;font-stretch:normal;font-size:medium;line-height:normal;font-family:sans-serif;font-variant-ligatures:normal;font-variant-position:normal;font-variant-caps:normal;font-variant-numeric:normal;font-variant-alternates:normal;font-variant-east-asian:normal;font-feature-settings:normal;font-variation-settings:normal;text-indent:0;text-align:start;text-decoration:none;text-decoration-line:none;text-decoration-style:solid;text-decoration-color:#000000;letter-spacing:normal;word-spacing:normal;text-transform:none;writing-mode:lr-tb;direction:ltr;text-orientation:mixed;dominant-baseline:auto;baseline-shift:baseline;text-anchor:start;white-space:normal;shape-padding:0;shape-margin:0;inline-size:0;clip-rule:nonzero;display:inline;overflow:visible;visibility:visible;isolation:auto;mix-blend-mode:normal;color-interpolation:sRGB;color-interpolation-filters:linearRGB;solid-color:#000000;solid-opacity:1;vector-effect:none;fill:#000000;fill-opacity:1;fill-rule:nonzero;stroke:none;stroke-width:6.08997;stroke-linecap:butt;stroke-linejoin:miter;stroke-miterlimit:4;stroke-dasharray:none;stroke-dashoffset:0;stroke-opacity:1;color-rendering:auto;image-rendering:auto;shape-rendering:auto;text-rendering:auto;enable-background:accumulate;stop-color:#000000;stop-opacity:1"
           d="m -220.48833,-202.06297 c 1.06854,16.63354 -99.86806,27.43605 -102.64397,41.16055 H 98.644335 c -4.021286,-20.8913 -89.5504856,-18.83028 -115.072069,-41.20308 -50.132929,0.0838 -175.867406,0.0742 -204.060596,0.0425 z"
           id="path1876"
           sodipodi:nodetypes="cccccc" />
      </g>
      <path
         style="color:#000000;font-style:normal;font-variant:normal;font-weight:normal;font-stretch:normal;font-size:medium;line-height:normal;font-family:sans-serif;font-variant-ligatures:normal;font-variant-position:normal;font-variant-caps:normal;font-variant-numeric:normal;font-variant-alternates:normal;font-variant-east-asian:normal;font-feature-settings:normal;font-variation-settings:normal;text-indent:0;text-align:start;text-decoration:none;text-decoration-line:none;text-decoration-style:solid;text-decoration-color:#000000;letter-spacing:normal;word-spacing:normal;text-transform:none;writing-mode:lr-tb;direction:ltr;text-orientation:mixed;dominant-baseline:auto;baseline-shift:baseline;text-anchor:start;white-space:normal;shape-padding:0;shape-margin:0;inline-size:0;clip-rule:nonzero;display:inline;overflow:visible;visibility:visible;isolation:auto;mix-blend-mode:normal;color-interpolation:sRGB;color-interpolation-filters:linearRGB;solid-color:#000000;solid-opacity:1;vector-effect:none;fill-opacity:1;fill-rule:nonzero;stroke:none;stroke-width:2.99792;stroke-linecap:butt;stroke-linejoin:miter;stroke-miterlimit:4;stroke-dasharray:none;stroke-dashoffset:0;stroke-opacity:1;color-rendering:auto;image-rendering:auto;shape-rendering:auto;text-rendering:auto;enable-background:accumulate;stop-color:#000000"
         d="m 72.429832,39.573716 c -5.885717,0.887405 -10.324082,2.585235 -13.709579,5.15669 -6.771006,5.142915 -9.318867,13.773479 -10.809773,26.361453 l -0.0043,0.0367 96.16718,-11.6343 -0.009,-0.03617 C 141.45513,47.948344 138.17995,41.472322 134.60287,38.023861 131.02579,34.5754 127.14626,34.15853 123.34643,34.760723 L 94.819483,39.281499 C 85.646235,38.609671 78.314307,38.686467 72.429841,39.57369 Z m 0.0049,0.06273 c 5.879322,-0.886389 13.208596,-0.963415 22.382288,-0.2913 l 0.0028,-3.42e-4 0.0028,-3.42e-4 28.52918,-4.520992 c 3.79035,-0.600691 7.6469,-0.18715 11.21167,3.249454 31.76129,39.73492 -83.685386,-39.5792623 -86.589492,32.985111 1.490901,-12.560578 4.034093,-21.154782 10.776544,-26.276014 3.374814,-2.563338 7.804772,-4.259172 13.684094,-5.145567 z"
         id="path1890"
         sodipodi:nodetypes="csscccsccccsccccccsss" />
    </g>
    <path
       style="fill:#ffff00;stroke-width:40.1047;stroke-linejoin:round"
       d="m 2.0706758,126.91732 c 0.4520072,53.78745 43.9990772,98.80525 97.5614782,98.80533 53.562396,-8e-5 97.109466,-45.01788 97.561476,-98.80533 h -28.1714 c -0.44831,38.38576 -31.38361,70.91919 -69.390076,70.91918 -38.006461,1e-5 -68.941766,-32.53342 -69.390074,-70.91918 z"
       id="path6299"
       sodipodi:nodetypes="ccccscc" />
    <g
       id="g6571">
      <path
         d="m 29.261298,143.42651 0.831222,0.0908 q 0.380679,0.0305 1.246771,0.4841 l 1.281447,-0.24205 0.62316,0.66563 h 0.79661 v 0.30259 l 0.62316,-0.30259 h 0.346129 l 0.138838,0.54463 0.658157,-0.12103 0.138834,0.45383 2.770638,0.12101 v 0.24206 l -0.484967,0.42359 0.484967,0.3328 0.138834,-0.57491 h 1.142868 l 1.904863,-0.42358 1.974024,0.54462 -0.484963,0.12101 3.047667,0.5749 -0.34613,0.72615 4.398403,1.24051 0.138837,0.4538 q 1.108316,0.0605 2.424377,0.54463 l 0.623159,-0.12101 0.34613,0.54462 q 1.593157,0.0908 3.047732,0.57489 l 0.796609,-0.30258 1.281384,0.30258 0.623161,0.87743 h 0.658093 l 0.207294,0.78665 0.761805,0.57489 0.138835,0.84718 h -0.484965 l -0.796545,1.42204 -2.043379,1.57331 -1.142868,1.2405 h -0.484966 q -0.24248,0.30258 -1.281446,1.42204 l -0.727255,0.15129 q -0.415867,0.0908 -0.727257,0.33279 l -0.796545,0.60513 -0.172744,0.45381 h -0.484964 q -1.4199,1.63384 -2.424315,1.78511 l -0.138836,0.36307 -0.485604,-0.12102 -0.484967,0.87742 4.259887,1.36154 3.394055,0.57484 4.121306,1.14973 0.900386,0.57495 0.796609,0.1212 q 0.346128,0.0603 1.627703,0.87742 v 0.1815 l 1.627768,-0.1815 1.281383,0.42331 0.623162,-0.12119 q 0.207293,0.51463 1.489125,2.11795 l 1.14293,0.12121 0.276392,0.30269 h 1.489125 l 0.658158,0.9985 -0.658158,0.54451 0.658158,0.57496 h 0.623161 l 0.658158,0.36299 q -0.450418,1.30103 -0.96974,1.78512 -0.519515,0.4842 -1.177543,0.93795 l -0.138836,0.36302 q -1.766284,0.87743 -2.008702,1.0287 l -0.554062,0.45377 q -0.34677,0.27224 -1.108255,1.51278 l -0.865836,-0.15105 -0.138835,0.57496 -0.658159,0.12119 -0.276391,0.54451 -1.108254,0.21195 -2.285736,1.21026 h -0.796544 l -0.484964,0.15107 -0.207294,0.42391 h -0.41587 l -0.207293,0.42389 -1.07364,0.57494 -0.519514,0.42391 -0.969674,0.2418 -0.761997,0.51408 q -0.380679,0.2418 -1.142867,0.363 l -0.865772,0.87741 -1.558543,0.24181 -3.393924,1.42205 -6.268654,1.78511 -1.350608,0.57495 -0.761934,-0.1212 -1.14293,0.54452 -1.731607,0.363 q -0.311582,0.0603 -1.315995,0.63538 h -1.281512 l -2.112542,1.422 -1.142931,0.12119 q -0.831221,0.5445 -1.281382,1.24054 l -1.142931,0.3027 -0.761868,-0.12119 -1.766284,0.81693 -1.800897,-0.1212 -0.761998,-0.69592 0.484966,-1.42205 1.281383,-0.99843 -0.346129,-1.42204 0.831158,-1.11947 0.103655,-0.57495 q 0.0691,-0.21197 0.831094,-1.63382 l -0.484967,-0.99849 0.484967,-0.45377 -0.276391,-0.96817 0.761996,-0.9985 0.380678,-0.12121 v -0.81688 q 0.831223,-0.42389 1.281382,-0.87742 l -0.24248,-0.66564 0.727254,-0.1815 -0.207293,-0.81688 0.623159,-0.42389 v -0.87742 l 0.484966,-1.11947 0.172746,-1.54307 0.969674,-4.44764 -0.346129,-0.45377 0.346129,-0.84714 -0.623162,-0.69592 1.281384,-0.87741 -1.004287,-0.24181 -0.276393,-1.8456 0.484966,-0.45376 -0.623161,-0.96817 q 0.415866,-0.42359 0.761869,-1.81469 l 1.142995,-0.66564 0.276392,-0.87744 -0.138836,-0.42358 1.004351,-1.11949 -1.142932,-1.42203 1.004351,-1.11948 -0.86577,-0.99845 v -0.54484 l 0.658028,-0.87743 v -0.93836 l 0.623163,-0.4236 0.207293,-1.66408 -0.484965,-0.3328 v -1.42204 l 0.138835,-0.54463 -0.658158,-0.99846 -2.90915,-0.24203 -4.294436,0.24203 -0.311581,-1.11946 -0.96974,0.33279 -0.519512,0.54463 -0.761871,-0.42359 -0.658156,-1.24052 0.138834,-0.4538 0.65816,0.121 1.766284,-2.39022 z m 13.645371,8.744 -1.004351,0.87743 -0.277033,0.66564 -0.554061,0.66562 q -0.311582,0.42362 -0.311582,1.33128 v 0.66564 l -1.038964,1.42203 0.276393,1.2405 -0.796547,0.33279 q -0.172746,1.69435 -0.623161,3.08612 0.865772,0.24205 1.142868,0.54463 l 2.043315,-1.30101 q 0.865835,-0.30258 2.147218,-0.90767 l 1.246834,-0.63539 2.285733,-0.66563 0.415868,-0.57491 1.142867,-0.12101 2.11267,-1.17999 1.281382,-0.36307 h 0.276391 l 1.004417,-0.75639 0.138834,-1.08922 -0.623159,0.121 -1.142932,-0.69587 -0.658094,-0.30259 -0.484965,-0.57489 -2.043379,-0.90769 -1.142868,0.12102 -1.904735,-0.57489 z m -2.424315,17.1552 h -0.485605 v 0.57496 h -0.519514 l -0.761933,0.54451 -1.004351,-0.1212 -0.415867,1.54307 0.761869,5.89995 -1.246769,1.66409 -0.380679,1.30102 0.380679,0.57497 -1.004353,2.08769 v 1.24046 q -0.484965,0.81697 -1.142802,1.11948 l 0.484965,0.87742 h -0.623161 l 0.138835,1.96667 0.658094,0.45376 0.83116,-0.21195 0.415866,-0.24181 0.935062,-0.0603 q 0.415867,-0.0603 1.212221,-0.48421 l 1.419898,0.12119 2.251186,-0.87741 0.658092,0.18149 1.489191,-0.8472 2.562829,-0.69585 q 1.17748,-0.51407 1.246769,-0.72614 l 1.801025,0.3027 0.484967,-0.69586 1.385347,-0.24181 q 0.242484,-0.0603 1.177481,-0.60516 h 0.62316 l 0.865772,-0.45375 v -0.4239 h 1.108254 l 1.939541,-1.24048 4.675436,-1.66409 1.419899,-1.30102 2.562829,-1.11948 0.831157,-1.11946 -1.00435,-1.54307 -1.38535,-0.45375 -1.800896,-1.08921 -0.969675,-0.99843 q -1.523866,-0.51464 -1.627768,-0.69592 l -1.073641,0.45376 -1.627641,-0.87743 -0.380678,-0.0293 -0.380679,-0.0293 -0.485604,-0.0293 q -0.242484,-0.0293 -0.554064,-0.1815 l -0.831159,-0.4239 -1.558542,0.15106 -2.632119,-0.57495 -0.415867,-0.3027 h -0.519514 l -0.485606,-0.57496 -1.281446,0.33257 -0.138836,0.2418 h -0.969738 l -0.658095,-0.2418 -0.484964,0.5445 -0.658031,-0.4233 -1.108317,0.12119 -0.658158,-0.42391 -0.138836,0.30272 -1.489251,-0.30272 -1.142868,0.18152 z"
         style="font-style:normal;font-variant:normal;font-weight:normal;font-stretch:normal;font-size:10.5833px;line-height:1.25;font-family:'Viner Hand ITC';-inkscape-font-specification:'Viner Hand ITC, Normal';font-variant-ligatures:normal;font-variant-caps:normal;font-variant-numeric:normal;font-variant-east-asian:normal;letter-spacing:0px;word-spacing:0px;white-space:pre;fill:#000000;fill-opacity:1;stroke:none;stroke-width:6.26407"
         id="path6398" />
      <path
         d="m 92.43838,167.03102 q 0.194971,-0.0446 1.08543,0.0446 0.890676,0.0896 1.141177,0.31347 l 0.946311,-0.17914 0.528901,0.0446 0.389944,0.60459 -0.05548,0.44785 q -0.556639,0.35827 -0.751448,0.78372 h -0.278453 l -0.305923,0.26867 q -0.138958,0.11181 -1.168967,0.38047 l -0.05548,4.16487 0.445419,2.14965 0.05548,2.2168 0.417412,2.70937 1.753451,3.85143 q 0.473426,0.4255 0.640179,0.67174 1.391621,-0.62695 1.753448,-0.62695 1.141109,-1.05243 1.475109,-1.09721 v -0.24591 l 3.14506,-2.14964 0.0556,-0.40277 q 0.30592,-0.0426 1.19682,-0.87325 l 1.02979,0.1791 0.55664,1.00761 -0.22244,0.87329 -0.55664,-0.1791 -0.27845,0.49259 h -0.5289 q -0.30592,0.67179 -0.91847,1.09723 v 0.24592 l -1.5308,1.14197 -0.27846,0.58218 q -0.52891,0.2914 -1.78129,0.78376 l -0.22244,0.33594 -0.0556,-0.11183 -0.333919,0.47004 -0.751444,0.17911 -0.111496,0.31367 h -0.389938 l 0.166964,0.33594 -0.445423,0.69411 -0.417405,0.0896 q 0.05543,0.35823 -0.918473,1.32117 l -1.308139,0.0426 -0.278455,0.64934 -0.807138,0.1791 q -0.918468,-0.20137 -1.475106,-0.91802 l -1.864778,-2.44073 -1.781297,-3.20211 0.166965,-1.18673 -0.389405,-1.05241 0.278455,-0.0426 q -0.80714,-1.29881 -0.80714,-1.97049 l 0.138958,-0.82855 -0.86283,-0.42549 -0.584483,0.29141 v -0.11183 l -0.278454,0.11183 -0.751503,1.54501 -0.389403,-0.1341 -0.11149,0.3132 -0.278453,-0.0896 v 0.20137 h -0.11149 q -0.02692,0.13457 -0.807138,1.14201 l -0.222441,-0.0896 -0.166964,0.96286 -0.584484,0.24591 q -0.584483,0.24639 -0.751502,0.58223 l -0.22244,0.44777 0.250447,0.26865 -0.64012,0.17911 -0.278454,0.91804 -0.473425,0.20137 0.138957,0.17911 q -0.667966,0.40275 -1.085485,0.53741 l -0.250447,0.33594 -0.222439,-0.24591 -0.389943,0.78375 h -0.333929 l -0.473426,1.29871 -0.500894,0.13457 -0.05547,0.67173 h -0.807139 l -0.80714,1.47787 -0.389404,0.22412 h -0.33393 l -0.111488,0.42549 -1.781296,0.53741 -1.864779,0.0426 -0.807139,-4.25447 0.333929,-0.55978 0.08349,-0.44776 q 0.02692,-0.17911 0.66802,-1.34354 l -0.111488,-0.31367 q 0.500894,-0.91803 0.667965,-1.09718 l -0.222439,-0.0896 0.5289,-1.09719 0.02693,-0.4255 q 0.02692,-0.1791 0.417412,-0.82848 -0.222979,-1.07483 -0.445418,-1.23156 l 0.222439,-0.31368 0.723657,0.0896 q 0.640174,-0.69411 0.807139,-0.73894 l 0.166964,-0.40275 h 0.11149 l -0.389405,-0.47003 0.333929,-1.18674 0.22244,0.0896 q 0.333929,-0.69415 0.417412,-0.69415 l -0.11149,-0.58219 0.779293,-1.16438 v -0.31367 l -0.166965,-0.26865 1.141123,-1.9705 1.30814,-1.43308 q 0.667966,-0.47003 1.141123,-1.05241 l 0.974156,-0.31367 1.308141,-1.09718 1.252449,-0.60459 h 0.751502 l 0.612276,-0.13439 h 0.86283 l 0.389942,-0.515 0.807139,0.0446 h 0.807139 v -0.1791 q 0.333929,0.0228 0.723657,0.22394 l 0.862776,-0.26871 0.640174,0.13438 0.166965,-0.17916 0.667965,0.17916 z m -7.180823,3.53796 -0.695811,0.0896 -0.86283,-0.0426 -0.278452,0.40275 v 0.33595 q -0.445419,0.1791 -0.974105,0.31367 l -0.500893,1.00762 q -0.389404,1.34353 -0.473426,1.36594 h -0.278453 l -0.389405,0.73888 -0.194971,0.62697 q -0.08349,0.2914 -0.556638,0.47003 l -0.278454,0.78377 -0.445418,0.67174 q -0.250447,0.38048 -0.250447,0.80616 v 0.1791 L 78.7998,178.1394 v 0.3582 h -0.166965 l 0.05547,0.22413 -0.222441,0.38096 -0.333929,1.18678 -0.584483,0.96287 -0.11149,1.36589 -0.166964,0.20138 h -0.111489 l -0.11149,0.40322 0.222441,0.17912 -0.278455,0.82846 h -0.111491 l 0.111489,0.26867 h -0.417411 l 0.05548,1.65706 0.250446,0.78365 h 0.11149 l 0.612329,-0.47003 1.614277,-1.83613 2.894627,-3.06771 0.862776,-0.73894 1.92047,-2.50786 2.003951,-2.14965 0.166964,-0.47003 -0.389403,-0.40275 0.723656,-1.00768 0.166964,-0.7613 q 0.02692,-0.11183 0.473426,-0.58219 l 0.05548,-1.79134 -0.751503,-0.0426 h -0.612329 l -0.807138,-0.44776 -0.166965,0.22412 z"
         style="font-style:normal;font-variant:normal;font-weight:normal;font-stretch:normal;font-size:10.5833px;line-height:1.25;font-family:'Viner Hand ITC';-inkscape-font-specification:'Viner Hand ITC, Normal';font-variant-ligatures:normal;font-variant-caps:normal;font-variant-numeric:normal;font-variant-east-asian:normal;letter-spacing:0px;word-spacing:0px;white-space:pre;fill:#000000;fill-opacity:1;stroke:none;stroke-width:4.83093"
         id="path6400" />
      <path
         d="m 138.52742,143.19356 1.03698,0.12961 0.14324,0.45375 0.50029,0.12961 -0.14323,1.32881 v 0.48615 l -0.5003,0.45374 -0.10723,1.03712 q -0.10724,0.93989 -0.71516,1.55569 l 0.46501,0.25927 -0.82241,0.32413 v 0.74543 l -0.7867,0.71301 v 1.19918 l -0.25049,-0.12961 -0.42901,0.81025 -0.17854,1.32881 q -0.0346,0.25927 -0.53627,0.90748 l 0.21451,0.74543 -0.32177,0.81026 q -0.21452,0.51854 -0.46499,0.74542 l -0.75094,0.68061 v 1.19917 l 0.35776,0.12966 -0.35776,1.87978 0.21451,0.38884 -0.89396,1.39364 v 1.19916 l -0.64353,0.58327 v 1.52321 l -0.82247,1.06953 v 0.61586 l 0.32178,0.25933 -0.17854,0.90744 0.39303,0.48604 q -0.53627,1.0047 -1.53762,1.32883 l -0.14323,0.90744 0.50029,0.29141 -1.03698,0.5833 0.14324,0.68062 -0.14324,0.84269 q 1.89523,-0.12994 2.21707,-0.25934 l 0.64353,0.25934 -3.00371,3.33812 -1.00119,3.62997 -0.67951,0.38872 0.14322,1.0695 -0.28577,0.32403 0.14322,0.48604 -0.14322,0.25878 v 1.39364 l 0.14322,0.8751 h -0.28577 l -0.21451,0.77781 -0.53628,0.38873 h -0.28578 v 1.68532 l 0.6795,0.32456 -0.82247,1.06951 h 0.28579 l -0.14324,0.58325 0.53627,0.61593 v 0.58324 l 0.5003,0.45396 -0.21451,1.06951 0.35775,0.61591 v 2.36584 l -0.50029,0.12994 0.50029,1.06955 v 0.93989 l 0.64354,2.23627 2.14551,4.18087 h -0.14324 l 1.14423,0.93989 q 1.03699,1.52331 1.71643,2.39835 1.10848,0.55149 1.28728,0.93989 h 0.32176 v 0.32402 l 0.71515,0.38873 h 0.42902 l 0.6795,0.45396 q 1.46609,-0.32402 2.03821,-1.45845 0.75092,-0.0968 1.82368,-0.90754 l 0.67951,1.03715 -0.53628,0.16147 v 0.5833 l -0.64352,0.32457 0.14323,0.74538 v 0.5833 l 0.50029,-0.12994 v 1.0695 l -1.00119,0.45397 0.21449,0.25933 -0.50097,0.12994 -0.25051,0.35609 0.25051,0.25934 h -0.53629 l 0.14325,0.32403 q -0.89402,0.19463 -2.10975,0.93989 -0.35774,-0.16147 -1.68066,-1.52326 l -1.46613,0.45397 -0.75093,-0.81023 -0.28579,-0.5833 -0.21451,-0.16147 q -0.14323,-0.0968 -0.28576,-0.35611 -0.10724,-0.2267 -0.2858,-0.55143 v -0.58325 l -0.53627,-0.74537 v -0.32458 l -0.64354,-0.38871 -3.6473,-4.11612 -2.21706,-3.59745 0.21451,-0.45396 -0.85818,-1.19917 0.64353,-0.32403 -0.28578,-0.61587 -0.2145,-1.65291 -0.28579,-0.5833 -0.39373,-1.32878 -0.64353,-0.87509 q -0.14325,-0.19464 -0.25048,-1.00471 l -0.25051,-1.78258 v -1.32883 h -0.17852 l 0.39304,-1.39364 -0.21452,-0.7129 -0.9655,-0.12994 0.28578,-0.61587 0.35775,0.25933 -0.50029,-1.9122 -0.64354,0.71308 0.64354,-1.91219 h -0.50029 v 0.12994 l -0.53629,-0.12994 -1.60909,1.45839 -0.14323,-0.12993 -1.00129,0.45395 v 0.61593 l -0.8224,0.5833 v 0.32403 h -0.50099 l -0.60755,0.42134 q -0.28579,0.19464 -1.25156,0.32457 l 0.17853,0.71297 -0.82241,0.48604 q -0.35774,1.29632 -0.89395,1.78242 v 0.45395 l -0.64354,0.48604 v 0.71298 l -0.64352,-0.12994 -0.96544,1.78252 -1.39459,0.48604 -0.28579,0.58325 -0.67952,0.12994 v 0.22671 l -1.00121,0.38872 h -0.14323 q -0.35775,-1.10196 -0.82247,-1.45845 v 0.25879 q -0.78663,-0.9723 -1.18,-1.19917 l -0.21452,-1.65291 0.21452,-0.74543 v -0.45397 q -0.25051,-0.55143 -0.501,-0.74536 l 0.28648,-0.45397 v -0.45341 l 0.21452,-0.93995 -0.64354,-0.58325 0.64354,-0.42134 q -0.501,-0.93989 -0.501,-1.97705 v -0.45342 l 0.14324,-0.74548 -0.28648,-0.77778 0.64354,-1.00474 -0.35775,-2.00941 h 0.35775 l 0.32176,-1.03715 v -0.48604 h 0.35774 v -2.9817 l 0.5003,-0.32457 0.14323,-1.45844 v -0.61587 h 1.1801 l 0.28577,-1.65291 1.18002,0.25933 0.82241,-1.91219 v -0.5833 l 0.21451,0.25933 q 0.465,-0.71308 1.14422,-2.52806 l 0.46503,-0.32403 v -0.48604 l 0.21449,0.48604 0.14324,-0.93984 0.64353,-0.12993 0.39304,-0.74548 v -0.32424 l 0.50098,-0.12983 q 0.21452,-0.45342 1.96672,-1.78249 l 0.14324,0.259 0.53627,-0.58327 0.64352,0.19441 0.28579,-0.19441 v -0.29162 l 0.39305,0.12982 0.50028,-1.32879 1.60912,0.42151 -0.14325,-0.12983 h 1.03698 l -0.25049,-0.12983 0.53627,-0.16179 1.75214,0.22703 2.10975,1.10195 h -0.71515 l 1.39452,0.35626 v 0.259 l 0.92973,0.93988 q 0.42902,1.39359 0.67952,1.45844 l 0.50029,-0.1618 0.35774,-0.90746 0.67951,-0.259 v -1.52329 l 0.14325,-0.48604 0.50029,-0.12982 -0.14324,-1.06952 0.28579,-0.45408 0.82248,-0.38882 -0.2858,-0.61583 0.14325,-0.19441 -0.67952,-0.25928 v -6.02751 l 0.53627,-0.4861 q 0.14325,-0.64819 0.2858,-0.84266 l -0.14325,-0.22682 v -1.78207 l -0.82247,0.45374 -0.64354,-0.1296 q -0.14324,0.1296 -0.89395,0.29173 l -0.14324,0.58339 -1.03699,0.45375 h -0.42901 l -0.85819,-0.58339 -0.465,-1.19918 -0.35775,-0.19447 0.35775,-0.38893 -0.35775,-0.9399 0.35775,-0.45375 0.67952,-0.1296 0.14324,-0.4861 0.64354,-0.12966 0.67951,-1.06953 h 0.35774 l 0.14323,-0.32412 2.64616,-1.78255 0.14325,-0.25927 h 1.18 v -0.35649 l 0.35775,0.35649 h 0.50029 l 0.14325,-0.4861 q 0.6795,-0.0973 1.18001,-0.45374 z m -17.9507,24.69644 -0.28577,0.84263 -2.32434,1.06956 -1.03698,1.97694 -0.50029,0.29141 h -0.14324 l -0.32176,0.45396 -0.21452,-0.12994 -0.28577,0.71303 0.28577,0.3561 q -0.28577,1.6205 -0.64353,1.91219 v 0.5833 q -0.60824,0.42134 -0.96543,1.5556 h -0.35774 v 0.71307 l -0.5003,1.39365 0.35775,0.74541 q -0.71514,1.81493 -1.18,2.43075 l 0.28576,0.42134 v 1.19917 l 0.39305,0.32402 -0.53629,0.71308 0.14324,0.93989 0.67952,0.71303 v -0.25933 l 0.50029,0.25933 1.03699,-0.38873 0.28578,0.12994 1.82369,-1.97705 0.50097,-0.12993 v -0.12994 l 1.03698,-0.9399 1.18003,-0.45396 0.78669,-0.87509 0.53628,-0.19463 1.68066,-1.32884 2.25277,-1.52325 0.465,-1.26403 q 0.0712,-0.19463 0.92973,-1.00464 0.28578,-1.26398 0.8224,-1.91219 l -1.03699,-1.06951 -0.14322,-2.39833 -0.14325,-0.77789 v -0.25878 q -0.39304,-0.48604 -0.50029,-0.93995 h -0.53627 l -0.14324,0.71297 -0.85819,-0.12994 v -0.71302 l -0.32177,0.12993 -0.14323,-0.45395 -1.00128,0.32402 -1.03698,-0.32402 -0.14324,-0.74548 z"
         style="font-style:normal;font-variant:normal;font-weight:normal;font-stretch:normal;font-size:10.5833px;line-height:1.25;font-family:'Viner Hand ITC';-inkscape-font-specification:'Viner Hand ITC, Normal';font-variant-ligatures:normal;font-variant-caps:normal;font-variant-numeric:normal;font-variant-east-asian:normal;letter-spacing:0px;word-spacing:0px;white-space:pre;fill:#ff0000;fill-opacity:1;stroke:none;stroke-width:6.58771"
         id="path6402" />
      <path
         d="m 155.38104,164.53558 1.0249,0.9551 q -0.79347,1.13577 -1.22335,2.06505 l -1.2233,0.5679 -0.26394,0.59374 0.26394,0.15511 v 0.46479 l 0.13226,0.20611 -0.26394,0.28365 v 0.56792 l -0.46321,0.85182 -0.46263,0.25818 q -0.52906,1.10999 -0.76043,1.91019 l -0.7274,0.46479 -0.23161,0.85189 0.23161,0.10359 -0.82662,0.74862 v 0.5679 l -0.26453,0.28367 0.39679,1.41974 -0.39679,1.21321 0.26453,1.41975 0.33095,1.05836 v 0.95509 l 0.26453,1.21321 -0.26453,0.49029 v 1.4197 q 0.95883,-0.30969 1.35556,-0.69694 l 0.62829,0.10359 v -0.36175 l 1.55401,-1.16159 0.7274,-0.36174 v -0.28365 l 1.22335,-0.82603 0.33096,-0.85189 q 0.79352,-0.30968 1.22335,-0.69687 l 0.13226,0.2061 v -0.46479 l 0.69436,-0.46481 v 0.25816 l 0.26394,-0.36174 h 0.46263 v -0.28367 l 0.13227,-0.2061 h 0.62834 l 0.13226,-0.36175 -0.13226,-0.59366 2.28129,-1.47144 q 0.36328,-0.2061 0.46322,-0.4393 l 0.36328,-0.61948 q 0.62829,-0.28419 1.22336,-0.36174 l 0.13226,-0.38726 0.33096,-0.2061 h 0.42971 v -0.4648 l 0.1981,0.36175 v -0.46429 q 0.29745,-0.43929 0.59507,-0.54207 l 0.13226,-0.3097 1.55396,-1.31652 h 0.62834 l 0.59501,-0.49029 0.62829,-1.00669 q 1.58711,-1.36817 1.81854,-1.78117 l 0.95883,-0.12909 0.85965,-1.2132 -0.26452,0.64531 1.22329,-0.74857 0.72745,0.38724 0.95883,-0.4903 h 1.22336 l 0.59501,0.38725 0.23161,0.92928 -0.56257,0.41328 q -0.26452,0.1806 -0.72745,1.03254 l 0.1981,0.4648 -0.33095,0.85184 v 0.36122 l -0.49614,0.38724 v 0.67112 l -0.59501,0.15511 v 1.34234 l -0.13226,0.5679 0.13226,0.59368 -0.62834,0.4648 0.36328,0.64535 -0.36328,0.46481 0.36328,1.16162 -0.36328,0.64531 v 4.54314 l 0.36328,0.95515 0.59501,0.36123 1.22336,-0.10359 0.59501,0.4648 -0.13226,0.59367 -0.79359,0.25817 -0.29744,0.59376 -0.59502,0.10359 -0.46321,0.61954 h -0.49614 l -0.26453,0.59372 -1.42175,0.36122 -0.46322,0.69694 -1.85158,0.25816 -0.72733,0.59373 -1.55402,0.25815 -0.76049,-0.38724 -0.59501,-1.52301 0.59501,-0.6453 -0.33095,-0.46479 0.46263,-0.46427 0.62828,-0.10359 0.72746,-3.61387 v -0.46427 l -0.3968,-0.64535 0.62829,-0.2061 -0.23161,-0.46481 0.23161,-0.64536 -0.62829,-0.20609 -0.33095,-0.36177 0.59507,-0.38723 v -0.56792 l 0.36329,-0.64534 q -0.89276,-0.54209 -1.22336,-0.56791 l -0.1981,-1.23903 h -0.62829 l -0.46321,-0.20609 -0.62835,0.85182 -3.37244,2.86525 -0.62828,0.36173 -0.13226,0.36175 -2.61201,2.37485 -0.29745,0.49083 -2.77731,2.52969 -3.3725,2.86534 -1.02496,0.4393 q -0.1981,0.0776 -0.66132,0.67118 -1.42175,0.41327 -1.55401,0.46479 v 0.25817 l -0.42972,-0.15511 v 0.74857 l -0.92573,0.4648 -1.22335,-0.10358 -1.22336,0.69698 -0.1981,-0.36174 -0.76043,-0.33572 -0.13226,-0.61954 q -0.49614,-0.28366 -0.79353,-0.85183 l -0.76043,-0.20612 -0.26453,-0.59371 -0.46321,-4.13015 0.46321,-1.523 h 0.26453 v -1.10994 l 0.76043,-0.4648 -0.13226,-0.4903 0.46322,-0.85184 h 0.59501 l 0.13226,-0.30968 -0.13226,-0.72286 0.49614,-0.12908 0.13226,-0.82597 0.13226,-0.10358 -0.39679,-0.38725 0.39679,-0.7228 v -0.85184 l 0.19811,-1.80692 h 0.26452 v -0.85184 l 0.62829,-0.56791 -0.49614,-0.49029 0.49614,-0.6195 -0.16519,-0.30969 0.62829,-0.95504 -0.95883,-0.85189 -0.59501,0.10359 -0.13226,0.4648 -0.89276,0.12908 -0.33095,0.61949 h -1.09109 l -0.46322,-0.46479 -3.67012,0.95503 -0.95883,-1.23902 1.22336,-0.92929 q 0.95888,-0.30968 1.22341,-0.9551 l 1.09109,-0.15511 v -0.23213 h 0.95883 l 1.22335,-0.10359 0.79347,-1.10999 1.22341,0.28366 1.35562,-0.28366 q 0.0993,-0.20663 0.46322,-0.41327 h 1.09109 l -0.13227,-0.15512 0.26453,-0.10305 h 0.76043 l 0.1981,-0.28366 q 0.7274,-0.20663 1.48783,-0.82601 h 0.59507 l 0.49555,-0.49046 0.46263,-0.10326 0.46322,0.10326 0.62834,-0.25817 0.33095,0.25817 0.26453,-0.46464 z"
         style="font-style:normal;font-variant:normal;font-weight:normal;font-stretch:normal;font-size:10.5833px;line-height:1.25;font-family:'Viner Hand ITC';-inkscape-font-specification:'Viner Hand ITC, Normal';font-variant-ligatures:normal;font-variant-caps:normal;font-variant-numeric:normal;font-variant-east-asian:normal;letter-spacing:0px;word-spacing:0px;white-space:pre;fill:#000000;fill-opacity:1;stroke:none;stroke-width:5.65336"
         id="path6404" />
    </g>
  </g>
</svg>
