<?xml version="1.0" encoding="UTF-8" standalone="no"?>
<svg
   xmlns:osb="http://www.openswatchbook.org/uri/2009/osb"
   xmlns:dc="http://purl.org/dc/elements/1.1/"
   xmlns:cc="http://creativecommons.org/ns#"
   xmlns:rdf="http://www.w3.org/1999/02/22-rdf-syntax-ns#"
   xmlns:svg="http://www.w3.org/2000/svg"
   xmlns="http://www.w3.org/2000/svg"
   xmlns:sodipodi="http://sodipodi.sourceforge.net/DTD/sodipodi-0.dtd"
   xmlns:inkscape="http://www.inkscape.org/namespaces/inkscape"
   inkscape:export-ydpi="92"
   inkscape:export-xdpi="92"
   inkscape:export-filename="C:\Users\Aldeen\Documents\Logos\Badu-Halo-603x603.png"
   sodipodi:docname="Halo Badu.svg"
   inkscape:version="1.0 (4035a4fb49, 2020-05-01)"
   id="svg2140"
   version="1.1"
   viewBox="0 0 250.28484 302.03354"
   height="302.03354mm"
   width="250.28487mm">
  <title
     id="title2343">Badu-Halo </title>
  <defs
     id="defs2134">
    <rect
       id="rect9929"
       height="70.158249"
       width="130.37743"
       y="95.298294"
       x="-232.69153" />
    <rect
       id="rect9659"
       height="33.325169"
       width="81.26664"
       y="94.42131"
       x="-101.72946" />
    <linearGradient
       osb:paint="solid"
       id="linearGradient9619">
      <stop
         id="stop9617"
         offset="0"
         style="stop-color:#ffff00;stop-opacity:1;" />
    </linearGradient>
  </defs>
  <sodipodi:namedview
     fit-margin-bottom="0"
     fit-margin-right="0"
     fit-margin-left="0"
     fit-margin-top="0"
     width="302px"
     units="mm"
     inkscape:snap-smooth-nodes="true"
     inkscape:snap-intersection-paths="true"
     inkscape:object-paths="true"
     inkscape:window-maximized="1"
     inkscape:window-y="-11"
     inkscape:window-x="-11"
     inkscape:window-height="1046"
     inkscape:window-width="1920"
     showborder="true"
     inkscape:showpageshadow="true"
     showgrid="false"
     inkscape:document-rotation="0"
     inkscape:current-layer="layer1"
     inkscape:document-units="px"
     inkscape:cy="522.81275"
     inkscape:cx="413.23294"
     inkscape:zoom="0.64"
     inkscape:pageshadow="2"
     inkscape:pageopacity="0.0"
     borderopacity="1.0"
     bordercolor="#666666"
     pagecolor="#ffffff"
     id="base"
     inkscape:snap-global="false"
     showguides="true"
     inkscape:guide-bbox="true" />
  <metadata
     id="metadata2137">
    <rdf:RDF>
      <cc:Work
         rdf:about="">
        <dc:format>image/svg+xml</dc:format>
        <dc:type
           rdf:resource="http://purl.org/dc/dcmitype/StillImage" />
        <dc:title>Badu-Halo </dc:title>
        <dc:date>12/24/2020</dc:date>
        <dc:creator>
          <cc:Agent>
            <dc:title>Ganil Batist Yan</dc:title>
          </cc:Agent>
        </dc:creator>
        <dc:rights>
          <cc:Agent>
            <dc:title />
          </cc:Agent>
        </dc:rights>
        <dc:description>Logo </dc:description>
        <cc:license
           rdf:resource="www.badu9.com" />
      </cc:Work>
    </rdf:RDF>
  </metadata>
  <g
     transform="translate(221.69163,-2.0758933)"
     id="layer1"
     inkscape:groupmode="layer"
     inkscape:label="Layer 1">
    <g
       transform="matrix(0.11105664,0,0,0.11105664,-163.73411,55.744751)"
       id="g898">
      <circle
         style="fill:#000000;stroke:#ffff00;stroke-width:1.33218;stroke-miterlimit:4;stroke-dasharray:none;paint-order:stroke fill markers"
         id="circle928"
         cx="-100.80496"
         cy="146.09363"
         r="82.718536" />
      <g
         id="g935"
         transform="translate(0.29232603,-0.8769781)">
        <path
           id="path1866"
           style="fill:#000000;fill-opacity:1;stroke:#502d16;stroke-width:0.585356;stroke-miterlimit:4;stroke-dasharray:none;stroke-opacity:1"
           d="m -113.67681,109.35702 c -11.13172,0.45644 -21.76442,4.22381 -26.57937,8.80724 -5.74872,5.47231 -7.92307,13.22126 -6.13367,19.67003 1.05748,1.81315 -3.8192,4.74712 -6.92982,5.96176 -4.80076,1.87458 -2.67919,4.29294 -1.74053,6.38782 0.71675,1.59968 0.2852,0.39889 1.79355,4.64877 1.54009,4.33925 2.67633,6.17819 4.90209,8.28518 4.04484,3.82901 10.90665,6.97518 18.15241,7.53032 17.58002,1.34693 32.660668,-3.67015 32.502593,-10.93065 l 1.248256,57.32747 c -0.05513,2.93639 5.587268,5.31893 12.651602,5.34196 l 2.33401,0.007 c 7.064453,0.023 12.796486,-2.32254 12.851901,-5.259 0,0 -3.55489,-41.11763 2.13667,-64.05438 2.891545,-11.65278 4.532561,-16.34062 3.87625,-21.57055 -2.077018,-16.55125 -7.902853,-21.40238 -33.093949,-22.55539 0,0 -5.562853,-0.37908 -8.348733,-0.3285 -3.22296,0.0585 -9.62326,0.73014 -9.62326,0.73014 z"
           sodipodi:nodetypes="cscssssscccccsssac" />
        <path
           sodipodi:nodetypes="cscssssscccccsssacc"
           d="m -112.35669,113.52061 c -10.21143,0.41872 -19.96504,3.87461 -24.38192,8.07912 -5.27341,5.01984 -7.26801,12.12817 -5.62655,18.04377 0.97004,1.66329 -3.50346,4.35465 -6.35692,5.4689 -4.40381,1.71957 -2.45768,3.93798 -1.59661,5.85967 0.65752,1.46744 0.26163,0.36591 1.64527,4.26443 1.41276,3.9805 2.45505,5.66741 4.49681,7.60022 3.71042,3.51241 10.00494,6.39847 16.65163,6.90772 16.12657,1.23558 29.960425,-3.36672 29.815423,-10.02697 l 1.248256,57.32749 c -0.05058,2.69362 4.129476,5.26686 12.651602,5.34196 1.388996,-0.009 2.778134,0.0446 4.166964,-0.0401 5.179304,-0.22766 10.859332,-2.14722 11.018947,-5.21116 0,0 -5.665677,-42.46531 -0.44467,-63.50574 2.652457,-10.68937 4.157824,-14.98963 3.555767,-19.78718 -1.905279,-15.18285 -7.249454,-19.63294 -30.357872,-20.69063 0,0 -5.102957,-0.34772 -7.658507,-0.30131 -2.9565,0.0536 -8.82762,0.66976 -8.82762,0.66976 z"
           style="fill:#552200;fill-opacity:1;stroke:#a05a2c;stroke-width:0.585356;stroke-miterlimit:4;stroke-dasharray:none;stroke-opacity:1"
           id="path1868" />
        <path
           id="path1870"
           style="fill:#803300;fill-opacity:1;stroke:#d38d5f;stroke-width:0.585356;stroke-miterlimit:4;stroke-dasharray:none;stroke-opacity:1"
           d="m -110.81171,118.30396 c -9.13358,0.37453 -17.8577,3.46566 -21.80836,7.22637 -4.71683,4.49 -6.50089,10.84803 -5.03267,16.13923 0.86765,1.48774 -3.13364,3.89502 -5.68592,4.89166 -3.93901,1.53807 -2.19827,3.52233 -1.4281,5.24118 0.58811,1.31255 0.23402,0.32729 1.4716,3.81432 1.26362,3.56035 2.19591,5.06921 4.02215,6.79801 3.31881,3.14168 8.94894,5.72311 14.89406,6.17861 14.42438,1.10515 26.798079,-3.01137 26.668374,-8.96862 l 1.116516,51.27653 c -0.278637,6.39257 -0.869304,8.93093 5.530739,10.61927 4.612297,0.99764 7.253622,0.8664 9.587632,0.87417 6.591887,0.009 13.195024,-2.31728 12.851901,-5.25899 0,0 -8.138698,-44.13634 -3.468784,-62.95595 2.372515,-9.5611 3.71898,-13.40745 3.180484,-17.69863 -1.704198,-13.58029 -6.484302,-17.56067 -27.153612,-18.50671 0,0 -4.56432,-0.31103 -6.85013,-0.26951 -2.64446,0.048 -7.89588,0.59906 -7.89588,0.59906 z"
           sodipodi:nodetypes="cscssssscccccsssacc" />
      </g>
      <path
         d="m -102.44119,66.678388 a 79.433511,79.433511 0 0 0 -57.99068,26.93526 79.433511,79.433511 0 0 0 7.14518,112.108112 79.433511,79.433511 0 0 0 112.108486,-7.14521 79.433511,79.433511 0 0 0 -7.14531,-112.108521 79.433511,79.433511 0 0 0 -54.117816,-19.789982 z m 0.36511,21.50618 a 57.924543,57.924543 0 0 1 39.541496,14.429322 57.924543,57.924543 0 0 1 5.21055,81.75179 57.924543,57.924543 0 0 1 -81.751796,5.21035 57.924543,57.924543 0 0 1 -5.21035,-81.7518 57.924543,57.924543 0 0 1 42.21029,-19.639901 z"
         style="fill:#ffff00;stroke:#000000;stroke-width:1.07592;paint-order:stroke fill markers"
         id="path920" />
      <path
         d="m -143.67542,197.98184 q 1.3049,2.11725 1.25776,3.64326 -0.0395,1.51574 -1.30244,3.22029 -1.92477,2.59788 -4.11163,2.8579 -2.18686,0.26 -4.79135,-1.86228 l -4.78793,-3.90149 q -0.29374,-0.23934 -0.0578,-0.55766 l 0.45647,-0.61611 q 0.19019,-0.25671 0.54584,-0.16451 0.76352,0.17753 1.15913,-0.35643 l 9.18262,-12.3939 q 0.19019,-0.25671 0.18034,-0.41295 -0.01,-0.15625 -0.25697,-0.67049 -0.12736,-0.25198 -0.0828,-0.39685 0.0542,-0.13688 0.38144,-0.57843 0.2891,-0.3902 0.48591,-0.4439 0.20662,-0.0458 0.46119,0.16172 l 5.36561,4.37221 q 1.93868,1.57975 2.20817,3.46258 0.26949,1.88281 -0.91734,3.48468 -0.98901,1.33489 -2.48096,1.56831 -1.48216,0.2414 -2.89514,-0.41595 z m 1.85481,-8.05628 -3.99409,5.39089 0.51893,0.42286 q 0.48957,0.39892 0.98434,0.32454 0.50459,-0.0664 1.05347,-0.72248 0.56629,-0.65834 1.34989,-1.71599 1.09552,-1.47864 1.1409,-2.13331 0.0628,-0.65695 -0.5345,-1.14365 z m -4.86138,6.56149 -5.68303,7.67045 q 0.90078,0.73403 1.39452,0.72465 0.50351,-0.002 1.11544,-0.72135 0.62174,-0.712 1.9607,-2.51923 0.27389,-0.36966 1.2107,-1.69768 0.94443,-1.33828 1.05412,-1.67706 0.10967,-0.3388 -0.002,-0.67633 -0.10129,-0.32954 -0.5321,-0.6806 z"
         style="font-style:normal;font-variant:normal;font-weight:normal;font-stretch:normal;font-size:30.5062px;line-height:1.25;font-family:'Bernard MT Condensed';-inkscape-font-specification:'Bernard MT Condensed, Normal';font-variant-ligatures:normal;font-variant-caps:normal;font-variant-numeric:normal;font-variant-east-asian:normal;letter-spacing:8.20473px;word-spacing:0px;fill:#000000;fill-opacity:1;stroke:#000000;stroke-width:0.524323;stroke-miterlimit:4;stroke-dasharray:none"
         id="path935" />
      <path
         d="m -135.535,212.16271 -2.78613,-1.42561 -0.63651,0.99479 q -0.0169,0.0345 -0.0725,0.0921 -0.25116,0.28774 -0.37965,0.55211 -0.2011,0.41381 0.18303,0.96919 0.20598,0.29199 0.19466,0.48715 -0.0113,0.19513 -0.1901,0.56296 -0.22903,0.4713 -0.33503,0.54623 -0.0892,0.069 -0.27873,-0.0278 l -2.94215,-1.50544 q -0.24518,-0.12546 0.0118,-0.65421 0.30725,-0.63221 0.88723,-0.82347 0.54094,-0.16814 0.79218,-0.54195 l 8.6367,-12.47443 q 0.20654,-0.28186 0.31827,-0.51175 0.17316,-0.35633 -0.17197,-0.87742 -0.15586,-0.25199 0.0731,-0.72327 0.30724,-0.63221 0.44672,-0.74743 0.13949,-0.11521 0.42925,0.033 l 4.25721,2.17834 q 0.39005,0.19958 0.36174,0.65874 -0.0284,0.45915 -0.49238,1.81492 -0.17334,0.52848 -0.34109,1.04548 l -4.31151,13.568 q -0.31317,0.98799 -0.024,1.73881 0.0834,0.20057 0.0889,0.30384 0.0112,0.0918 -0.17327,0.47111 -0.28489,0.58623 -0.42994,0.68425 -0.13945,0.0866 -0.3958,-0.0445 l -4.95931,-2.53759 q -0.22288,-0.11404 -0.0106,-0.55083 0.26813,-0.55177 0.3909,-0.6612 0.12275,-0.10943 0.4796,-0.15648 0.51295,-0.0533 0.70288,-0.44411 0.19553,-0.40233 0.67652,-1.99342 z m 3.64555,-10.93765 -5.57753,8.29849 2.4518,1.25453 z"
         style="font-style:normal;font-variant:normal;font-weight:normal;font-stretch:normal;font-size:30.5062px;line-height:1.25;font-family:'Bernard MT Condensed';-inkscape-font-specification:'Bernard MT Condensed, Normal';font-variant-ligatures:normal;font-variant-caps:normal;font-variant-numeric:normal;font-variant-east-asian:normal;letter-spacing:8.20473px;word-spacing:0px;fill:#000000;fill-opacity:1;stroke:#000000;stroke-width:0.522237;stroke-miterlimit:4;stroke-dasharray:none"
         id="path937" />
      <path
         d="m -123.60283,218.83944 4.19827,-14.89864 q 0.0314,-0.25614 -0.35164,-0.49009 -0.30132,-0.18581 -0.36323,-0.4006 -0.0584,-0.2271 0.11829,-0.85453 0.12828,-0.45522 0.33442,-0.55914 0.20612,-0.10395 0.88957,0.0776 l 6.06239,1.61 q 2.59455,0.68904 3.63528,3.46467 1.0534,2.77897 -0.46852,8.17988 -1.38672,4.92111 -3.72192,6.9324 -2.33175,1.99899 -5.04022,1.2797 l -6.68257,-1.7747 q -0.27844,-0.074 -0.35766,-0.22722 -0.0632,-0.16223 0.0617,-0.60512 0.14907,-0.52901 0.22517,-0.65426 0.0761,-0.12524 0.45371,-0.2101 0.80931,-0.16855 1.00689,-0.86981 z m 9.12137,-14.41105 -4.80148,17.03932 0.67078,0.17815 q 0.70877,0.18822 1.1973,-0.29032 0.492,-0.49083 0.90454,-1.95486 l 3.54305,-12.57342 q 0.23229,-0.8243 -0.0271,-1.44857 -0.2594,-0.62428 -1.00614,-0.82259 z"
         style="font-style:normal;font-variant:normal;font-weight:normal;font-stretch:normal;font-size:30.5062px;line-height:1.25;font-family:'Bernard MT Condensed';-inkscape-font-specification:'Bernard MT Condensed, Normal';font-variant-ligatures:normal;font-variant-caps:normal;font-variant-numeric:normal;font-variant-east-asian:normal;letter-spacing:8.20473px;word-spacing:0px;fill:#000000;fill-opacity:1;stroke:#000000;stroke-width:0.534183;stroke-miterlimit:4;stroke-dasharray:none"
         id="path939" />
      <path
         d="m -103.78792,204.62902 5.908024,-0.0549 q 0.300176,-0.003 0.383644,0.12312 0.08332,0.11324 0.09117,0.73391 0.0078,0.62069 -0.385264,0.82703 -0.298252,0.15478 -0.405322,0.32045 -0.09342,0.16558 -0.0875,0.63424 l 0.179585,14.18675 q 0.0074,0.58266 0.366781,0.9467 0.359242,0.35139 0.905019,0.34631 0.504842,-0.005 0.854464,-0.41332 0.349624,-0.40864 0.343371,-0.90265 l -0.179588,-14.18675 q -0.0047,-0.36733 -0.08828,-0.5059 -0.07014,-0.15137 -0.373049,-0.36391 -0.468077,-0.32503 -0.476735,-1.00904 -0.0067,-0.532 0.114779,-0.63447 0.135001,-0.11527 0.380598,-0.11755 l 2.947187,-0.0274 q 0.491199,-0.005 0.496969,0.45144 l 0.0077,0.608 q 0.0051,0.40535 -0.04801,0.51984 -0.05329,0.10183 -0.311416,0.19292 -0.638721,0.20862 -0.630865,0.82929 l 0.174937,13.81942 q 0.02485,1.96335 -1.174904,3.12731 -1.199919,1.15129 -3.369377,1.17146 -2.428698,0.0226 -3.726668,-1.18152 -1.28431,-1.2042 -1.31335,-3.49691 l -0.16898,-13.35074 q -0.007,-0.532 -0.61031,-0.77975 -0.30178,-0.12388 -0.37128,-0.22458 -0.056,-0.11349 -0.0604,-0.46816 -0.009,-0.73467 0.0836,-0.92557 0.0931,-0.19087 0.54338,-0.19505 z"
         style="font-style:normal;font-variant:normal;font-weight:normal;font-stretch:normal;font-size:30.5062px;line-height:1.25;font-family:'Bernard MT Condensed';-inkscape-font-specification:'Bernard MT Condensed, Normal';font-variant-ligatures:normal;font-variant-caps:normal;font-variant-numeric:normal;font-variant-east-asian:normal;letter-spacing:8.20473px;word-spacing:0px;fill:#000000;fill-opacity:1;stroke:#000000;stroke-width:0.542873;stroke-miterlimit:4;stroke-dasharray:none"
         id="path941" />
      <path
         d="m -67.522071,210.11794 q -0.524187,1.6191 -1.749779,2.16973 -1.50669,0.67689 -3.312479,-0.47655 -1.79942,-1.17014 -3.048114,-4.15117 -0.7219,-1.7234 -0.937821,-3.67412 -0.215923,-1.95073 0.422191,-3.64869 0.649358,-1.70302 2.538344,-2.55168 2.394965,-1.07597 4.621816,0.31722 2.238095,1.38813 4.262343,6.22067 2.302279,5.49628 1.043658,8.87044 -1.263494,3.36253 -4.917783,5.00428 -0.663394,0.29805 -0.837343,0.2655 -0.169071,-0.0209 -0.33979,-0.42845 -0.268274,-0.64047 -0.269099,-0.8338 0.01042,-0.19839 0.180568,-0.3025 1.59243,-0.95063 2.29725,-1.72388 0.716066,-0.77829 0.843483,-1.84557 0.138663,-1.07233 -0.441786,-2.45804 -0.107308,-0.25619 -0.355659,-0.75339 z m -4.287505,-10.23565 q -0.424361,-1.01308 -1.233927,-0.64936 -0.798322,0.35865 -0.330061,1.47652 l 3.497315,8.34922 q 0.190232,0.45414 0.530687,0.66093 0.335577,0.19514 0.672898,0.0436 0.393537,-0.17681 0.457453,-0.6621 0.06391,-0.48532 -0.14095,-0.9744 z"
         style="font-style:normal;font-variant:normal;font-weight:normal;font-stretch:normal;font-size:30.5062px;line-height:1.25;font-family:'Bernard MT Condensed';-inkscape-font-specification:'Bernard MT Condensed, Normal';font-variant-ligatures:normal;font-variant-caps:normal;font-variant-numeric:normal;font-variant-east-asian:normal;letter-spacing:8.20473px;word-spacing:0px;fill:#000000;fill-opacity:1;stroke:#000000;stroke-width:0.515027;stroke-miterlimit:4;stroke-dasharray:none"
         id="path943" />
      <path
         d="m -63.295403,199.14674 -2.359647,-2.46089 -1.670341,-2.5786 3.007592,-2.18026 1.670341,2.57859 1.386602,3.16628 z"
         style="font-style:normal;font-variant:normal;font-weight:normal;font-stretch:normal;font-size:30.5062px;line-height:1.25;font-family:'Bernard MT Condensed';-inkscape-font-specification:'Bernard MT Condensed, Normal';font-variant-ligatures:normal;font-variant-caps:normal;font-variant-numeric:normal;font-variant-east-asian:normal;letter-spacing:8.20473px;word-spacing:0px;fill:#000000;fill-opacity:1;stroke:#000000;stroke-width:0.253013;stroke-miterlimit:4;stroke-dasharray:none"
         id="path945" />
      <path
         d="m -56.100212,190.32754 2.655988,1.95274 q 0.119858,0.0965 0.199377,0.18374 0.222649,0.24416 -0.222464,0.69839 -0.296742,0.30283 -0.508435,0.36736 -0.203451,0.0561 -0.686668,-0.10731 -0.563608,-0.19923 -1.468466,-0.3364 -0.904859,-0.13716 -1.226329,0.1909 -0.123642,0.12618 -0.111232,0.3492 0.02066,0.21462 0.171738,0.38029 0.405538,0.44471 3.501506,1.29189 2.684607,0.74511 3.993839,1.39551 1.309234,0.6504 2.486092,1.94094 1.248423,1.36902 1.387666,2.70838 0.131289,1.33062 -0.62705,2.10453 -0.478084,0.48789 -1.339598,0.66001 -0.471389,0.0939 -0.570304,0.19481 -0.115398,0.11777 0.05101,0.33515 0.181726,0.26908 0.171446,0.39742 -0.0023,0.13705 -0.365012,0.50718 -0.280256,0.286 -0.442203,0.28292 -0.161945,-0.004 -0.39371,-0.18742 l -2.630678,-2.01225 q -0.183763,-0.14915 -0.223522,-0.19275 -0.222648,-0.24416 0.32962,-0.80775 0.288499,-0.29443 0.467221,-0.32531 0.186966,-0.0392 0.701989,0.15902 1.939075,0.76521 2.516072,0.17637 0.370928,-0.37854 -0.05847,-0.84941 -0.381683,-0.41855 -1.226513,-0.75165 -0.836587,-0.34151 -2.924323,-0.93817 -2.208468,-0.6418 -3.510041,-1.26635 -1.293329,-0.63297 -2.223683,-1.65319 -1.264327,-1.38646 -1.324052,-2.63862 -0.05973,-1.25216 0.73983,-2.0681 0.420383,-0.42902 1.234478,-0.6706 0.415143,-0.12063 0.514058,-0.22158 0.131885,-0.13458 -0.01037,-0.34294 -0.141966,-0.22548 -0.08281,-0.37003 0.05916,-0.14454 0.380625,-0.4726 0.206071,-0.2103 0.31148,-0.21687 0.105702,-0.0236 0.361905,0.15255 z"
         style="font-style:normal;font-variant:normal;font-weight:normal;font-stretch:normal;font-size:30.5062px;line-height:1.25;font-family:'Bernard MT Condensed';-inkscape-font-specification:'Bernard MT Condensed, Normal';font-variant-ligatures:normal;font-variant-caps:normal;font-variant-numeric:normal;font-variant-east-asian:normal;letter-spacing:8.20473px;word-spacing:0px;fill:#000000;fill-opacity:1;stroke:#000000;stroke-width:0.486412;stroke-miterlimit:4;stroke-dasharray:none"
         id="path947" />
      <g
         transform="matrix(0.38290181,-0.04155896,0.01357437,0.37400915,-56.472131,185.69808)"
         id="g1880"
         style="stroke:#ffcc00;stroke-width:0.697789;stroke-miterlimit:4;stroke-dasharray:none;stroke-opacity:1">
        <path
           sodipodi:nodetypes="cccccc"
           style="color:#000000;font-style:normal;font-variant:normal;font-weight:normal;font-stretch:normal;font-size:medium;line-height:normal;font-family:sans-serif;font-variant-ligatures:normal;font-variant-position:normal;font-variant-caps:normal;font-variant-numeric:normal;font-variant-alternates:normal;font-variant-east-asian:normal;font-feature-settings:normal;font-variation-settings:normal;text-indent:0;text-align:start;text-decoration:none;text-decoration-line:none;text-decoration-style:solid;text-decoration-color:#000000;letter-spacing:normal;word-spacing:normal;text-transform:none;writing-mode:lr-tb;direction:ltr;text-orientation:mixed;dominant-baseline:auto;baseline-shift:baseline;text-anchor:start;white-space:normal;shape-padding:0;shape-margin:0;inline-size:0;clip-rule:nonzero;display:inline;overflow:visible;visibility:visible;isolation:auto;mix-blend-mode:normal;color-interpolation:sRGB;color-interpolation-filters:linearRGB;solid-color:#000000;solid-opacity:1;vector-effect:none;fill:#000000;fill-opacity:1;fill-rule:nonzero;stroke:#ffcc00;stroke-width:0.697789;stroke-linecap:butt;stroke-linejoin:miter;stroke-miterlimit:4;stroke-dasharray:none;stroke-dashoffset:0;stroke-opacity:1;color-rendering:auto;image-rendering:auto;shape-rendering:auto;text-rendering:auto;enable-background:accumulate;stop-color:#000000;stop-opacity:1"
           d="m -220.48833,-202.06297 c 1.18785,12.79714 -102.64397,26.26993 -102.64397,41.16055 H 98.644333 c 0,-15.69386 -115.040778,-25.4667 -115.040778,-41.16055 l -203.826235,0.22548 z"
           id="path1876" />
      </g>
      <g
         transform="matrix(0.3877365,-0.04236317,0.01374577,0.38124653,-55.361398,187.17345)"
         id="g1886"
         style="fill:#ffff00;fill-opacity:1;stroke:#ffd42a;stroke-width:0.689682;stroke-miterlimit:4;stroke-dasharray:none;stroke-opacity:1">
        <path
           sodipodi:nodetypes="ccccc"
           style="color:#000000;font-style:normal;font-variant:normal;font-weight:normal;font-stretch:normal;font-size:medium;line-height:normal;font-family:sans-serif;font-variant-ligatures:normal;font-variant-position:normal;font-variant-caps:normal;font-variant-numeric:normal;font-variant-alternates:normal;font-variant-east-asian:normal;font-feature-settings:normal;font-variation-settings:normal;text-indent:0;text-align:start;text-decoration:none;text-decoration-line:none;text-decoration-style:solid;text-decoration-color:#000000;letter-spacing:normal;word-spacing:normal;text-transform:none;writing-mode:lr-tb;direction:ltr;text-orientation:mixed;dominant-baseline:auto;baseline-shift:baseline;text-anchor:start;white-space:normal;shape-padding:0;shape-margin:0;inline-size:0;clip-rule:nonzero;display:inline;overflow:visible;visibility:visible;isolation:auto;mix-blend-mode:normal;color-interpolation:sRGB;color-interpolation-filters:linearRGB;solid-color:#000000;solid-opacity:1;vector-effect:none;fill:#ffff00;fill-opacity:1;fill-rule:nonzero;stroke:#ffd42a;stroke-width:0.689682;stroke-linecap:butt;stroke-linejoin:miter;stroke-miterlimit:4;stroke-dasharray:none;stroke-dashoffset:0;stroke-opacity:1;color-rendering:auto;image-rendering:auto;shape-rendering:auto;text-rendering:auto;enable-background:accumulate;stop-color:#000000;stop-opacity:1"
           d="m -221.5497,-227.63661 202.64168,1.97931 -0.07447,23.09315 -201.25024,0.22114 z"
           id="path1882" />
      </g>
      <path
         sodipodi:nodetypes="cccsc"
         style="color:#000000;font-style:normal;font-variant:normal;font-weight:normal;font-stretch:normal;font-size:medium;line-height:normal;font-family:sans-serif;font-variant-ligatures:normal;font-variant-position:normal;font-variant-caps:normal;font-variant-numeric:normal;font-variant-alternates:normal;font-variant-east-asian:normal;font-feature-settings:normal;font-variation-settings:normal;text-indent:0;text-align:start;text-decoration:none;text-decoration-line:none;text-decoration-style:solid;text-decoration-color:#000000;letter-spacing:normal;word-spacing:normal;text-transform:none;writing-mode:lr-tb;direction:ltr;text-orientation:mixed;dominant-baseline:auto;baseline-shift:baseline;text-anchor:start;white-space:normal;shape-padding:0;shape-margin:0;inline-size:0;clip-rule:nonzero;display:inline;overflow:visible;visibility:visible;isolation:auto;mix-blend-mode:normal;color-interpolation:sRGB;color-interpolation-filters:linearRGB;solid-color:#000000;solid-opacity:1;vector-effect:none;fill:#000000;fill-opacity:1;fill-rule:nonzero;stroke:#ffcc00;stroke-width:0.264583;stroke-linecap:butt;stroke-linejoin:miter;stroke-miterlimit:4;stroke-dasharray:none;stroke-dashoffset:0;stroke-opacity:1;color-rendering:auto;image-rendering:auto;shape-rendering:auto;text-rendering:auto;enable-background:accumulate;stop-color:#000000"
         d="m -105.60063,82.141236 c -29.89438,-3.477607 -35.97356,4.931693 -38.88196,28.058924 l 78.65916,-8.13691 C -69.645224,80.701968 -76.020901,77.845961 -82.236933,78.748591 Z"
         id="path1888" />
    </g>
  </g>
</svg>
