<?xml version="1.0" encoding="UTF-8" standalone="no"?>
<svg
   xmlns:osb="http://www.openswatchbook.org/uri/2009/osb"
   xmlns:dc="http://purl.org/dc/elements/1.1/"
   xmlns:cc="http://creativecommons.org/ns#"
   xmlns:rdf="http://www.w3.org/1999/02/22-rdf-syntax-ns#"
   xmlns:svg="http://www.w3.org/2000/svg"
   xmlns="http://www.w3.org/2000/svg"
   xmlns:sodipodi="http://sodipodi.sourceforge.net/DTD/sodipodi-0.dtd"
   xmlns:inkscape="http://www.inkscape.org/namespaces/inkscape"
   width="250.28487mm"
   height="302.03354mm"
   viewBox="0 0 250.28484 302.03354"
   version="1.1"
   id="svg2140"
   inkscape:version="1.0 (4035a4fb49, 2020-05-01)"
   sodipodi:docname="Halo Badu.svg"
   inkscape:export-filename="C:\Users\Aldeen\Documents\Logos\Halo Badu-600x603.png"
   inkscape:export-xdpi="92"
   inkscape:export-ydpi="92">
  <defs
     id="defs2134">
    <rect
       x="-232.69153"
       y="95.298294"
       width="130.37743"
       height="70.158249"
       id="rect9929" />
    <rect
       x="-101.72946"
       y="94.42131"
       width="81.26664"
       height="33.325169"
       id="rect9659" />
    <linearGradient
       id="linearGradient9619"
       osb:paint="solid">
      <stop
         style="stop-color:#ffff00;stop-opacity:1;"
         offset="0"
         id="stop9617" />
    </linearGradient>
  </defs>
  <sodipodi:namedview
     inkscape:guide-bbox="true"
     showguides="true"
     inkscape:snap-global="false"
     id="base"
     pagecolor="#ffffff"
     bordercolor="#666666"
     borderopacity="1.0"
     inkscape:pageopacity="0.0"
     inkscape:pageshadow="2"
     inkscape:zoom="0.32"
     inkscape:cx="672.50032"
     inkscape:cy="382.61164"
     inkscape:document-units="px"
     inkscape:current-layer="layer1"
     inkscape:document-rotation="0"
     showgrid="false"
     inkscape:showpageshadow="true"
     showborder="true"
     inkscape:window-width="1920"
     inkscape:window-height="1046"
     inkscape:window-x="-11"
     inkscape:window-y="-11"
     inkscape:window-maximized="1"
     inkscape:object-paths="true"
     inkscape:snap-intersection-paths="true"
     inkscape:snap-smooth-nodes="true"
     units="mm"
     width="302px"
     fit-margin-top="0"
     fit-margin-left="0"
     fit-margin-right="0"
     fit-margin-bottom="0" />
  <metadata
     id="metadata2137">
    <rdf:RDF>
      <cc:Work
         rdf:about="">
        <dc:format>image/svg+xml</dc:format>
        <dc:type
           rdf:resource="http://purl.org/dc/dcmitype/StillImage" />
        <dc:title />
      </cc:Work>
    </rdf:RDF>
  </metadata>
  <g
     inkscape:label="Layer 1"
     inkscape:groupmode="layer"
     id="layer1"
     transform="translate(221.69163,-2.0758933)">
    <circle
       style="fill:#000000;stroke:#000000;stroke-width:1.12041;paint-order:stroke fill markers"
       id="circle928"
       cx="-75.380157"
       cy="114.26094"
       r="82.718536" />
    <g
       id="g5067"
       transform="matrix(0.95846579,0,0,0.95846579,-3.3369928,5.1150428)">
      <path
         id="path1866"
         style="fill:#000000;fill-opacity:1;stroke:#502d16;stroke-width:0.3175;stroke-miterlimit:4;stroke-dasharray:none;stroke-opacity:1"
         d="m -88.51357,78.852871 c -11.373505,0.44176 -22.23716,4.08793 -27.15668,8.5239 -5.87359,5.29625 -8.09518,12.795899 -6.26691,19.037199 1.08046,1.75481 -3.90216,4.59439 -7.08033,5.76995 -4.90504,1.81427 -2.73739,4.15483 -1.77834,6.18231 0.73232,1.54822 0.2914,0.38606 1.83251,4.49921 1.57354,4.19965 2.73446,5.97943 5.00857,8.01863 4.13269,3.70582 11.14355,6.75077 18.54669,7.28805 17.961871,1.3036 33.370081,-3.55207 33.208573,-10.57898 l 1.275369,55.48311 c -0.05633,2.84192 5.708628,5.14781 12.926406,5.1701 l 2.384706,0.007 c 7.217899,0.0223 13.074437,-2.24782 13.131055,-5.08981 0,0 -3.632105,-39.79478 2.183081,-61.99361 2.954352,-11.27788 4.631012,-15.8149 3.960445,-20.87657 -2.122132,-16.018759 -8.074509,-20.713819 -33.812777,-21.829739 0,0 -5.683681,-0.36688 -8.53007,-0.31793 -3.292975,0.0566 -9.832298,0.70665 -9.832298,0.70665 z"
         sodipodi:nodetypes="cscssssscccccsssac" />
      <path
         sodipodi:nodetypes="cscssssscccccsssacc"
         d="m -87.164766,82.882511 c -10.433229,0.40525 -20.398694,3.74996 -24.911524,7.8192 -5.38794,4.85834 -7.42588,11.737979 -5.74876,17.463259 0.99111,1.60978 -3.57955,4.21455 -6.495,5.29295 -4.49945,1.66425 -2.51105,3.81129 -1.63129,5.67116 0.6718,1.42022 0.26731,0.35413 1.68101,4.12723 1.44344,3.85244 2.50837,5.48508 4.59448,7.3557 3.79102,3.39941 10.22226,6.19262 17.01332,6.68549 16.476854,1.19582 30.611195,-3.25841 30.463043,-9.70438 l 1.275369,55.48313 c -0.05168,2.60696 4.219172,5.09742 12.926406,5.1701 1.419166,-0.009 2.838477,0.0432 4.257474,-0.0388 5.291803,-0.22034 11.095206,-2.07814 11.258287,-5.04351 0,0 -5.78874,-41.0991 -0.454328,-61.46261 2.71007,-10.34547 4.248135,-14.50738 3.633001,-19.15059 -1.946663,-14.694379 -7.406918,-19.001299 -31.017271,-20.024959 0,0 -5.213796,-0.33654 -7.824855,-0.29162 -3.020722,0.0519 -9.019362,0.64821 -9.019362,0.64821 z"
         style="fill:#552200;fill-opacity:1;stroke:#c87137;stroke-width:0.132292;stroke-miterlimit:4;stroke-dasharray:none;stroke-opacity:1"
         id="path1868" />
      <path
         id="path1870"
         style="fill:#803300;fill-opacity:1;stroke:#c87137;stroke-width:0.220133;stroke-miterlimit:4;stroke-dasharray:none;stroke-opacity:1"
         d="m -85.586221,87.511971 c -9.331974,0.36248 -18.245599,3.35416 -22.282069,6.99388 -4.81928,4.34555 -6.64208,10.499029 -5.14198,15.619999 0.88649,1.43987 -3.20171,3.76971 -5.80943,4.73428 -4.02457,1.48859 -2.24601,3.40901 -1.45912,5.07256 0.60089,1.27032 0.23911,0.31676 1.50357,3.69161 1.29107,3.4458 2.24361,4.90612 4.10951,6.5793 3.3909,3.0406 9.14332,5.53898 15.217575,5.97983 14.737693,1.06959 27.380159,-2.91449 27.247637,-8.68008 l 1.140768,49.62685 c -0.28469,6.18691 -0.888186,8.6436 5.650871,10.27762 4.71248,0.96555 7.411177,0.83853 9.795883,0.84605 6.735069,0.009 13.481631,-2.24273 13.131055,-5.0898 0,0 -8.315477,-42.71637 -3.544128,-60.93051 2.424048,-9.2535 3.799759,-12.97611 3.249566,-17.12923 -1.741214,-13.143379 -6.625146,-16.995699 -27.743411,-17.911309 0,0 -4.663458,-0.30102 -6.998926,-0.26084 -2.701891,0.0465 -8.067371,0.57979 -8.067371,0.57979 z"
         sodipodi:nodetypes="cscssssscccccsssacc" />
    </g>
    <path
       d="m -77.01639,34.845708 a 79.433511,79.433511 0 0 0 -57.99067,26.93526 79.433511,79.433511 0 0 0 7.14518,112.108112 79.433511,79.433511 0 0 0 112.10848,-7.14521 79.433511,79.433511 0 0 0 -7.14531,-112.108522 79.433511,79.433511 0 0 0 -54.11782,-19.789982 z m 0.36511,21.50618 a 57.924543,57.924543 0 0 1 39.5415,14.42932 57.924543,57.924543 0 0 1 5.21055,81.751792 57.924543,57.924543 0 0 1 -81.7518,5.21035 57.924543,57.924543 0 0 1 -5.21034,-81.751799 57.924543,57.924543 0 0 1 42.21028,-19.639903 z"
       style="fill:#ffff00;stroke:#000000;stroke-width:1.07592;paint-order:stroke fill markers"
       id="path920" />
    <path
       d="m -118.53343,166.70184 q 1.31125,2.14611 1.26388,3.69292 -0.0397,1.5364 -1.30877,3.26418 -1.93414,2.6333 -4.13165,2.89686 -2.1975,0.26354 -4.81466,-1.88766 l -4.81123,-3.95467 q -0.29518,-0.24261 -0.0581,-0.56527 l 0.45868,-0.6245 q 0.19113,-0.26021 0.5485,-0.16676 0.76724,0.17995 1.16477,-0.36128 l 9.22731,-12.56284 q 0.19112,-0.26021 0.18122,-0.41858 -0.01,-0.15838 -0.25822,-0.67963 -0.12798,-0.25541 -0.0832,-0.40226 0.0545,-0.13875 0.38329,-0.58631 0.29051,-0.39552 0.48828,-0.44995 0.20762,-0.0464 0.46343,0.16392 l 5.39173,4.43181 q 1.94811,1.60128 2.21891,3.50977 0.2708,1.90848 -0.9218,3.53218 -0.99383,1.35309 -2.49304,1.58969 -1.48937,0.24469 -2.90923,-0.42162 z m 1.86385,-8.16609 -4.01354,5.46437 0.52146,0.42862 q 0.49195,0.40436 0.98913,0.32897 0.50704,-0.0673 1.05859,-0.73233 0.56905,-0.66732 1.35646,-1.73938 1.10086,-1.4988 1.14646,-2.16239 0.0631,-0.66591 -0.5371,-1.15924 z m -4.88505,6.65092 -5.71069,7.77501 q 0.90517,0.74403 1.40131,0.73453 0.50596,-0.002 1.12087,-0.73119 0.62476,-0.7217 1.97024,-2.55357 0.27522,-0.37469 1.21659,-1.72082 0.94903,-1.35652 1.05925,-1.69992 0.11021,-0.34341 -0.002,-0.68554 -0.10178,-0.33404 -0.53469,-0.68988 z"
       style="font-style:normal;font-variant:normal;font-weight:normal;font-stretch:normal;font-size:30.5062px;line-height:1.25;font-family:'Bernard MT Condensed';-inkscape-font-specification:'Bernard MT Condensed, Normal';font-variant-ligatures:normal;font-variant-caps:normal;font-variant-numeric:normal;font-variant-east-asian:normal;letter-spacing:8.20473px;word-spacing:0px;fill:#000000;fill-opacity:1;stroke:none;stroke-width:0.656146"
       id="path935" />
    <path
       d="m -108.40767,181.60557 -2.83687,-1.36099 -0.59826,1.0445 q -0.0155,0.036 -0.069,0.0972 -0.24002,0.30457 -0.35838,0.58066 -0.18527,0.43215 0.21941,0.98812 0.21678,0.29215 0.21283,0.49288 -0.004,0.20072 -0.16864,0.58485 -0.211,0.49217 -0.31404,0.57299 -0.0866,0.0742 -0.27947,-0.0183 l -2.99573,-1.43721 q -0.24965,-0.11976 -0.0129,-0.67195 0.28304,-0.66023 0.85517,-0.87784 0.534,-0.19247 0.77085,-0.5854 l 8.1563,-13.12178 q 0.19568,-0.29689 0.2986,-0.53697 0.15953,-0.37213 -0.2049,-0.89432 -0.1652,-0.25293 0.0458,-0.7451 0.28304,-0.66023 0.41802,-0.78362 0.13499,-0.12339 0.43002,0.0181 l 4.33474,2.07959 q 0.39716,0.19054 0.3862,0.66289 -0.011,0.47235 -0.42332,1.88103 -0.1532,0.54884 -0.30125,1.08568 l -3.79462,14.0854 q -0.27552,1.02565 0.0417,1.7857 0.0909,0.20281 0.10028,0.30862 0.0145,0.0938 -0.15531,0.48994 -0.26245,0.61221 -0.40364,0.71815 -0.13604,0.0939 -0.39704,-0.0312 l -5.04962,-2.42257 q -0.22695,-0.10887 -0.0314,-0.56503 0.24702,-0.57621 0.36551,-0.69304 0.11849,-0.11683 0.47317,-0.17824 0.51038,-0.0735 0.68535,-0.48169 0.18011,-0.42015 0.60052,-2.07101 z m 3.22867,-11.36099 -5.25813,8.72296 2.49644,1.19767 z"
       style="font-style:normal;font-variant:normal;font-weight:normal;font-stretch:normal;font-size:30.5062px;line-height:1.25;font-family:'Bernard MT Condensed';-inkscape-font-specification:'Bernard MT Condensed, Normal';font-variant-ligatures:normal;font-variant-caps:normal;font-variant-numeric:normal;font-variant-east-asian:normal;letter-spacing:8.20473px;word-spacing:0px;fill:#000000;fill-opacity:1;stroke:none;stroke-width:0.656146"
       id="path937" />
    <path
       d="m -96.451265,188.01648 2.86329,-15.67207 q 0.0106,-0.26633 -0.36948,-0.47829 -0.29915,-0.16856 -0.37378,-0.38519 -0.0723,-0.22958 0.0483,-0.88959 0.0875,-0.47884 0.2749,-0.60161 0.1874,-0.12278 0.84801,0.0123 l 5.859827,1.19809 q 2.507864,0.51275 3.700273,3.29385 1.204647,2.78359 0.166677,8.46488 -0.945765,5.17658 -3.006631,7.42676 -2.058499,2.23724 -4.676456,1.70198 l -6.45928,-1.32065 q -0.26913,-0.055 -0.35558,-0.20696 -0.0719,-0.16236 0.0133,-0.62825 0.10166,-0.55648 0.16437,-0.69134 0.0627,-0.13484 0.41388,-0.25099 0.75365,-0.23523 0.88841,-0.9729 z m 7.56073,-15.54398 -3.27469,17.92388 0.64837,0.13257 q 0.68508,0.14007 1.11191,-0.39021 0.42919,-0.54321 0.71056,-2.08324 l 2.416411,-13.22614 q 0.15842,-0.86709 -0.133745,-1.49067 -0.292165,-0.62358 -1.013946,-0.77115 z"
       style="font-style:normal;font-variant:normal;font-weight:normal;font-stretch:normal;font-size:30.5062px;line-height:1.25;font-family:'Bernard MT Condensed';-inkscape-font-specification:'Bernard MT Condensed, Normal';font-variant-ligatures:normal;font-variant-caps:normal;font-variant-numeric:normal;font-variant-east-asian:normal;letter-spacing:8.20473px;word-spacing:0px;fill:#000000;fill-opacity:1;stroke:none;stroke-width:0.656146"
       id="path939" />
    <path
       d="m -77.662183,172.50679 5.391651,-0.20463 q 0.27394,-0.0104 0.353118,0.11849 0.07873,0.11572 0.10062,0.76117 0.02189,0.64546 -0.332067,0.86992 -0.26858,0.16846 -0.362387,0.34348 -0.08136,0.17456 -0.06483,0.66193 l 0.500319,14.75315 q 0.02055,0.60593 0.357252,0.97565 0.336256,0.35654 0.83433,0.33763 0.460718,-0.0175 0.770172,-0.45128 0.309453,-0.43381 0.292032,-0.94754 l -0.50032,-14.75314 q -0.01296,-0.38201 -0.09258,-0.52406 -0.06762,-0.15571 -0.349155,-0.36924 -0.434977,-0.32642 -0.4591,-1.03774 -0.01876,-0.55324 0.08973,-0.66287 0.120498,-0.12328 0.344631,-0.13178 l 2.6896,-0.10208 q 0.448267,-0.017 0.464348,0.4572 l 0.02144,0.63227 q 0.0143,0.42153 -0.03149,0.54197 -0.04623,0.10726 -0.279692,0.20845 -0.57809,0.23297 -0.556201,0.87842 l 0.487365,14.37115 q 0.06924,2.04173 -0.998323,3.28248 -1.06801,1.22758 -3.047855,1.30272 -2.216429,0.0842 -3.429787,-1.13602 -1.200906,-1.2206 -1.281762,-3.60482 L -77.22196,175.1939 q -0.01876,-0.55324 -0.575578,-0.7959 -0.278408,-0.12133 -0.34424,-0.22434 -0.05383,-0.11666 -0.06633,-0.48549 -0.02591,-0.764 0.05455,-0.9649 0.08046,-0.20089 0.491375,-0.21648 z"
       style="font-style:normal;font-variant:normal;font-weight:normal;font-stretch:normal;font-size:30.5062px;line-height:1.25;font-family:'Bernard MT Condensed';-inkscape-font-specification:'Bernard MT Condensed, Normal';font-variant-ligatures:normal;font-variant-caps:normal;font-variant-numeric:normal;font-variant-east-asian:normal;letter-spacing:8.20473px;word-spacing:0px;fill:#000000;fill-opacity:1;stroke:none;stroke-width:0.656146"
       id="path941" />
    <path
       d="m -43.287132,179.43661 q -0.532889,1.68132 -1.778828,2.2531 -1.531706,0.70291 -3.367474,-0.49486 -1.829294,-1.2151 -3.098719,-4.31069 -0.733885,-1.78963 -0.953392,-3.81532 -0.219508,-2.02569 0.429201,-3.7889 0.660139,-1.76846 2.580486,-2.64973 2.434727,-1.11732 4.698548,0.32941 2.275253,1.44147 4.333108,6.45971 2.340501,5.70749 1.060986,9.21133 -1.284472,3.49174 -4.99943,5.19658 -0.674408,0.3095 -0.851245,0.2757 -0.171878,-0.0217 -0.345432,-0.44492 -0.272728,-0.66507 -0.273566,-0.86583 0.01059,-0.20601 0.183566,-0.31412 1.618867,-0.98717 2.33539,-1.79013 0.727953,-0.8082 0.857486,-1.91649 0.140964,-1.11354 -0.44912,-2.5525 -0.109091,-0.26603 -0.361565,-0.78234 z m -4.358687,-10.629 q -0.431406,-1.05201 -1.254412,-0.67432 -0.811576,0.37244 -0.335541,1.53327 l 3.555379,8.67007 q 0.193389,0.47159 0.539497,0.68633 0.341149,0.20263 0.684069,0.0453 0.400072,-0.1836 0.465048,-0.68755 0.06498,-0.50395 -0.143289,-1.01183 z"
       style="font-style:normal;font-variant:normal;font-weight:normal;font-stretch:normal;font-size:30.5062px;line-height:1.25;font-family:'Bernard MT Condensed';-inkscape-font-specification:'Bernard MT Condensed, Normal';font-variant-ligatures:normal;font-variant-caps:normal;font-variant-numeric:normal;font-variant-east-asian:normal;letter-spacing:8.20473px;word-spacing:0px;fill:#000000;fill-opacity:1;stroke:none;stroke-width:0.656146"
       id="path943" />
    <path
       d="m -36.070684,166.74862 -2.467548,-2.57342 -1.746722,-2.69651 3.145122,-2.27996 1.746722,2.6965 1.450008,3.31107 z"
       style="font-style:normal;font-variant:normal;font-weight:normal;font-stretch:normal;font-size:30.5062px;line-height:1.25;font-family:'Bernard MT Condensed';-inkscape-font-specification:'Bernard MT Condensed, Normal';font-variant-ligatures:normal;font-variant-caps:normal;font-variant-numeric:normal;font-variant-east-asian:normal;letter-spacing:8.20473px;word-spacing:0px;fill:#000000;fill-opacity:1;stroke:none;stroke-width:0.656146"
       id="path945" />
    <path
       d="m -25.888267,153.65714 2.889448,2.12438 q 0.130394,0.10502 0.216901,0.19989 0.24222,0.26562 -0.242018,0.75978 -0.322825,0.32945 -0.553126,0.39965 -0.221334,0.0611 -0.747026,-0.11674 -0.613149,-0.21675 -1.597543,-0.36597 -0.984395,-0.14922 -1.334122,0.20768 -0.13451,0.13727 -0.121009,0.3799 0.02247,0.23347 0.186833,0.41371 0.441185,0.4838 3.809286,1.40545 2.920582,0.8106 4.344895,1.51817 1.424314,0.70757 2.704617,2.11155 1.358159,1.48936 1.509641,2.94644 0.14283,1.44759 -0.682167,2.28952 -0.520107,0.53077 -1.457347,0.71803 -0.512824,0.10212 -0.620433,0.21193 -0.125542,0.12812 0.05549,0.36461 0.1977,0.29273 0.186516,0.43235 -0.0025,0.1491 -0.397097,0.55176 -0.30489,0.31114 -0.481071,0.30779 -0.17618,-0.004 -0.428317,-0.2039 l -2.861913,-2.18912 q -0.199916,-0.16227 -0.24317,-0.2097 -0.242219,-0.26561 0.358594,-0.87875 0.313857,-0.3203 0.508289,-0.35389 0.2034,-0.0427 0.763694,0.17299 2.109518,0.83247 2.737233,0.19188 0.403531,-0.41182 -0.06361,-0.92408 -0.415233,-0.45534 -1.334323,-0.81772 -0.910123,-0.37153 -3.181369,-1.02064 -2.402591,-0.69821 -3.818571,-1.37766 -1.407011,-0.6886 -2.419143,-1.7985 -1.375461,-1.50833 -1.440435,-2.87055 -0.06498,-1.36222 0.80486,-2.24989 0.457334,-0.46673 1.342987,-0.72954 0.451635,-0.13124 0.559244,-0.24106 0.143478,-0.14641 -0.01128,-0.37308 -0.154446,-0.2453 -0.09009,-0.40256 0.06436,-0.15724 0.414082,-0.51414 0.224184,-0.22878 0.338859,-0.23593 0.114993,-0.0257 0.393715,0.16596 z"
       style="font-style:normal;font-variant:normal;font-weight:normal;font-stretch:normal;font-size:30.5062px;line-height:1.25;font-family:'Bernard MT Condensed';-inkscape-font-specification:'Bernard MT Condensed, Normal';font-variant-ligatures:normal;font-variant-caps:normal;font-variant-numeric:normal;font-variant-east-asian:normal;letter-spacing:8.20473px;word-spacing:0px;fill:#000000;fill-opacity:1;stroke:none;stroke-width:0.656146"
       id="path947" />
    <g
       transform="matrix(0.37005477,-0.04624508,0.01311893,0.4161818,-32.85495,162.52438)"
       id="g1880"
       style="stroke:none;stroke-width:6.08997;stroke-miterlimit:4;stroke-dasharray:none;stroke-opacity:1">
      <path
         sodipodi:nodetypes="cccccc"
         style="color:#000000;font-style:normal;font-variant:normal;font-weight:normal;font-stretch:normal;font-size:medium;line-height:normal;font-family:sans-serif;font-variant-ligatures:normal;font-variant-position:normal;font-variant-caps:normal;font-variant-numeric:normal;font-variant-alternates:normal;font-variant-east-asian:normal;font-feature-settings:normal;font-variation-settings:normal;text-indent:0;text-align:start;text-decoration:none;text-decoration-line:none;text-decoration-style:solid;text-decoration-color:#000000;letter-spacing:normal;word-spacing:normal;text-transform:none;writing-mode:lr-tb;direction:ltr;text-orientation:mixed;dominant-baseline:auto;baseline-shift:baseline;text-anchor:start;white-space:normal;shape-padding:0;shape-margin:0;inline-size:0;clip-rule:nonzero;display:inline;overflow:visible;visibility:visible;isolation:auto;mix-blend-mode:normal;color-interpolation:sRGB;color-interpolation-filters:linearRGB;solid-color:#000000;solid-opacity:1;vector-effect:none;fill:#000000;fill-opacity:1;fill-rule:nonzero;stroke:none;stroke-width:6.08997;stroke-linecap:butt;stroke-linejoin:miter;stroke-miterlimit:4;stroke-dasharray:none;stroke-dashoffset:0;stroke-opacity:1;color-rendering:auto;image-rendering:auto;shape-rendering:auto;text-rendering:auto;enable-background:accumulate;stop-color:#000000;stop-opacity:1"
         d="m -220.48833,-202.06297 c 1.18785,12.79714 -102.64397,26.26993 -102.64397,41.16055 H 98.644333 c 0,-15.69386 -115.040778,-25.4667 -115.040778,-41.16055 l -203.826235,0.22548 z"
         id="path1876" />
    </g>
    <g
       transform="matrix(0.37473292,-0.04674765,0.01328477,0.42070465,-31.780759,163.53879)"
       id="g1886"
       style="fill:#ffff00;fill-opacity:1;stroke:#000000;stroke-width:0.245814;stroke-miterlimit:4;stroke-dasharray:none;stroke-opacity:1">
      <path
         sodipodi:nodetypes="ccccc"
         style="color:#000000;font-style:normal;font-variant:normal;font-weight:normal;font-stretch:normal;font-size:medium;line-height:normal;font-family:sans-serif;font-variant-ligatures:normal;font-variant-position:normal;font-variant-caps:normal;font-variant-numeric:normal;font-variant-alternates:normal;font-variant-east-asian:normal;font-feature-settings:normal;font-variation-settings:normal;text-indent:0;text-align:start;text-decoration:none;text-decoration-line:none;text-decoration-style:solid;text-decoration-color:#000000;letter-spacing:normal;word-spacing:normal;text-transform:none;writing-mode:lr-tb;direction:ltr;text-orientation:mixed;dominant-baseline:auto;baseline-shift:baseline;text-anchor:start;white-space:normal;shape-padding:0;shape-margin:0;inline-size:0;clip-rule:nonzero;display:inline;overflow:visible;visibility:visible;isolation:auto;mix-blend-mode:normal;color-interpolation:sRGB;color-interpolation-filters:linearRGB;solid-color:#000000;solid-opacity:1;vector-effect:none;fill:#ffff00;fill-opacity:1;fill-rule:nonzero;stroke:#000000;stroke-width:0.245814;stroke-linecap:butt;stroke-linejoin:miter;stroke-miterlimit:4;stroke-dasharray:none;stroke-dashoffset:0;stroke-opacity:1;color-rendering:auto;image-rendering:auto;shape-rendering:auto;text-rendering:auto;enable-background:accumulate;stop-color:#000000;stop-opacity:1"
         d="m -221.5497,-227.63661 202.64168,1.97931 -0.07447,23.09315 -201.25024,0.22114 z"
         id="path1882" />
    </g>
    <path
       sodipodi:nodetypes="cccsc"
       style="color:#000000;font-style:normal;font-variant:normal;font-weight:normal;font-stretch:normal;font-size:medium;line-height:normal;font-family:sans-serif;font-variant-ligatures:normal;font-variant-position:normal;font-variant-caps:normal;font-variant-numeric:normal;font-variant-alternates:normal;font-variant-east-asian:normal;font-feature-settings:normal;font-variation-settings:normal;text-indent:0;text-align:start;text-decoration:none;text-decoration-line:none;text-decoration-style:solid;text-decoration-color:#000000;letter-spacing:normal;word-spacing:normal;text-transform:none;writing-mode:lr-tb;direction:ltr;text-orientation:mixed;dominant-baseline:auto;baseline-shift:baseline;text-anchor:start;white-space:normal;shape-padding:0;shape-margin:0;inline-size:0;clip-rule:nonzero;display:inline;overflow:visible;visibility:visible;isolation:auto;mix-blend-mode:normal;color-interpolation:sRGB;color-interpolation-filters:linearRGB;solid-color:#000000;solid-opacity:1;vector-effect:none;fill:#000000;fill-opacity:1;fill-rule:nonzero;stroke:none;stroke-width:2.69756;stroke-linecap:butt;stroke-linejoin:miter;stroke-miterlimit:4;stroke-dasharray:none;stroke-dashoffset:0;stroke-opacity:1;color-rendering:auto;image-rendering:auto;shape-rendering:auto;text-rendering:auto;enable-background:accumulate;stop-color:#000000"
       d="m -80.335099,47.290643 c -28.891371,-3.869737 -34.766581,5.487781 -37.577411,31.222803 l 76.020013,-9.054417 c -3.693566,-23.769944 -9.855327,-26.94799 -15.862801,-25.94358 z"
       id="path1888" />
  </g>
</svg>
