<?xml version="1.0" encoding="UTF-8" standalone="no"?>
<svg
   xmlns:osb="http://www.openswatchbook.org/uri/2009/osb"
   xmlns:dc="http://purl.org/dc/elements/1.1/"
   xmlns:cc="http://creativecommons.org/ns#"
   xmlns:rdf="http://www.w3.org/1999/02/22-rdf-syntax-ns#"
   xmlns:svg="http://www.w3.org/2000/svg"
   xmlns="http://www.w3.org/2000/svg"
   xmlns:sodipodi="http://sodipodi.sourceforge.net/DTD/sodipodi-0.dtd"
   xmlns:inkscape="http://www.inkscape.org/namespaces/inkscape"
   inkscape:export-ydpi="60.950001"
   inkscape:export-xdpi="60.950001"
   inkscape:export-filename="C:\Users\Aldeen\Documents\Logos\Halo Badu-434x450.png"
   sodipodi:docname="Halo Badu.svg"
   inkscape:version="1.0 (4035a4fb49, 2020-05-01)"
   id="svg2140"
   version="1.1"
   viewBox="0 0 250.28484 302.03354"
   height="302.03354mm"
   width="250.28487mm">
  <defs
     id="defs2134">
    <rect
       x="-153.29337"
       y="212.44018"
       width="141.04404"
       height="32.481455"
       id="rect970" />
    <rect
       id="rect9929"
       height="70.158249"
       width="130.37743"
       y="95.298294"
       x="-232.69153" />
    <rect
       id="rect9659"
       height="33.325169"
       width="81.26664"
       y="94.42131"
       x="-101.72946" />
    <linearGradient
       osb:paint="solid"
       id="linearGradient9619">
      <stop
         id="stop9617"
         offset="0"
         style="stop-color:#ffff00;stop-opacity:1;" />
    </linearGradient>
  </defs>
  <sodipodi:namedview
     fit-margin-bottom="0"
     fit-margin-right="0"
     fit-margin-left="0"
     fit-margin-top="0"
     width="302px"
     units="mm"
     inkscape:snap-smooth-nodes="true"
     inkscape:snap-intersection-paths="true"
     inkscape:object-paths="true"
     inkscape:window-maximized="1"
     inkscape:window-y="-11"
     inkscape:window-x="-11"
     inkscape:window-height="1046"
     inkscape:window-width="1920"
     showborder="true"
     inkscape:showpageshadow="true"
     showgrid="false"
     inkscape:document-rotation="0"
     inkscape:current-layer="layer1"
     inkscape:document-units="px"
     inkscape:cy="496.1671"
     inkscape:cx="1040.0231"
     inkscape:zoom="0.45254834"
     inkscape:pageshadow="2"
     inkscape:pageopacity="0.0"
     borderopacity="1.0"
     bordercolor="#666666"
     pagecolor="#ffffff"
     id="base"
     inkscape:snap-global="false"
     showguides="true"
     inkscape:guide-bbox="true" />
  <metadata
     id="metadata2137">
    <rdf:RDF>
      <cc:Work
         rdf:about="">
        <dc:format>image/svg+xml</dc:format>
        <dc:type
           rdf:resource="http://purl.org/dc/dcmitype/StillImage" />
        <dc:title />
      </cc:Work>
    </rdf:RDF>
  </metadata>
  <g
     transform="translate(221.69163,-2.0758933)"
     id="layer1"
     inkscape:groupmode="layer"
     inkscape:label="Layer 1"
     style="display:inline">
    <g
       inkscape:export-ydpi="70.505333"
       inkscape:export-xdpi="70.505333"
       transform="matrix(0.43895861,0,0,0.42357501,-145.93552,85.129032)"
       id="g9959"
       style="display:inline"
       inkscape:groupmode="layer">
      <ellipse
         style="fill:#000000;stroke:none;stroke-width:1.84176;paint-order:stroke fill markers"
         id="path1146"
         cx="-248.5143"
         cy="132.54047"
         rx="92.061424"
         ry="95.404953"
         transform="scale(-1,1)" />
      <g
         id="g1874"
         transform="matrix(0.09535052,0.00221232,-0.00269591,0.07225066,-140.71821,54.208639)">
        <g
           transform="matrix(1.4433,0,0,1.4114247,-857.64715,161.34725)"
           id="g1872">
          <path
             sodipodi:nodetypes="cscssssscccccsssac"
             d="m 1669.4485,657.98979 c -47.0058,3.59628 -91.9044,33.279 -112.2364,69.39128 -24.2751,43.11567 -33.4567,104.16881 -25.9006,154.97791 4.4654,14.28553 -16.1273,37.40193 -29.2625,46.97191 -20.2721,14.76961 -11.3134,33.82361 -7.3497,50.32894 3.0266,12.60371 1.2043,3.1428 7.5736,36.62707 6.5033,34.1885 11.3013,48.6773 20.7,65.278 17.0801,30.1683 46.0554,54.9566 76.652,59.3305 74.235,10.6123 137.9159,-28.9167 137.2484,-86.1213 l 5.271,451.6764 c -0.2328,23.1355 23.5933,41.9072 53.4238,42.0887 l 9.8558,0.061 c 29.831,0.1817 54.0356,-18.299 54.2696,-41.435 0,0 -15.0112,-323.961 9.0225,-504.677 12.2101,-91.81085 19.1396,-128.74577 16.3682,-169.95178 -8.7706,-130.40535 -33.3713,-168.62688 -139.7455,-177.71129 0,0 -23.4902,-2.98674 -35.2541,-2.58823 -13.6096,0.46108 -40.6361,5.75267 -40.6361,5.75267 z"
             style="fill:#000000;fill-opacity:1;stroke:none;stroke-width:12.7871;stroke-miterlimit:4;stroke-dasharray:none;stroke-opacity:1"
             id="path1866" />
          <path
             id="path1868"
             style="fill:#552200;fill-opacity:1;stroke:none;stroke-width:12.7871;stroke-miterlimit:4;stroke-dasharray:none;stroke-opacity:1"
             d="m 1675.023,690.79426 c -43.1197,3.29906 -84.3062,30.52769 -102.9573,63.65446 -22.268,39.55077 -30.6906,95.55642 -23.7592,142.16477 4.0962,13.10486 -14.794,34.30976 -26.8433,43.08879 -18.5959,13.5483 -10.378,31.02689 -6.742,46.16769 2.7765,11.56172 1.1048,2.88291 6.9475,33.59893 5.9656,31.3619 10.3669,44.6529 18.9886,59.8812 15.668,27.6739 42.2478,50.4128 70.3147,54.4252 68.0975,9.7349 126.5136,-26.526 125.9013,-79.0013 l 5.271,451.6765 c -0.2136,21.2227 17.4375,41.497 53.4238,42.0887 5.8653,-0.072 11.7312,0.3518 17.5958,-0.3156 21.8706,-1.7938 45.8556,-16.9177 46.5296,-41.0582 0,0 -23.9244,-334.5791 -1.8777,-500.3542 11.2005,-84.22033 17.5572,-118.10151 15.0149,-155.9009 -8.0454,-119.62387 -30.6122,-154.68561 -128.1919,-163.01904 0,0 -21.5482,-2.73966 -32.3395,-2.37399 -12.4844,0.42293 -37.2763,5.27692 -37.2763,5.27692 z"
             sodipodi:nodetypes="cscssssscccccsssacc" />
          <path
             sodipodi:nodetypes="cscssssscccccsssacc"
             d="m 1681.547,728.48178 c -38.5683,2.95083 -75.4076,27.3055 -92.09,56.9357 -19.9177,35.37618 -27.4512,85.47036 -21.2514,127.15915 3.6638,11.72166 -13.2324,30.68835 -24.0099,38.54074 -16.6332,12.11828 -9.2826,27.75202 -6.0304,41.29467 2.4834,10.34136 0.9882,2.57864 6.2141,30.05256 5.3359,28.0516 9.2727,39.9397 16.9843,53.5607 14.0143,24.7529 37.7886,45.0917 62.893,48.6806 60.9097,8.7073 113.16,-23.7263 112.6123,-70.6627 l 4.7147,404.0017 c -1.1766,50.3664 -3.6708,70.3658 23.3546,83.668 19.4763,7.8603 30.6298,6.8263 40.4856,6.8875 27.8355,0.074 55.7185,-18.2576 54.2696,-41.435 0,0 -34.3672,-347.745 -14.6476,-496.0225 10.0184,-75.33081 15.7041,-105.63579 13.4302,-139.44541 -7.1963,-106.99752 -27.3812,-138.35846 -114.6613,-145.81229 0,0 -19.2737,-2.4505 -28.926,-2.12342 -11.1667,0.37829 -33.3418,4.71996 -33.3418,4.71996 z"
             style="fill:#803300;fill-opacity:1;stroke:none;stroke-width:12.7871;stroke-miterlimit:4;stroke-dasharray:none;stroke-opacity:1"
             id="path1870" />
        </g>
      </g>
      <g
         style="stroke:#ffff00;stroke-width:6.08997;stroke-miterlimit:4;stroke-dasharray:none;stroke-opacity:1"
         id="g1892"
         transform="matrix(0.24045791,-0.0308797,-2.9394133e-4,0.32806077,33.177733,233.22259)">
        <g
           id="g9633"
           transform="translate(12.765609,-71.490975)"
           style="stroke:#ffff00;stroke-opacity:1">
          <g
             transform="matrix(0.99388559,-0.00441254,0.0271512,0.79276528,6.054377,-48.728391)"
             id="g1880"
             style="stroke:#ffff00;stroke-width:6.08997;stroke-miterlimit:4;stroke-dasharray:none;stroke-opacity:1">
            <path
               sodipodi:nodetypes="cccccc"
               style="color:#000000;font-style:normal;font-variant:normal;font-weight:normal;font-stretch:normal;font-size:medium;line-height:normal;font-family:sans-serif;font-variant-ligatures:normal;font-variant-position:normal;font-variant-caps:normal;font-variant-numeric:normal;font-variant-alternates:normal;font-variant-east-asian:normal;font-feature-settings:normal;font-variation-settings:normal;text-indent:0;text-align:start;text-decoration:none;text-decoration-line:none;text-decoration-style:solid;text-decoration-color:#000000;letter-spacing:normal;word-spacing:normal;text-transform:none;writing-mode:lr-tb;direction:ltr;text-orientation:mixed;dominant-baseline:auto;baseline-shift:baseline;text-anchor:start;white-space:normal;shape-padding:0;shape-margin:0;inline-size:0;clip-rule:nonzero;display:inline;overflow:visible;visibility:visible;isolation:auto;mix-blend-mode:normal;color-interpolation:sRGB;color-interpolation-filters:linearRGB;solid-color:#000000;solid-opacity:1;vector-effect:none;fill:#000000;fill-opacity:1;fill-rule:nonzero;stroke:#ffff00;stroke-width:6.08997;stroke-linecap:butt;stroke-linejoin:miter;stroke-miterlimit:4;stroke-dasharray:none;stroke-dashoffset:0;stroke-opacity:1;color-rendering:auto;image-rendering:auto;shape-rendering:auto;text-rendering:auto;enable-background:accumulate;stop-color:#000000;stop-opacity:1"
               d="m -220.48833,-202.06297 c 1.18785,12.79714 -102.64397,26.26993 -102.64397,41.16055 H 98.644333 c 0,-15.69386 -115.040778,-25.4667 -115.040778,-41.16055 l -203.826235,0.22548 z"
               id="path1876" />
          </g>
          <g
             transform="matrix(1.0064485,-0.00431261,0.02750873,0.80138591,8.917198,-46.561346)"
             id="g1886"
             style="fill:#ffff00;fill-opacity:1;stroke:#ffff00;stroke-width:0.245814;stroke-miterlimit:4;stroke-dasharray:none;stroke-opacity:1">
            <path
               sodipodi:nodetypes="ccccc"
               style="color:#000000;font-style:normal;font-variant:normal;font-weight:normal;font-stretch:normal;font-size:medium;line-height:normal;font-family:sans-serif;font-variant-ligatures:normal;font-variant-position:normal;font-variant-caps:normal;font-variant-numeric:normal;font-variant-alternates:normal;font-variant-east-asian:normal;font-feature-settings:normal;font-variation-settings:normal;text-indent:0;text-align:start;text-decoration:none;text-decoration-line:none;text-decoration-style:solid;text-decoration-color:#000000;letter-spacing:normal;word-spacing:normal;text-transform:none;writing-mode:lr-tb;direction:ltr;text-orientation:mixed;dominant-baseline:auto;baseline-shift:baseline;text-anchor:start;white-space:normal;shape-padding:0;shape-margin:0;inline-size:0;clip-rule:nonzero;display:inline;overflow:visible;visibility:visible;isolation:auto;mix-blend-mode:normal;color-interpolation:sRGB;color-interpolation-filters:linearRGB;solid-color:#000000;solid-opacity:1;vector-effect:none;fill:#ffff00;fill-opacity:1;fill-rule:nonzero;stroke:#ffff00;stroke-width:0.245814;stroke-linecap:butt;stroke-linejoin:miter;stroke-miterlimit:4;stroke-dasharray:none;stroke-dashoffset:0;stroke-opacity:1;color-rendering:auto;image-rendering:auto;shape-rendering:auto;text-rendering:auto;enable-background:accumulate;stop-color:#000000;stop-opacity:1"
               d="m -221.5497,-227.63661 202.64168,1.97931 -0.07447,23.09315 -201.25024,0.22114 z"
               id="path1882" />
          </g>
          <path
             sodipodi:nodetypes="cccsc"
             style="color:#000000;font-style:normal;font-variant:normal;font-weight:normal;font-stretch:normal;font-size:medium;line-height:normal;font-family:sans-serif;font-variant-ligatures:normal;font-variant-position:normal;font-variant-caps:normal;font-variant-numeric:normal;font-variant-alternates:normal;font-variant-east-asian:normal;font-feature-settings:normal;font-variation-settings:normal;text-indent:0;text-align:start;text-decoration:none;text-decoration-line:none;text-decoration-style:solid;text-decoration-color:#000000;letter-spacing:normal;word-spacing:normal;text-transform:none;writing-mode:lr-tb;direction:ltr;text-orientation:mixed;dominant-baseline:auto;baseline-shift:baseline;text-anchor:start;white-space:normal;shape-padding:0;shape-margin:0;inline-size:0;clip-rule:nonzero;display:inline;overflow:visible;visibility:visible;isolation:auto;mix-blend-mode:normal;color-interpolation:sRGB;color-interpolation-filters:linearRGB;solid-color:#000000;solid-opacity:1;vector-effect:none;fill:#000000;fill-opacity:1;fill-rule:nonzero;stroke:#000000;stroke-width:6.08997;stroke-linecap:butt;stroke-linejoin:miter;stroke-miterlimit:4;stroke-dasharray:none;stroke-dashoffset:0;stroke-opacity:1;color-rendering:auto;image-rendering:auto;shape-rendering:auto;text-rendering:auto;enable-background:accumulate;stop-color:#000000;stop-opacity:1"
             d="m -119.12269,-278.10781 c -77.45115,-13.85115 -93.39751,2.58381 -101.43784,50.78944 l 204.164378,-0.0607 c -9.451309,-45.94141 -25.924063,-53.3604 -42.063722,-52.80737 z"
             id="path1888" />
        </g>
      </g>
    </g>
  </g>
</svg>
