<?xml version="1.0" encoding="UTF-8" standalone="no"?>
<svg
   xmlns:dc="http://purl.org/dc/elements/1.1/"
   xmlns:cc="http://creativecommons.org/ns#"
   xmlns:rdf="http://www.w3.org/1999/02/22-rdf-syntax-ns#"
   xmlns:svg="http://www.w3.org/2000/svg"
   xmlns="http://www.w3.org/2000/svg"
   xmlns:sodipodi="http://sodipodi.sourceforge.net/DTD/sodipodi-0.dtd"
   xmlns:inkscape="http://www.inkscape.org/namespaces/inkscape"
   sodipodi:docname="The 9 of Badu.svg"
   inkscape:version="1.0 (4035a4fb49, 2020-05-01)"
   id="svg931"
   version="1.1"
   viewBox="0 0 210 297"
   height="297mm"
   width="210mm">
  <title
     id="title1801">9</title>
  <defs
     id="defs925" />
  <sodipodi:namedview
     inkscape:window-maximized="1"
     inkscape:window-y="-11"
     inkscape:window-x="-11"
     inkscape:window-height="1046"
     inkscape:window-width="1920"
     inkscape:snap-global="true"
     inkscape:snap-bbox-midpoints="true"
     inkscape:bbox-nodes="false"
     inkscape:bbox-paths="false"
     inkscape:snap-bbox="true"
     inkscape:snap-smooth-nodes="true"
     inkscape:snap-intersection-paths="true"
     inkscape:object-paths="true"
     inkscape:showpageshadow="false"
     showborder="false"
     showgrid="false"
     inkscape:document-rotation="0"
     inkscape:current-layer="layer1"
     inkscape:document-units="px"
     inkscape:cy="-7317.1485"
     inkscape:cx="1424.6583"
     inkscape:zoom="0.04375"
     inkscape:pageshadow="2"
     inkscape:pageopacity="0.0"
     borderopacity="1.0"
     bordercolor="#666666"
     pagecolor="#ffffff"
     id="base" />
  <metadata
     id="metadata928">
    <rdf:RDF>
      <cc:Work
         rdf:about="">
        <dc:format>image/svg+xml</dc:format>
        <dc:type
           rdf:resource="http://purl.org/dc/dcmitype/StillImage" />
        <dc:title>9</dc:title>
      </cc:Work>
    </rdf:RDF>
  </metadata>
  <g
     id="layer1"
     inkscape:groupmode="layer"
     inkscape:label="Layer 1">
    <g
       id="g1829">
      <path
         id="path933"
         style="fill:#000000;fill-opacity:1;stroke-width:1.72189"
         d="m 1789.3447,-3009.9638 c -137.7091,10.6895 -269.2446,98.9178 -328.8095,206.2572 -71.1165,128.1561 -98.0152,309.6292 -75.8787,460.6531 13.0817,42.462 -47.2466,111.1727 -85.7279,139.6183 -59.3891,43.9009 -33.1438,100.5366 -21.5318,149.5967 8.867,37.463 3.5283,9.3416 22.1879,108.8694 19.0521,101.6212 33.1082,144.6874 60.6428,194.0312 50.0383,89.6716 134.9247,163.3516 224.5609,176.3526 217.4796,31.5437 404.0404,-85.9513 402.0847,-255.9852 l 15.4419,1342.55372 c -0.6819,68.76734 69.1193,124.56406 156.5112,125.10363 l 28.8736,0.18183 c 87.3935,0.5402 158.3034,-54.39167 158.989,-123.16058 0,0 -43.9767,-962.9348 26.4326,-1500.0913 35.7706,-272.8967 56.0716,-382.6813 47.9525,-505.1612 -25.6945,-387.6141 -97.7649,-501.223 -409.4006,-528.2253 0,0 -68.8171,-8.8777 -103.2808,-7.6932 -39.871,1.3705 -119.0478,17.0991 -119.0478,17.0991 z"
         sodipodi:nodetypes="cscssssscccccsssac" />
      <path
         sodipodi:nodetypes="cscssssscccccsssacc"
         d="m 1805.6756,-2912.4565 c -126.3239,9.8061 -246.9846,90.7399 -301.625,189.2052 -65.2368,117.5599 -89.9116,284.0299 -69.6053,422.5676 12.0001,38.9526 -43.3405,101.9816 -78.6403,128.0762 -54.479,40.2707 -30.4035,92.2237 -19.7516,137.2279 8.134,34.3658 3.2366,8.5691 20.3535,99.8687 17.4769,93.2195 30.371,132.7253 55.6292,177.9896 45.9012,82.2575 123.7696,149.846 205.9951,161.7724 199.4991,28.9357 370.6359,-78.8455 368.8419,-234.8217 l 15.4419,1342.55382 c -0.6255,63.08184 51.0852,123.34486 156.5112,125.10363 17.1831,-0.21433 34.3678,1.04542 51.5487,-0.93833 64.0726,-5.33183 134.3393,-50.28566 136.3139,-122.04042 0,0 -70.089,-994.496 -5.5009,-1487.2425 32.8133,-250.3347 51.4358,-351.0424 43.9881,-463.3965 -23.5702,-355.5675 -89.6822,-459.7843 -375.5531,-484.5544 0,0 -63.1276,-8.1433 -94.742,-7.0564 -36.5746,1.2571 -109.2053,15.685 -109.2053,15.685 z"
         style="fill:#552200;fill-opacity:1;stroke-width:1.5795"
         id="path1715" />
      <path
         id="path1719"
         style="fill:#803300;fill-opacity:1;stroke-width:1.41278"
         d="m 1824.7886,-2800.4349 c -112.9903,8.771 -220.9152,81.1623 -269.7882,169.2345 -58.3511,105.1514 -80.4214,254.0503 -62.2585,377.9652 10.7336,34.8412 -38.7658,91.2174 -70.3396,114.5577 -48.7288,36.0201 -27.1945,82.4895 -17.6669,122.7434 7.2754,30.7385 2.895,7.6647 18.2052,89.3275 15.6322,83.3801 27.1653,118.7161 49.7575,159.2027 41.0563,73.5751 110.7056,134.0297 184.2521,144.6972 178.4419,25.8815 331.515,-70.5234 329.9104,-210.0361 l 13.812,1200.8463 c -3.4467,149.70798 -10.7539,209.15366 68.42,248.69287 57.0581,23.36392 89.7336,20.29048 118.6072,20.47231 81.5473,0.21919 163.2338,-54.26846 158.989,-123.16058 0,0 -100.6824,-1033.6302 -42.9116,-1474.367 29.3499,-223.9117 46.0068,-313.9896 39.3451,-414.4846 -21.0823,-318.0372 -80.2162,-411.2538 -335.9132,-433.4094 0,0 -56.4644,-7.2838 -84.7419,-6.3116 -32.7141,1.1244 -97.6786,14.0295 -97.6786,14.0295 z"
         sodipodi:nodetypes="cscssssscccccsssacc" />
      <g
         id="g1707"
         transform="matrix(5.2118056,-1.4021573,0.80617196,7.1492015,2696.9739,-1429.9981)">
        <g
           style="opacity:1"
           id="g1686">
          <path
             id="path1688"
             d="m -220.48833,-202.06297 c 0,16.10728 -102.64397,26.26993 -102.64397,41.16055 H 98.644333 c 0,-15.69386 -115.040778,-25.4667 -115.040778,-41.16055 l -205.097125,-0.1616 z"
             style="color:#000000;font-style:normal;font-variant:normal;font-weight:normal;font-stretch:normal;font-size:medium;line-height:normal;font-family:sans-serif;font-variant-ligatures:normal;font-variant-position:normal;font-variant-caps:normal;font-variant-numeric:normal;font-variant-alternates:normal;font-variant-east-asian:normal;font-feature-settings:normal;font-variation-settings:normal;text-indent:0;text-align:start;text-decoration:none;text-decoration-line:none;text-decoration-style:solid;text-decoration-color:#000000;letter-spacing:normal;word-spacing:normal;text-transform:none;writing-mode:lr-tb;direction:ltr;text-orientation:mixed;dominant-baseline:auto;baseline-shift:baseline;text-anchor:start;white-space:normal;shape-padding:0;shape-margin:0;inline-size:0;clip-rule:nonzero;display:inline;overflow:visible;visibility:visible;isolation:auto;mix-blend-mode:normal;color-interpolation:sRGB;color-interpolation-filters:linearRGB;solid-color:#000000;solid-opacity:1;vector-effect:none;fill:#000000;fill-opacity:1;fill-rule:nonzero;stroke:none;stroke-width:0.0842972;stroke-linecap:butt;stroke-linejoin:miter;stroke-miterlimit:4;stroke-dasharray:none;stroke-dashoffset:0;stroke-opacity:1;color-rendering:auto;image-rendering:auto;shape-rendering:auto;text-rendering:auto;enable-background:accumulate;stop-color:#000000;stop-opacity:1" />
          <path
             id="path1690"
             d="m -221.49414,-202.26758 -0.006,0.084 h 0.006 v 0.002 h 0.006 l 0.95117,0.15234 c -0.0177,1.97901 -1.5988,3.87805 -4.38477,5.71289 -2.80163,1.84517 -6.80935,3.62105 -11.61914,5.34571 -9.61957,3.44931 -22.44887,6.69661 -35.27929,9.90429 -12.83042,3.20768 -25.6612,6.37633 -35.28711,9.67579 -4.81296,1.64972 -8.82514,3.3309 -11.63672,5.06835 -2.81158,1.73746 -4.42969,3.53439 -4.42969,5.41993 v 0.043 H 98.685547 v -0.043 c 0,-0.99374 -0.455591,-1.96173 -1.302735,-2.9043 -0.847143,-0.94257 -2.084877,-1.86235 -3.660156,-2.76367 -3.150557,-1.80264 -7.646997,-3.53215 -13.041015,-5.2168 -10.788037,-3.36929 -25.168731,-6.55299 -39.548829,-9.73633 -14.380097,-3.18333 -28.758906,-6.36693 -39.5410151,-9.73437 -5.3910548,-1.68372 -9.8827021,-3.41392 -13.0234379,-5.21094 -1.570367,-0.89851 -2.8026,-1.81367 -3.640625,-2.74609 -0.838024,-0.93243 -1.28125,-1.87967 -1.28125,-2.84766 v -0.043 z m 0.53711,0.0859 204.527342,0.16016 c 0.01255,0.97913 0.457667,1.93388 1.292969,2.86328 0.847143,0.94257 2.086831,1.8604 3.66211,2.76172 3.1505567,1.80263 7.6469971,3.5341 13.0410152,5.21875 10.7880368,3.36929 25.1687308,6.55299 39.5488278,9.73632 14.380098,3.18334 28.758906,6.36694 39.541016,9.73438 5.391055,1.68372 9.882702,3.41392 13.023438,5.21094 1.570367,0.89851 2.8026,1.81366 3.640624,2.74609 0.825499,0.91849 1.258446,1.85177 1.271485,2.80469 H -323.08008 c 0.0248,-1.82173 1.60118,-3.58694 4.38086,-5.30469 2.80176,-1.73139 6.80922,-3.41186 11.61914,-5.06055 9.61984,-3.29737 22.44873,-6.46806 35.2793,-9.67578 12.83057,-3.20772 25.66289,-6.45261 35.28906,-9.90429 4.81309,-1.72585 8.82501,-3.50367 11.63672,-5.35547 2.81171,-1.85181 4.42969,-3.78062 4.42969,-5.81641 v -0.0371 l -0.0371,-0.006 z"
             style="color:#000000;font-style:normal;font-variant:normal;font-weight:normal;font-stretch:normal;font-size:medium;line-height:normal;font-family:sans-serif;font-variant-ligatures:normal;font-variant-position:normal;font-variant-caps:normal;font-variant-numeric:normal;font-variant-alternates:normal;font-variant-east-asian:normal;font-feature-settings:normal;font-variation-settings:normal;text-indent:0;text-align:start;text-decoration:none;text-decoration-line:none;text-decoration-style:solid;text-decoration-color:#000000;letter-spacing:normal;word-spacing:normal;text-transform:none;writing-mode:lr-tb;direction:ltr;text-orientation:mixed;dominant-baseline:auto;baseline-shift:baseline;text-anchor:start;white-space:normal;shape-padding:0;shape-margin:0;inline-size:0;clip-rule:nonzero;display:inline;overflow:visible;visibility:visible;isolation:auto;mix-blend-mode:normal;color-interpolation:sRGB;color-interpolation-filters:linearRGB;solid-color:#000000;solid-opacity:1;vector-effect:none;fill-opacity:1;fill-rule:nonzero;stroke:none;stroke-width:0.0842972;stroke-linecap:butt;stroke-linejoin:miter;stroke-miterlimit:4;stroke-dasharray:none;stroke-dashoffset:0;stroke-opacity:1;color-rendering:auto;image-rendering:auto;shape-rendering:auto;text-rendering:auto;enable-background:accumulate;stop-color:#000000;stop-opacity:1" />
        </g>
        <g
           style="opacity:1"
           id="g1680">
          <path
             id="path1682"
             d="m -220.48833,-227.3791 h 204.091876 v 25.31613 H -220.48833 Z"
             style="color:#000000;font-style:normal;font-variant:normal;font-weight:normal;font-stretch:normal;font-size:medium;line-height:normal;font-family:sans-serif;font-variant-ligatures:normal;font-variant-position:normal;font-variant-caps:normal;font-variant-numeric:normal;font-variant-alternates:normal;font-variant-east-asian:normal;font-feature-settings:normal;font-variation-settings:normal;text-indent:0;text-align:start;text-decoration:none;text-decoration-line:none;text-decoration-style:solid;text-decoration-color:#000000;letter-spacing:normal;word-spacing:normal;text-transform:none;writing-mode:lr-tb;direction:ltr;text-orientation:mixed;dominant-baseline:auto;baseline-shift:baseline;text-anchor:start;white-space:normal;shape-padding:0;shape-margin:0;inline-size:0;clip-rule:nonzero;display:inline;overflow:visible;visibility:visible;isolation:auto;mix-blend-mode:normal;color-interpolation:sRGB;color-interpolation-filters:linearRGB;solid-color:#000000;solid-opacity:1;vector-effect:none;fill:#ffff00;fill-opacity:1;fill-rule:nonzero;stroke:none;stroke-width:0.0619039;stroke-linecap:butt;stroke-linejoin:miter;stroke-miterlimit:4;stroke-dasharray:none;stroke-dashoffset:0;stroke-opacity:1;color-rendering:auto;image-rendering:auto;shape-rendering:auto;text-rendering:auto;enable-background:accumulate;stop-color:#000000;stop-opacity:1" />
          <path
             id="path1684"
             d="m -220.51953,-227.41016 v 0.0312 25.34766 h 204.154296 v -25.37891 z m 0.0625,0.0625 h 204.029296 v 25.25391 H -220.45703 Z"
             style="color:#000000;font-style:normal;font-variant:normal;font-weight:normal;font-stretch:normal;font-size:medium;line-height:normal;font-family:sans-serif;font-variant-ligatures:normal;font-variant-position:normal;font-variant-caps:normal;font-variant-numeric:normal;font-variant-alternates:normal;font-variant-east-asian:normal;font-feature-settings:normal;font-variation-settings:normal;text-indent:0;text-align:start;text-decoration:none;text-decoration-line:none;text-decoration-style:solid;text-decoration-color:#000000;letter-spacing:normal;word-spacing:normal;text-transform:none;writing-mode:lr-tb;direction:ltr;text-orientation:mixed;dominant-baseline:auto;baseline-shift:baseline;text-anchor:start;white-space:normal;shape-padding:0;shape-margin:0;inline-size:0;clip-rule:nonzero;display:inline;overflow:visible;visibility:visible;isolation:auto;mix-blend-mode:normal;color-interpolation:sRGB;color-interpolation-filters:linearRGB;solid-color:#000000;solid-opacity:1;vector-effect:none;fill-opacity:1;fill-rule:nonzero;stroke:none;stroke-width:0.0619039;stroke-linecap:butt;stroke-linejoin:miter;stroke-miterlimit:4;stroke-dasharray:none;stroke-dashoffset:0;stroke-opacity:1;color-rendering:auto;image-rendering:auto;shape-rendering:auto;text-rendering:auto;enable-background:accumulate;stop-color:#000000;stop-opacity:1" />
        </g>
        <g
           style="opacity:1"
           id="g1692">
          <path
             id="path1694"
             d="m -119.12269,-278.10781 c -77.45115,-13.85115 -93.32519,2.52309 -101.36552,50.72872 h 204.092058 c -9.451309,-45.94141 -25.924063,-53.3604 -42.063722,-52.80737 z"
             style="color:#000000;font-style:normal;font-variant:normal;font-weight:normal;font-stretch:normal;font-size:medium;line-height:normal;font-family:sans-serif;font-variant-ligatures:normal;font-variant-position:normal;font-variant-caps:normal;font-variant-numeric:normal;font-variant-alternates:normal;font-variant-east-asian:normal;font-feature-settings:normal;font-variation-settings:normal;text-indent:0;text-align:start;text-decoration:none;text-decoration-line:none;text-decoration-style:solid;text-decoration-color:#000000;letter-spacing:normal;word-spacing:normal;text-transform:none;writing-mode:lr-tb;direction:ltr;text-orientation:mixed;dominant-baseline:auto;baseline-shift:baseline;text-anchor:start;white-space:normal;shape-padding:0;shape-margin:0;inline-size:0;clip-rule:nonzero;display:inline;overflow:visible;visibility:visible;isolation:auto;mix-blend-mode:normal;color-interpolation:sRGB;color-interpolation-filters:linearRGB;solid-color:#000000;solid-opacity:1;vector-effect:none;fill:#000000;fill-opacity:1;fill-rule:nonzero;stroke:none;stroke-width:0.122468;stroke-linecap:butt;stroke-linejoin:miter;stroke-miterlimit:4;stroke-dasharray:none;stroke-dashoffset:0;stroke-opacity:1;color-rendering:auto;image-rendering:auto;shape-rendering:auto;text-rendering:auto;enable-background:accumulate;stop-color:#000000;stop-opacity:1" />
          <path
             id="path1696"
             d="m -166.50781,-282.86523 c -12.51219,0.34071 -22.01837,2.59631 -29.35742,6.79687 -14.67812,8.40113 -20.66254,24.57153 -24.6836,48.67969 l -0.0117,0.0703 h 204.240238 l -0.01563,-0.0723 c -4.726938,-22.97695 -11.2094,-36.32984 -18.539062,-43.8711 -7.329662,-7.54126 -15.507982,-9.26319 -23.587891,-8.98633 l -60.660155,2.07813 c -19.35946,-3.46169 -34.87523,-5.03596 -47.38476,-4.69531 z m 0.006,0.12304 c 12.49859,-0.34024 28.00876,1.23296 47.36914,4.69531 h 0.006 0.006 l 60.664059,-2.07812 c 8.059751,-0.27617 16.189684,1.43389 23.49414,8.94922 7.295942,7.50657 13.765334,20.82106 18.488282,43.73633 H -220.41211 c 4.01916,-24.05493 9.9912,-40.15578 24.60742,-48.52149 7.31589,-4.1873 16.80415,-6.441 29.30274,-6.78125 z"
             style="color:#000000;font-style:normal;font-variant:normal;font-weight:normal;font-stretch:normal;font-size:medium;line-height:normal;font-family:sans-serif;font-variant-ligatures:normal;font-variant-position:normal;font-variant-caps:normal;font-variant-numeric:normal;font-variant-alternates:normal;font-variant-east-asian:normal;font-feature-settings:normal;font-variation-settings:normal;text-indent:0;text-align:start;text-decoration:none;text-decoration-line:none;text-decoration-style:solid;text-decoration-color:#000000;letter-spacing:normal;word-spacing:normal;text-transform:none;writing-mode:lr-tb;direction:ltr;text-orientation:mixed;dominant-baseline:auto;baseline-shift:baseline;text-anchor:start;white-space:normal;shape-padding:0;shape-margin:0;inline-size:0;clip-rule:nonzero;display:inline;overflow:visible;visibility:visible;isolation:auto;mix-blend-mode:normal;color-interpolation:sRGB;color-interpolation-filters:linearRGB;solid-color:#000000;solid-opacity:1;vector-effect:none;fill-opacity:1;fill-rule:nonzero;stroke:none;stroke-width:0.122468;stroke-linecap:butt;stroke-linejoin:miter;stroke-miterlimit:4;stroke-dasharray:none;stroke-dashoffset:0;stroke-opacity:1;color-rendering:auto;image-rendering:auto;shape-rendering:auto;text-rendering:auto;enable-background:accumulate;stop-color:#000000;stop-opacity:1" />
        </g>
      </g>
    </g>
  </g>
</svg>
